{"glyphs":{"0":{"ha":1157,"x_min":-40,"x_max":1168,"o":"m 1051 332 m 496 926 l 504 939 q 528 969 511 949 q 586 1019 569 1019 q 694 956 633 1019 q 739 890 710 932 q 794 833 793 836 q 1003 710 826 782 l 1004 669 q 911 604 1006 615 q 757 593 888 601 l 796 550 q 946 454 869 507 q 1076 322 1042 389 q 1090 203 1089 254 q 1139 174 1107 194 q 1168 21 1168 74 q 1110 -164 1168 -164 q 1018 -65 1103 -164 q 908 17 947 17 q 918 14 917 17 q 885 -3 918 10 q 801 -31 828 -25 q 629 -47 728 -47 q 265 49 421 -47 q 56 394 56 178 l 61 417 q 76 453 78 450 q 26 507 72 472 q -31 568 -19 542 q -7 640 -40 593 q 26 704 17 675 q 40 714 29 714 q 132 667 65 714 q 160 804 160 733 q 156 828 160 813 q 153 853 153 844 q 246 1003 153 897 q 400 1119 349 1119 q 460 1076 421 1119 l 474 1035 l 496 926 m 114 282 q 176 182 133 250 q 381 50 240 113 q 633 11 468 11 l 688 11 q 799 24 733 11 q 851 47 806 26 q 884 73 858 50 q 915 96 910 96 q 1019 13 932 96 q 1119 -75 1106 -71 q 1126 -11 1126 -57 q 1116 63 1126 10 q 1097 128 1106 115 q 1044 178 1076 144 q 1053 222 1053 200 q 961 361 1053 297 q 854 453 935 388 q 761 514 825 471 q 689 593 708 551 q 697 632 688 611 q 724 653 707 653 l 811 642 q 925 664 867 642 l 922 690 q 721 832 835 731 q 631 919 668 879 l 596 957 q 532 881 561 957 q 485 781 497 792 q 451 932 475 819 q 404 1056 432 1025 q 289 965 365 1049 q 215 872 246 919 q 219 819 219 844 q 156 607 219 754 q 151 606 154 606 q 101 628 143 606 q 50 651 58 651 q 6 590 1 603 q 69 533 10 576 q 133 479 129 490 q 117 428 133 464 q 101 374 101 392 l 114 282 m 599 488 q 615 460 615 474 q 588 443 615 443 q 403 494 554 443 l 407 524 q 431 579 410 544 q 461 636 457 622 q 476 658 468 656 q 526 586 479 650 l 576 519 q 599 488 578 517 m 613 273 q 644 252 613 273 q 675 204 675 232 q 631 175 675 179 q 529 186 583 169 l 469 204 q 404 256 440 213 q 375 326 381 283 q 382 376 379 350 q 454 350 392 374 q 515 321 475 339 q 613 273 551 314 m 529 494 l 489 558 l 468 564 l 451 519 l 529 494 z "},"1":{"ha":619,"x_min":-89,"x_max":725,"o":"m 96 660 l 50 564 q 10 444 21 503 q 6 392 6 396 q 14 304 8 347 q 136 53 36 146 q 396 -44 239 -44 q 481 -36 431 -44 q 499 -15 499 -33 q 496 13 499 -10 q 490 35 496 19 q 485 56 485 50 q 474 81 485 63 l 461 97 l 336 242 q 322 285 322 258 q 457 515 322 361 q 618 699 497 561 q 725 979 725 821 q 696 1089 725 1046 q 599 1140 661 1140 q 524 1108 572 1140 q 456 1060 501 1092 q 239 925 343 981 l 153 879 q 43 825 144 876 q -89 751 -65 769 l 96 660 m 14 758 q 296 886 93 790 q 472 997 318 897 q 615 1083 599 1079 q 653 1038 643 1089 q 658 988 658 1008 q 601 801 658 901 q 433 581 569 747 q 274 267 274 386 q 286 226 274 260 q 314 188 290 218 l 333 163 l 399 82 q 439 7 431 42 q 357 0 397 0 q 163 92 244 0 q 68 292 90 174 q 76 457 53 372 q 136 613 107 532 q 160 658 138 618 q 176 700 178 693 l 14 758 z "},"2":{"ha":1068,"x_min":-33,"x_max":1161,"o":"m 1129 450 q 1132 417 1132 444 q 1129 403 1132 407 q 1092 371 1118 388 q 1051 342 1061 351 l 1056 329 q 1065 306 1065 310 l 1065 306 q 1053 326 1057 306 l 1046 343 l 1100 244 q 1161 132 1117 214 l 1093 93 q 957 21 1035 60 q 801 -25 865 -25 q 669 0 740 -25 l 525 51 q 485 57 510 57 q 403 28 440 57 q 339 -35 382 7 q 289 -46 328 -46 q 136 15 243 -46 q -29 158 7 89 q -33 183 -33 158 q 35 288 -33 228 q 78 326 57 301 q 196 440 99 346 l 338 578 q 339 618 340 589 q 307 746 335 688 q 210 822 271 822 q 171 821 193 822 l 128 818 q 100 853 100 817 q 269 1018 100 918 q 465 1108 424 1108 q 626 1000 531 1108 q 776 803 685 935 q 913 643 807 758 q 942 611 921 635 q 979 582 953 606 q 1029 539 992 571 l 1072 506 q 1107 476 1075 503 l 1129 450 m 1035 479 l 1035 481 q 943 539 1015 489 q 832 658 907 564 q 650 872 806 682 q 476 1047 507 1047 q 304 979 411 1047 q 157 881 263 953 l 153 875 q 150 868 147 868 q 175 874 154 868 q 189 876 183 876 q 226 879 207 881 l 249 878 q 335 818 296 868 q 381 717 374 768 q 383 705 381 729 q 386 643 386 681 l 386 628 q 379 489 375 503 q 383 475 379 485 q 397 468 388 471 q 414 469 411 468 l 432 485 q 446 504 433 486 l 461 525 q 472 550 468 539 l 476 561 q 492 597 482 571 q 508 657 508 642 q 496 704 508 681 q 512 721 497 710 q 532 732 526 732 q 572 716 546 732 q 608 688 597 700 q 626 671 613 685 q 672 631 656 642 q 710 597 681 626 l 717 590 l 718 590 q 747 563 725 585 q 782 529 756 554 q 747 493 763 493 q 666 558 744 493 q 585 624 588 624 l 564 619 q 532 551 556 600 q 453 436 500 483 l 444 428 q 425 419 439 425 q 376 418 401 414 q 339 475 339 424 q 340 511 339 463 q 342 510 340 515 l 340 511 l 321 496 l 21 196 q 64 142 61 144 q 146 81 93 118 q 221 32 214 32 q 264 24 236 32 q 307 15 292 15 q 339 46 318 25 q 493 132 425 132 q 525 125 490 132 q 571 108 532 124 q 682 71 600 101 q 792 32 758 32 q 892 51 851 32 l 892 51 q 1018 104 994 90 q 1088 142 1047 119 l 1099 149 q 999 313 1064 229 q 936 297 967 313 q 876 276 889 274 q 831 290 854 276 q 786 317 807 303 q 590 372 690 372 q 436 315 553 372 q 422 335 431 322 q 495 426 432 379 q 604 474 558 474 q 671 461 643 474 q 728 425 685 454 q 785 375 751 401 l 818 349 q 847 333 822 344 q 883 332 850 332 q 907 338 892 332 q 928 343 922 343 q 953 355 935 343 q 975 367 971 367 l 975 367 l 975 367 l 975 367 l 999 383 l 1054 414 q 1072 438 1072 424 q 1064 460 1072 451 l 1035 479 z "},"3":{"ha":1088,"x_min":-57,"x_max":1110,"o":"m -57 332 q -54 319 -57 325 q 8 229 -29 265 q 76 172 15 222 q 250 49 178 89 q 396 -19 372 -19 q 479 40 428 1 q 633 135 561 101 q 807 197 672 153 l 949 244 q 1038 353 1003 274 q 1081 483 1057 396 q 1110 636 1110 590 q 1095 677 1110 658 q 1060 696 1081 696 q 951 625 1022 696 l 933 607 l 897 615 q 935 682 924 633 q 949 735 949 743 q 950 757 949 742 q 951 779 951 772 q 906 865 951 817 q 824 913 860 913 q 812 915 819 913 q 800 917 804 917 l 743 919 q 699 924 735 918 q 643 942 681 926 q 622 981 622 963 q 617 992 622 982 q 613 1003 613 1001 q 614 1010 614 1008 q 600 1022 614 1017 q 440 1067 553 1040 q 290 1096 363 1085 q 213 1097 281 1097 q 132 1096 143 1097 q 71 1090 89 1090 l 53 1090 q 42 1081 46 1090 q 35 1072 38 1072 l 35 1040 q 126 947 35 1024 q 249 814 176 906 q 381 650 268 781 q 411 614 385 640 q 332 510 389 561 q 254 440 310 481 q 47 363 147 363 q 0 365 -11 363 q -57 332 -57 351 m 611 621 l 553 617 l 524 622 q 567 646 554 632 q 594 689 569 650 q 644 672 607 685 q 671 650 671 664 q 668 638 671 644 q 607 619 657 621 q 611 621 608 619 m 572 800 l 563 757 q 547 710 553 714 q 500 689 518 689 q 457 685 518 689 q 411 699 435 683 q 396 707 399 707 q 338 788 372 751 q 271 861 319 806 q 97 1029 169 979 q 81 1050 81 1046 q 113 1053 85 1053 l 113 1053 l 150 1053 q 186 1054 189 1053 l 258 1050 q 354 1033 281 1049 q 449 1015 369 1031 q 515 994 479 1010 l 575 969 q 688 871 611 899 q 808 851 725 871 q 882 789 839 844 q 900 714 896 771 q 813 576 860 618 q 831 540 814 546 l 856 540 q 974 569 915 540 q 1046 607 1050 607 l 1064 607 q 1007 404 1049 525 q 886 286 976 315 l 711 231 q 510 136 583 190 q 369 58 403 58 q 331 69 360 58 q 297 82 324 72 q 142 192 256 97 q 69 251 118 211 q 7 313 19 292 q 89 321 40 321 q 408 511 231 321 q 467 578 471 578 q 535 543 501 578 q 544 493 540 538 q 558 414 550 428 q 603 385 575 385 q 685 404 618 385 q 753 426 715 413 q 743 471 751 447 q 707 476 735 476 q 669 472 678 476 l 649 465 q 615 449 629 454 q 597 464 606 444 q 597 501 596 467 q 602 536 597 506 q 606 569 607 567 q 604 572 606 571 q 603 575 603 574 q 617 581 604 578 q 707 603 664 589 q 719 640 706 606 q 732 682 732 674 q 718 710 732 699 q 679 722 708 713 q 636 740 667 726 q 600 765 621 753 l 572 800 z "},"4":{"ha":850,"x_min":-107,"x_max":943,"o":"m 781 721 q 808 686 794 721 q 836 586 813 669 q 868 442 869 469 q 863 415 868 426 l 822 414 q 769 449 817 414 l 713 490 q 710 468 710 489 q 747 347 710 419 q 800 251 751 339 q 943 104 835 203 l 943 86 q 685 42 889 72 l 657 38 l 114 -42 q -21 54 88 -40 l 199 285 q 279 374 219 307 q 326 432 326 426 q 282 458 326 460 q 225 454 263 458 q 4 472 188 454 q -101 499 -51 478 q -96 524 -107 511 q 24 638 -64 560 q 96 708 75 683 q 143 796 139 758 q 90 856 119 818 q 4 1113 4 1061 q 71 1150 4 1150 q 293 1089 138 1150 q 468 974 464 1022 q 444 856 472 929 q 401 740 429 817 q 479 868 453 783 q 497 1019 503 946 q 493 1081 500 1042 q 492 1131 490 1128 q 517 1158 504 1143 q 550 1160 542 1164 q 568 1153 561 1154 q 703 1072 625 1138 q 814 938 814 981 q 778 841 814 918 q 742 739 742 764 l 781 721 m 72 56 q 128 8 107 8 q 136 10 132 8 l 849 118 q 669 518 669 269 q 667 538 669 542 q 696 551 669 551 q 811 476 736 553 q 800 596 824 511 q 774 668 783 653 q 731 685 768 676 q 689 699 693 694 q 725 818 692 733 q 747 876 740 857 q 760 935 760 911 q 658 1046 761 979 q 531 1119 565 1107 q 533 1122 532 1122 q 550 1090 550 1118 l 550 1058 q 542 951 556 1036 q 390 694 500 692 q 360 690 378 690 l 343 690 q 321 708 331 689 q 389 821 374 790 q 424 946 424 888 q 254 1056 424 996 q 56 1108 106 1108 l 53 1100 q 50 1089 49 1093 q 90 972 50 1063 q 147 871 129 882 l 158 864 q 181 844 171 864 q 192 810 192 824 q 94 646 190 746 q -18 543 42 590 q 175 522 32 526 q 229 521 194 519 l 290 522 q 365 517 313 522 q 401 486 403 508 q 382 425 401 468 q 318 339 363 393 q 269 283 306 325 l 72 56 z "},"5":{"ha":733,"x_min":-58,"x_max":938,"o":"m -22 683 q 56 831 14 782 q 93 899 81 860 q 135 961 108 921 q 344 1061 192 1004 q 560 1103 367 1069 q 835 1133 736 1133 q 938 1118 882 1133 q 847 1029 932 1090 q 758 954 797 993 q 715 901 743 935 q 667 838 694 885 l 647 768 l 743 700 q 808 571 808 629 q 771 517 808 526 q 754 515 760 514 q 738 522 749 517 q 567 142 746 256 q 560 126 560 138 q 585 60 564 115 q 601 13 589 49 q 501 -39 601 -39 q 392 -25 436 -39 l 278 11 q 167 57 215 31 q -58 272 -58 176 q -14 414 -58 336 l 33 497 q 39 521 36 499 q 37 542 40 528 q 28 556 33 556 l -4 611 q -24 635 -10 618 q -32 657 -26 642 l -22 683 m 435 674 q 449 633 453 654 q 453 572 453 558 q 375 422 453 475 q 311 394 339 397 q 253 411 283 396 q 217 453 217 429 q 232 496 217 481 q 263 526 232 514 q 308 538 288 538 q 347 576 338 538 q 361 624 353 592 q 74 558 315 611 q 54 557 71 557 q 90 493 63 557 q 28 394 56 443 q -14 292 17 375 q 208 96 -14 193 q 382 24 257 76 q 532 0 440 -1 q 538 21 532 6 q 538 44 540 35 l 513 132 q 557 195 513 156 q 615 253 601 235 q 660 325 629 271 q 690 421 675 361 q 686 558 686 483 q 713 586 696 586 l 758 563 q 754 591 758 575 q 750 608 750 607 q 690 683 738 629 q 628 732 653 726 q 590 746 619 733 q 556 756 567 756 q 444 750 476 756 l 364 736 q 340 733 356 736 q 317 729 325 729 q 296 738 304 729 q 308 794 290 764 q 344 844 313 801 q 407 876 368 868 l 451 886 q 456 878 456 886 l 436 842 q 417 782 417 804 q 475 792 417 789 l 550 796 q 615 794 581 793 q 617 815 617 797 q 615 842 617 833 q 625 874 611 857 q 725 979 657 913 q 810 1051 747 997 q 864 1089 843 1081 q 826 1092 857 1093 q 396 1031 629 1085 q 293 1000 378 1026 q 194 957 256 989 q 158 925 168 938 q 94 813 147 896 q 13 668 13 706 l 13 643 q 22 632 14 638 l 31 625 q 94 604 65 604 l 435 674 z "},"6":{"ha":1115,"x_min":-24,"x_max":1131,"o":"m 329 904 q 394 954 347 918 q 500 1003 465 993 l 607 1035 q 792 1056 646 1046 q 901 1057 843 1058 q 1003 1050 975 1054 q 1076 1018 1019 1047 q 1131 983 1125 993 q 1115 949 1122 965 q 1092 921 1103 925 l 938 865 q 804 772 899 851 q 704 639 725 706 l 763 639 l 914 640 q 965 632 915 640 q 1011 603 983 629 q 1046 561 1035 581 q 1083 490 1051 551 q 1107 431 1107 446 q 1122 390 1122 388 q 1114 338 1122 378 l 908 -29 q 886 -40 904 -33 q 864 -46 868 -47 q 847 -40 861 -46 q 832 -35 833 -33 q 661 69 707 46 q 411 196 554 125 q 214 261 379 211 q 129 276 190 265 q -24 417 -24 304 q 22 539 -24 467 q 114 681 40 565 q 219 811 126 700 l 329 904 m 475 713 l 429 682 l 401 647 l 460 642 l 475 713 m 1064 354 l 1074 393 l 1054 446 q 1006 526 1038 490 q 986 556 989 553 q 963 575 971 567 q 864 603 932 604 q 808 603 826 603 q 750 603 790 603 q 681 601 706 604 q 644 601 672 601 q 588 600 611 600 q 492 600 528 600 q 408 601 394 600 q 415 575 415 593 q 419 556 415 574 l 419 533 q 393 517 407 517 q 342 564 342 517 l 342 576 l 343 608 q 382 711 346 672 q 424 758 389 722 q 496 799 464 781 q 532 810 507 801 q 563 815 547 815 q 567 811 567 815 q 513 693 567 801 l 513 671 q 543 667 519 667 q 580 669 556 667 q 617 671 604 671 q 692 722 654 671 q 744 793 710 747 q 936 917 850 876 q 1067 961 982 931 q 943 1018 996 1018 q 768 1015 810 1018 q 599 990 665 1008 q 411 913 475 957 q 307 835 321 850 l 196 713 l 107 586 q 17 431 17 458 q 19 422 17 425 q 46 372 28 381 q 122 343 65 353 q 199 326 158 338 q 589 174 431 265 q 842 28 693 133 q 860 22 851 25 q 871 33 868 22 l 1064 354 m 869 286 q 908 399 874 301 q 942 482 942 465 l 939 493 q 849 499 925 496 q 678 497 793 501 l 550 493 l 522 489 q 507 474 506 485 l 507 453 q 553 411 513 440 q 671 300 565 399 q 835 172 750 225 l 869 286 m 625 396 l 761 406 l 840 406 l 786 264 l 625 396 z "},"7":{"ha":953,"x_min":-100,"x_max":1010,"o":"m 592 1078 q 479 1039 511 1046 q 233 1017 378 1017 q 83 1047 182 1017 q -68 1078 -17 1078 q -100 1044 -85 1078 q 13 840 -79 960 q 117 739 57 783 q 183 694 150 714 q 267 685 213 685 q 347 714 299 685 l 235 542 q 92 311 188 482 q -15 64 -15 121 q 51 -19 -15 -19 q 355 44 94 -19 q 642 126 615 108 q 719 189 668 144 q 760 254 733 213 q 703 301 758 301 q 670 298 692 301 q 638 294 649 294 q 603 289 626 294 q 569 283 581 283 q 539 321 546 283 q 549 389 539 356 l 560 428 q 603 546 578 490 l 622 589 q 790 860 724 814 l 849 890 q 1003 931 904 919 q 1006 940 1003 932 q 1010 954 1010 949 q 835 1076 1010 1025 q 646 1115 703 1115 l 592 1078 m 349 800 q 378 803 358 800 q 407 806 397 806 q 372 757 382 757 q 356 774 364 757 q 349 800 349 790 m 390 672 q 474 771 407 689 l 522 831 q 536 858 531 840 q 508 893 528 869 l 382 874 q 278 829 283 858 q 303 778 303 799 l 303 758 q 253 739 276 739 q 227 742 244 739 q 201 744 210 744 q 156 765 193 744 q 107 794 118 786 q 26 900 82 815 q -32 1010 -31 985 q 300 954 167 954 l 369 954 q 569 1003 439 954 q 678 1053 700 1053 q 919 979 785 1053 q 796 931 842 971 q 668 776 763 901 q 633 714 650 753 q 599 638 624 694 q 582 597 596 632 q 551 514 576 589 q 536 471 551 511 q 521 424 535 465 q 506 369 515 411 q 503 314 503 349 q 582 228 503 228 q 616 237 593 228 q 650 246 639 246 q 672 238 672 246 q 657 215 672 231 l 642 200 q 176 49 568 153 q 99 39 140 39 q 39 64 44 39 q 317 569 117 290 l 390 672 z "},"8":{"ha":993,"x_min":-32,"x_max":1015,"o":"m 1015 518 q 986 389 1015 417 q 908 299 975 378 q 474 28 794 163 q 274 -28 342 -28 q 203 -17 244 -28 q 3 147 110 8 q -32 244 -32 192 q -26 314 -32 265 q 13 404 -26 343 q 76 482 49 461 q 165 560 113 508 l 249 640 l 156 697 q 89 775 126 715 q 42 914 42 850 q 196 1089 42 1056 q 347 1107 228 1096 q 535 1094 435 1115 q 707 1031 635 1074 q 783 960 744 1008 q 826 869 826 907 q 783 782 826 815 q 731 746 764 769 q 793 735 750 739 q 856 724 836 731 l 939 694 q 1015 518 1015 651 m 978 511 q 954 600 978 556 q 890 662 928 651 q 819 683 853 672 q 607 701 740 701 q 590 714 600 703 q 685 763 604 729 q 788 847 754 792 q 694 975 765 929 q 629 1015 644 1007 q 357 1063 539 1063 q 156 1025 250 1063 q 93 935 93 1000 q 160 758 93 865 l 160 758 l 158 761 l 336 651 q 225 551 301 614 q 115 454 149 489 q 47 369 81 429 q 13 268 13 308 q 57 171 13 247 q 93 126 76 138 q 168 64 118 104 l 193 47 q 283 29 232 29 q 481 83 350 29 q 781 244 649 154 q 892 342 851 294 q 969 469 933 390 q 978 511 978 488 m 649 468 q 626 388 649 449 q 529 303 604 342 q 404 267 460 267 q 340 307 351 267 q 319 368 319 328 q 371 504 319 450 q 471 582 399 533 q 525 594 497 594 q 574 585 549 594 q 643 501 622 574 q 649 468 649 482 m 515 428 q 457 489 515 489 q 431 482 442 489 q 358 381 358 436 q 368 351 358 361 q 399 332 374 332 q 459 351 424 332 q 506 390 494 369 q 515 428 515 419 m 308 921 q 281 860 272 888 q 313 807 285 826 q 386 779 364 783 q 479 796 432 771 q 507 825 501 808 q 518 849 518 835 q 450 925 518 886 q 378 947 403 951 l 340 940 q 308 921 322 933 z "},"9":{"ha":963,"x_min":-14,"x_max":1015,"o":"m 804 828 q 799 932 810 863 q 782 1025 796 950 q 751 1111 772 1082 q 724 1151 749 1119 q 694 1183 717 1163 q 661 1201 668 1206 l 626 1097 q 618 1064 619 1067 q 601 1036 613 1043 q 556 1011 589 1029 q 479 981 546 1006 l 410 954 q 344 929 394 949 l 283 906 q 218 878 263 894 q 140 843 197 868 q 38 768 117 832 q -12 636 -3 743 l -14 621 q 21 540 -14 599 q 246 415 78 446 q 515 397 322 401 q 532 261 532 294 q 481 -74 532 75 l 482 -71 q 483 -71 483 -69 l 483 -86 q 510 -94 492 -93 q 539 -87 531 -96 q 601 -54 556 -85 q 707 17 636 -36 q 796 106 735 36 q 907 251 815 128 q 996 382 961 324 q 1014 440 1004 411 q 957 489 1015 444 l 910 471 q 896 481 906 468 q 883 500 893 486 l 863 542 q 811 718 817 633 l 804 828 m 935 440 q 954 411 954 424 q 775 150 954 399 q 676 50 744 107 q 561 -28 604 -12 q 596 235 596 96 q 576 444 596 340 q 350 457 393 453 q 135 503 190 472 q 61 579 94 525 q 43 643 43 608 q 94 747 43 710 q 161 797 111 764 l 231 832 q 300 861 247 835 l 347 878 q 370 886 351 878 q 394 895 389 894 q 440 910 399 896 q 493 929 454 915 q 593 967 526 940 q 632 1000 621 989 q 660 1042 654 1021 q 688 1115 660 1046 q 740 1028 721 1086 q 757 940 744 1015 q 764 858 764 899 l 764 751 q 778 665 764 714 q 808 557 783 631 q 858 447 822 525 q 890 417 872 417 q 911 424 899 417 l 935 440 m 574 521 q 528 719 554 615 q 447 722 511 738 q 332 664 372 704 q 310 610 304 636 q 331 560 313 593 q 383 525 358 528 q 472 514 407 510 l 574 521 m 390 575 q 385 588 386 579 q 410 622 383 596 q 479 644 446 642 q 503 558 486 611 q 482 556 497 556 l 457 556 q 390 575 407 556 z "}," ":{"ha":694,"x_min":0,"x_max":0,"o":""},"!":{"ha":619,"x_min":18,"x_max":663,"o":"m 18 758 q 300 886 97 790 q 476 997 322 897 q 619 1083 603 1079 q 657 1038 647 1089 q 663 988 663 1008 q 606 801 663 901 q 438 581 574 747 q 278 267 278 386 q 290 226 278 260 q 318 188 294 218 l 338 163 l 403 82 q 443 7 435 42 q 361 0 401 0 q 167 92 249 0 q 72 292 94 174 q 81 457 57 372 q 140 613 111 532 q 164 658 142 618 q 181 700 182 693 l 18 758 z "},"\"":{"ha":494,"x_min":0,"x_max":0,"o":""},"#":{"ha":1088,"x_min":11,"x_max":1068,"o":"m 576 800 l 567 757 q 551 710 557 714 q 504 689 522 689 q 461 685 522 689 q 415 699 439 683 q 400 707 403 707 q 342 788 376 751 q 275 861 324 806 q 101 1029 174 979 q 85 1050 85 1046 q 117 1053 89 1053 l 117 1053 l 154 1053 q 190 1054 193 1053 l 263 1050 q 358 1033 285 1049 q 453 1015 374 1031 q 519 994 483 1010 l 579 969 q 692 871 615 899 q 813 851 729 871 q 886 789 843 844 q 904 714 900 771 q 817 576 864 618 q 835 540 818 546 l 860 540 q 978 569 919 540 q 1050 607 1054 607 l 1068 607 q 1011 404 1053 525 q 890 286 981 315 l 715 231 q 514 136 588 190 q 374 58 407 58 q 335 69 364 58 q 301 82 328 72 q 146 192 260 97 q 73 251 122 211 q 11 313 24 292 q 93 321 44 321 q 413 511 235 321 q 471 578 475 578 q 539 543 506 578 q 549 493 544 538 q 563 414 554 428 q 607 385 579 385 q 689 404 622 385 q 757 426 719 413 q 747 471 756 447 q 711 476 739 476 q 674 472 682 476 l 653 465 q 619 449 633 454 q 601 464 610 444 q 601 501 600 467 q 606 536 601 506 q 610 569 611 567 q 608 572 610 571 q 607 575 607 574 q 621 581 608 578 q 711 603 668 589 q 723 640 710 606 q 736 682 736 674 q 722 710 736 699 q 683 722 713 713 q 640 740 671 726 q 604 765 625 753 l 576 800 z "},"$":{"ha":850,"x_min":-18,"x_max":849,"o":"m 72 56 q 128 8 107 8 q 136 10 132 8 l 849 118 q 669 518 669 269 q 667 538 669 542 q 696 551 669 551 q 811 476 736 553 q 800 596 824 511 q 774 668 783 653 q 731 685 768 676 q 689 699 693 694 q 725 818 692 733 q 747 876 740 857 q 760 935 760 911 q 658 1046 761 979 q 526 1119 571 1103 q 529 1122 528 1122 q 546 1090 546 1118 l 546 1058 q 538 951 551 1036 q 390 694 496 692 q 360 690 378 690 l 343 690 q 321 708 331 689 q 389 821 374 790 q 424 946 424 888 q 254 1056 424 996 q 51 1108 106 1108 l 49 1100 q 46 1089 44 1093 q 85 972 46 1063 q 143 871 125 882 l 154 864 q 177 844 167 864 q 188 810 188 824 q 94 646 186 742 q -18 529 58 604 q 175 504 44 507 q 229 503 192 501 l 290 504 q 365 499 313 504 q 401 468 403 490 q 381 427 399 461 q 318 339 363 393 q 269 283 306 325 l 72 56 z "},"%":{"ha":733,"x_min":-14,"x_max":864,"o":"m 435 674 q 449 633 453 654 q 453 572 453 558 q 375 422 453 475 q 311 394 339 397 q 253 411 283 396 q 217 453 217 429 q 232 496 217 481 q 263 526 232 514 q 308 538 288 538 q 347 576 338 538 q 361 624 353 592 q 74 558 315 611 q 54 557 71 557 q 90 493 63 557 q 28 394 56 443 q -14 292 17 375 q 208 96 -14 193 q 382 24 257 76 q 532 0 440 -1 q 538 21 532 6 q 538 44 540 35 l 513 132 q 557 195 513 156 q 615 253 601 235 q 660 325 629 271 q 690 421 675 361 q 686 558 686 483 q 713 586 696 586 l 758 563 q 754 591 758 575 q 750 608 750 607 q 690 683 738 629 q 628 732 653 726 q 590 746 619 733 q 556 756 567 756 q 444 750 476 756 l 364 736 q 340 733 356 736 q 317 729 325 729 q 296 738 304 729 q 308 794 290 764 q 344 844 313 801 q 407 876 368 868 l 451 886 q 456 878 456 886 l 436 842 q 417 782 417 804 q 475 792 417 789 l 550 796 q 615 794 581 793 q 617 815 617 797 q 615 842 617 833 q 625 874 611 857 q 725 979 657 913 q 810 1051 747 997 q 864 1089 843 1081 q 826 1092 857 1093 q 396 1031 629 1085 q 293 1000 378 1026 q 194 957 256 989 q 158 925 168 938 q 94 813 147 896 q 13 668 13 706 l 13 643 q 22 632 14 638 l 31 625 q 94 604 65 604 l 435 674 z "},"&":{"ha":953,"x_min":-28,"x_max":924,"o":"m 394 672 q 478 771 411 689 l 526 831 q 540 858 535 840 q 513 893 532 869 l 386 874 q 282 829 288 858 q 307 778 307 799 l 307 758 q 257 739 281 739 q 231 742 249 739 q 206 744 214 744 q 160 765 197 744 q 111 794 122 786 q 30 900 86 815 q -28 1010 -26 985 q 304 954 171 954 l 374 954 q 574 1003 443 954 q 682 1053 704 1053 q 924 979 789 1053 q 800 931 846 971 q 672 776 767 901 q 638 714 654 753 q 603 638 628 694 q 586 597 600 632 q 556 514 581 589 q 540 471 556 511 q 525 424 539 465 q 510 369 519 411 q 507 314 507 349 q 586 228 507 228 q 620 237 597 228 q 654 246 643 246 q 676 238 676 246 q 661 215 676 231 l 646 200 q 181 49 572 153 q 103 39 144 39 q 43 64 49 39 q 321 569 121 290 l 394 672 z "},"'":{"ha":494,"x_min":0,"x_max":0,"o":""},"(":{"ha":963,"x_min":61,"x_max":976,"o":"m 957 440 q 976 411 976 424 q 797 150 976 399 q 698 49 767 108 q 579 -28 629 -10 q 614 235 614 96 q 594 444 614 340 q 368 457 411 453 q 153 503 208 472 q 79 579 113 525 q 61 643 61 608 q 113 747 61 710 q 179 797 129 764 l 249 832 q 318 861 265 835 l 365 878 q 388 886 369 878 q 412 895 407 894 q 458 910 417 896 q 511 929 472 915 q 611 967 544 940 q 650 1000 639 989 q 678 1042 672 1021 q 706 1115 678 1046 q 763 1028 744 1082 q 779 940 767 1015 q 786 858 786 899 l 786 751 q 800 665 786 714 q 831 557 806 631 q 881 447 846 525 q 913 417 894 417 q 933 424 921 417 l 957 440 m 592 521 q 546 719 572 615 q 465 722 529 738 q 350 664 390 704 q 328 610 322 636 q 349 560 331 593 q 401 525 376 528 q 490 514 425 510 l 592 521 z "},")":{"ha":1157,"x_min":8,"x_max":1133,"o":"m 108 374 q 124 428 108 392 q 140 479 140 464 q 76 533 136 490 q 13 590 17 576 q 57 651 8 603 q 108 628 65 651 q 158 606 150 606 q 163 607 161 606 q 226 819 226 754 q 222 872 226 844 q 296 965 253 919 q 411 1056 372 1049 q 458 932 439 1025 q 492 781 482 819 q 539 881 504 792 q 603 957 568 957 l 638 919 q 728 832 675 879 q 929 690 842 731 l 932 664 q 818 642 874 642 l 731 653 q 704 632 714 653 q 696 593 694 611 q 768 514 715 551 q 861 453 832 471 q 968 361 942 388 q 1060 222 1060 297 q 1051 178 1060 200 q 1104 128 1083 144 q 1123 63 1113 115 q 1133 -11 1133 10 q 1126 -75 1133 -57 q 1026 13 1113 -71 q 922 96 939 96 q 891 73 917 96 q 858 47 865 50 q 806 24 813 26 q 694 11 740 11 l 640 11 q 388 50 475 11 q 183 182 247 113 q 121 282 140 250 l 108 374 m 606 488 q 583 519 585 517 l 533 586 q 483 658 486 650 q 468 636 475 656 q 438 579 464 622 q 414 524 417 544 l 410 494 q 594 443 561 443 q 622 460 622 443 q 606 488 622 474 m 682 204 q 620 273 682 232 q 522 321 558 314 q 461 350 482 339 q 389 376 399 374 q 382 326 386 350 q 411 256 388 283 q 476 204 447 213 l 536 186 q 638 175 590 169 q 682 204 682 179 z "},"*":{"ha":993,"x_min":19,"x_max":989,"o":"m 989 511 q 981 469 989 488 q 904 343 944 390 q 788 244 869 301 q 488 83 656 154 q 290 29 357 29 q 200 47 239 29 l 175 64 q 100 126 125 104 q 64 171 83 138 q 19 268 19 247 q 53 369 19 308 q 122 454 88 429 q 232 551 156 489 q 343 651 308 614 l 167 758 q 100 935 100 865 q 163 1025 100 1000 q 364 1063 257 1063 q 640 1015 550 1063 q 706 975 656 1007 q 799 847 776 929 q 690 760 765 792 q 597 714 607 725 q 614 701 607 703 q 831 683 751 701 q 908 658 869 671 q 966 599 943 643 q 989 511 989 556 m 525 849 q 457 925 525 886 q 385 947 410 951 l 347 940 q 315 921 329 933 q 288 860 279 888 q 319 807 292 826 q 393 779 371 783 q 486 796 439 771 q 514 825 508 808 q 525 849 525 835 m 656 468 q 650 501 656 482 q 581 585 629 574 q 532 594 556 594 q 478 582 504 594 q 378 504 406 533 q 326 368 326 450 q 347 307 326 328 q 411 267 358 267 q 536 303 467 267 q 633 388 611 342 q 656 468 656 449 z "},"+":{"ha":1488,"x_min":21,"x_max":1474,"o":"m 1439 196 l 1435 196 l 1435 181 l 1439 181 l 1439 196 m 1431 189 q 1422 201 1422 207 q 1417 196 1422 196 l 1422 175 q 1429 179 1426 175 q 1425 176 1426 176 q 1421 192 1429 178 q 1428 193 1424 193 l 1431 189 m 1403 218 l 1399 218 l 1399 203 l 1403 203 l 1403 218 m 1439 176 l 1435 176 l 1435 160 l 1439 160 l 1439 176 m 1417 153 q 1406 174 1418 157 l 1406 150 q 1410 163 1408 157 q 1417 153 1417 163 m 1421 115 l 1411 115 l 1411 111 l 1421 111 l 1421 115 m 1428 101 l 1424 101 l 1424 90 l 1428 90 l 1428 101 m 1394 92 q 1374 72 1382 76 q 1385 71 1383 72 q 1394 92 1385 79 m 1268 200 l 1264 199 l 1268 190 l 1272 190 l 1268 200 m 1381 68 l 1371 58 l 1374 54 l 1383 65 l 1381 68 m 1268 182 l 1263 174 l 1265 171 l 1272 178 l 1268 182 m 1385 51 q 1375 50 1378 47 l 1382 43 q 1385 51 1385 49 m 1249 199 q 1236 203 1244 203 q 1215 188 1226 203 q 1236 200 1226 200 q 1249 199 1247 200 m 1326 67 l 1322 69 q 1310 74 1315 69 q 1301 78 1306 78 q 1297 72 1297 78 q 1290 79 1297 79 q 1310 74 1297 81 q 1326 67 1324 67 m 1217 186 l 1211 186 l 1211 172 l 1217 172 l 1217 186 m 1193 210 l 1182 210 l 1182 204 l 1193 204 l 1193 210 m 1369 18 q 1354 0 1367 -6 l 1368 0 q 1369 10 1368 3 l 1369 18 m 1278 97 l 1276 93 l 1289 82 l 1292 86 l 1278 97 m 1185 192 q 1178 201 1172 192 q 1175 196 1175 199 q 1181 193 1175 193 q 1182 197 1182 193 l 1176 197 l 1185 192 m 1340 15 l 1338 13 l 1347 1 l 1350 4 l 1340 15 m 1261 97 l 1260 93 l 1267 89 l 1268 93 l 1261 97 m 1311 51 l 1306 51 l 1306 33 l 1311 33 l 1311 51 m 1243 113 q 1239 124 1239 119 l 1235 115 q 1243 113 1238 115 m 1318 31 l 1315 28 l 1322 19 l 1325 24 l 1318 31 m 1249 110 l 1240 106 l 1242 101 l 1249 106 l 1249 110 m 1163 197 l 1156 182 l 1160 181 l 1167 194 l 1163 197 m 1179 169 q 1165 183 1179 176 q 1163 178 1165 182 q 1160 172 1160 174 q 1175 163 1174 164 q 1179 169 1175 165 m 1179 153 l 1175 144 l 1179 143 l 1183 151 l 1179 153 m 1176 143 q 1167 129 1167 142 q 1171 108 1167 118 q 1169 131 1169 124 q 1176 143 1176 131 m 333 203 l 329 201 l 335 188 l 339 188 l 333 203 m 317 210 l 310 203 l 313 199 l 319 207 l 317 210 m 335 183 q 330 187 333 183 q 325 190 326 190 l 317 179 q 318 173 317 176 q 319 168 319 169 q 335 183 325 172 m 317 158 l 313 157 l 315 150 l 319 150 l 317 158 m 283 193 l 279 193 l 279 178 l 283 178 l 283 193 m 325 136 q 324 115 325 118 q 328 132 328 124 q 319 149 328 142 q 325 136 319 139 m 293 169 l 285 165 l 286 161 l 293 164 l 293 169 m 279 178 q 263 168 271 168 q 242 183 256 168 l 251 163 l 269 163 q 279 178 279 163 m 282 110 l 275 106 l 275 101 l 283 106 l 282 110 m 258 131 l 254 129 l 263 111 l 267 113 l 258 131 m 272 103 l 267 100 l 267 94 l 275 99 l 272 103 m 239 138 l 233 133 l 233 129 l 242 133 l 239 138 m 233 103 l 224 96 l 226 92 l 236 99 l 233 103 m 94 203 l 89 203 l 89 193 l 94 193 l 94 203 m 201 89 q 172 74 181 78 q 193 83 189 83 q 197 79 197 83 q 199 84 197 81 q 201 89 201 88 m 78 201 q 75 204 76 201 q 75 211 74 208 l 72 206 q 69 201 71 203 l 78 201 m 61 203 l 56 203 l 56 188 l 61 188 l 61 203 m 74 186 q 64 185 67 182 q 72 175 71 178 q 74 186 74 182 m 188 53 l 182 42 l 185 39 l 192 50 l 188 53 m 61 183 l 56 183 l 56 165 l 61 165 l 61 183 m 178 38 l 171 29 l 174 26 l 181 33 l 178 38 m 149 61 l 146 60 l 149 53 l 153 53 l 149 61 m 96 113 l 92 110 l 96 103 l 100 103 l 96 113 m 121 78 q 100 97 114 83 q 111 78 111 86 l 121 78 m 158 31 l 158 26 l 167 22 l 168 28 l 158 31 m 135 56 l 132 53 l 139 44 l 142 49 l 135 56 m 128 71 q 113 74 119 74 l 124 61 q 125 71 124 68 q 128 71 128 74 m 156 21 l 146 11 l 149 7 l 158 18 l 156 21 m 68 108 l 64 101 l 68 99 l 72 107 l 68 108 m 140 6 q 125 21 128 1 q 126 6 128 15 l 140 6 m 1474 190 q 1463 174 1474 186 q 1450 157 1451 163 q 1444 113 1447 125 q 1425 74 1439 89 q 1394 38 1396 42 q 1378 -10 1378 11 q 1357 -19 1371 -19 q 1294 22 1349 -19 q 1203 89 1231 72 q 1163 97 1189 89 q 1155 119 1157 101 q 1151 138 1153 136 q 932 314 1083 190 q 875 382 899 342 q 832 461 861 408 q 828 476 832 465 q 799 496 819 483 q 788 514 790 513 q 785 511 785 514 l 785 511 q 781 510 785 510 q 773 521 779 510 q 760 533 767 532 l 754 539 q 758 553 753 546 q 750 554 757 554 q 744 553 746 554 q 714 517 724 517 q 711 518 711 517 l 711 518 q 707 519 711 519 l 697 501 q 663 467 674 492 q 639 426 654 453 q 539 300 614 368 q 410 197 519 282 q 344 143 388 183 q 338 110 343 133 q 313 97 332 99 q 293 94 293 94 q 207 29 274 83 q 138 -14 154 -14 q 117 -3 125 -14 q 64 88 118 29 q 51 122 54 99 q 47 154 50 138 q 33 177 46 163 q 21 196 21 192 q 33 229 21 200 q 47 267 46 258 q 58 346 58 313 q 119 501 60 407 q 215 650 142 536 q 247 726 222 676 q 319 824 300 800 q 414 894 372 886 q 406 897 413 897 q 396 922 407 914 q 382 929 389 925 q 368 953 378 953 q 363 951 365 953 q 358 950 360 950 l 353 957 q 364 972 353 953 q 344 997 344 969 l 331 1007 q 315 1057 325 1021 q 303 1067 314 1060 q 304 1092 304 1074 q 296 1101 296 1106 q 303 1127 296 1108 q 308 1158 310 1146 q 332 1179 317 1161 q 351 1188 340 1181 q 361 1194 361 1194 q 366 1191 364 1194 q 372 1188 368 1188 q 381 1200 381 1188 q 388 1195 383 1200 q 397 1190 393 1190 q 402 1194 400 1190 q 408 1197 404 1197 q 415 1191 411 1197 q 424 1185 419 1185 q 426 1186 426 1185 q 431 1188 426 1188 q 442 1176 433 1188 q 456 1165 451 1165 q 461 1167 458 1165 q 468 1169 464 1169 q 477 1158 471 1169 q 486 1147 483 1147 l 499 1150 q 501 1135 501 1146 q 524 1113 515 1138 q 533 1119 529 1119 q 540 1111 535 1119 q 554 1101 546 1103 q 558 1092 557 1100 q 563 1085 558 1085 q 565 1086 565 1085 q 568 1088 564 1088 q 581 1079 578 1088 q 597 1061 582 1064 q 618 1041 599 1057 q 635 1017 638 1025 q 647 999 640 1014 q 678 979 657 992 q 686 963 679 974 q 707 947 688 960 q 719 924 719 938 q 733 913 725 922 q 744 903 742 903 q 759 915 747 903 q 775 931 771 928 q 797 958 779 942 q 818 986 814 975 q 843 1000 826 992 q 849 1013 846 1001 q 854 1025 851 1025 q 859 1023 858 1025 q 863 1021 860 1021 l 863 1036 q 910 1069 878 1049 q 916 1083 914 1072 q 928 1093 918 1093 q 930 1092 931 1093 q 933 1090 929 1090 q 940 1108 940 1090 q 953 1117 946 1110 q 963 1125 960 1125 q 971 1119 967 1124 q 981 1139 974 1126 q 996 1156 986 1142 q 1001 1157 994 1157 q 1005 1155 1004 1157 q 1010 1153 1006 1153 q 1017 1164 1011 1153 q 1028 1175 1022 1175 q 1034 1174 1031 1175 q 1040 1172 1038 1172 q 1052 1183 1043 1172 q 1065 1194 1061 1194 q 1069 1192 1068 1194 q 1074 1190 1069 1190 q 1081 1197 1076 1190 q 1088 1204 1085 1204 q 1092 1201 1090 1204 q 1099 1197 1094 1197 q 1104 1202 1101 1197 q 1111 1207 1107 1207 q 1117 1201 1114 1207 q 1124 1194 1119 1194 q 1128 1197 1126 1194 q 1135 1200 1131 1200 q 1144 1189 1139 1199 q 1186 1164 1156 1186 l 1199 1108 q 1194 1101 1199 1104 q 1190 1094 1190 1099 q 1192 1074 1192 1086 q 1179 1064 1186 1072 q 1167 1032 1179 1057 q 1164 1017 1169 1024 q 1150 1010 1158 1010 l 1150 992 q 1132 975 1149 978 q 1140 960 1140 960 q 1113 935 1126 957 q 1089 911 1097 929 q 1068 892 1081 893 q 1196 790 1124 886 q 1281 644 1254 713 q 1392 468 1318 586 q 1431 363 1424 414 q 1447 262 1444 271 q 1461 224 1449 253 q 1474 190 1474 194 m 1165 1150 l 1164 1154 l 1157 1150 l 1157 1146 l 1165 1150 m 1174 1144 l 1171 1147 l 1161 1138 l 1164 1133 l 1174 1144 m 1179 1133 l 1179 1139 l 1165 1136 l 1165 1131 l 1179 1133 m 1138 1171 q 1126 1175 1133 1175 q 1131 1165 1126 1172 q 1138 1171 1133 1169 m 1183 1107 l 1176 1125 l 1172 1124 l 1179 1107 l 1183 1107 m 1113 1183 q 1107 1175 1107 1183 q 1101 1178 1104 1175 q 1096 1181 1097 1181 l 1096 1169 l 1106 1169 q 1113 1183 1107 1175 m 1174 1104 l 1171 1107 l 1164 1100 l 1167 1096 l 1174 1104 m 1174 1083 l 1174 1089 l 1165 1089 l 1165 1083 l 1174 1083 m 1174 1078 l 1160 1078 q 1171 1065 1160 1065 q 1174 1078 1171 1074 m 1069 1160 l 1069 1172 q 1065 1174 1068 1172 q 1060 1175 1061 1175 q 1069 1160 1060 1165 m 1165 1056 l 1165 1061 l 1149 1057 l 1149 1051 l 1165 1056 m 1058 1154 q 1057 1159 1058 1156 q 1056 1164 1056 1163 q 1051 1158 1056 1161 q 1058 1154 1054 1154 m 1154 1029 l 1154 1035 l 1138 1035 l 1138 1029 l 1154 1029 m 1150 1024 q 1135 1028 1139 1024 q 1142 1018 1135 1018 q 1147 1021 1146 1018 q 1150 1024 1149 1024 m 1043 1147 q 1026 1160 1032 1160 q 1022 1147 1026 1156 q 1018 1135 1018 1138 l 1028 1135 q 1043 1147 1040 1149 m 1138 1001 l 1128 1013 l 1125 1010 l 1135 999 l 1138 1001 m 1018 1129 q 1001 1136 1011 1136 q 1011 1122 1004 1131 l 1018 1129 m 1114 999 l 1110 1000 l 1106 992 l 1110 990 l 1114 999 m 1118 969 q 1106 975 1117 972 q 1110 963 1110 965 l 1118 969 m 1106 985 l 1101 988 l 1094 976 l 1099 974 l 1106 985 m 989 1107 q 988 1114 989 1110 q 986 1121 986 1118 q 974 1110 974 1121 q 975 1103 974 1106 q 976 1100 976 1100 q 989 1107 982 1107 m 1108 957 q 1100 968 1108 958 l 1093 960 q 1108 957 1097 957 m 1094 969 l 1090 972 l 1083 961 l 1088 958 l 1094 969 m 971 1093 l 965 1104 l 961 1101 l 968 1090 l 971 1093 m 1094 942 q 1086 950 1092 943 l 1082 938 q 1089 939 1085 936 q 1094 942 1093 942 m 1083 954 l 1079 957 l 1069 942 l 1074 939 l 1083 954 m 960 1086 q 946 1093 953 1093 q 943 1088 946 1092 q 940 1079 940 1085 q 947 1068 940 1076 q 960 1086 951 1074 m 1082 933 l 1078 933 l 1075 922 l 1079 921 l 1082 933 m 943 1063 l 938 1078 l 933 1076 l 939 1063 l 943 1063 m 1075 915 l 1068 915 q 1063 914 1064 914 q 1071 906 1063 906 q 1076 910 1075 906 q 1075 915 1078 915 m 1065 932 l 1063 935 l 1044 911 l 1049 908 l 1065 932 m 933 1060 q 926 1072 933 1064 q 924 1050 921 1057 q 933 1060 926 1051 m 1060 901 q 1040 892 1050 897 q 1050 883 1044 890 q 1060 901 1050 892 m 917 1042 q 907 1053 917 1053 q 910 1035 907 1038 l 917 1042 m 1339 524 q 1333 533 1338 528 q 1332 529 1338 529 q 1328 531 1328 529 q 1326 532 1328 532 q 1331 540 1326 536 q 1326 547 1329 543 q 1318 543 1324 547 l 1324 533 q 1331 522 1328 522 q 1339 524 1340 522 m 1033 865 l 1031 881 q 1021 865 1021 869 l 1033 865 m 1040 900 l 1038 903 l 1000 857 l 1003 854 l 1040 900 m 890 1015 l 888 1025 l 883 1024 l 886 1015 l 890 1015 m 1143 735 l 1143 740 l 1129 743 l 1129 739 l 1143 735 m 1365 483 l 1365 489 l 1353 493 l 1353 488 l 1365 483 m 1032 856 l 1017 865 l 1015 861 l 1031 851 l 1032 856 m 1214 644 l 1201 661 l 1197 658 l 1210 642 l 1214 644 m 1403 422 l 1399 432 l 1396 431 l 1399 422 l 1403 422 m 886 1011 q 881 1021 881 1017 q 869 1013 869 1021 q 872 1006 869 1007 q 874 1003 874 1004 q 886 1011 881 1003 m 1151 704 l 1151 708 l 1140 708 l 1140 704 l 1151 704 m 1374 454 l 1364 458 l 1364 453 l 1372 450 l 1374 454 m 1131 711 l 1126 721 l 1122 719 l 1126 711 l 1131 711 m 1015 846 l 1006 853 l 1003 849 l 1013 842 l 1015 846 m 1178 658 q 1169 674 1178 663 l 1169 661 q 1164 669 1164 667 q 1167 651 1164 663 q 1178 658 1175 661 m 1160 672 l 1153 681 l 1150 676 l 1157 669 l 1160 672 m 1276 613 q 1132 850 1276 701 q 1103 869 1126 856 q 1075 883 1081 883 l 1063 883 q 1043 861 1063 876 q 1035 844 1044 851 q 1021 832 1022 833 l 1021 824 q 1060 831 1051 831 q 1167 743 1103 831 q 1226 613 1226 658 q 1225 594 1226 597 q 1208 549 1222 586 q 1193 510 1193 511 q 1206 492 1193 504 q 1225 479 1219 479 q 1253 538 1231 479 q 1276 613 1276 597 m 871 996 l 858 1010 l 856 1007 l 868 993 l 871 996 m 1207 613 l 1207 618 l 1196 618 l 1196 613 l 1207 613 m 1150 668 l 1115 721 l 1111 718 l 1146 665 l 1150 668 m 1161 642 q 1158 667 1157 654 l 1151 660 q 1161 642 1151 653 m 1189 613 l 1185 619 l 1181 619 l 1185 610 l 1189 613 m 1001 832 q 993 836 997 836 q 988 832 990 836 q 994 821 988 829 q 1001 832 994 825 m 1346 467 q 1278 592 1346 478 q 1276 590 1278 590 q 1274 583 1274 589 q 1296 546 1274 581 q 1335 472 1335 485 l 1335 463 q 1268 413 1279 413 q 1248 435 1260 413 q 1229 463 1236 457 l 1229 451 q 1274 394 1261 394 q 1315 424 1285 394 q 1346 467 1346 453 m 1417 376 l 1413 379 l 1393 339 l 1396 338 l 1417 376 m 858 990 q 842 976 846 982 q 850 971 844 972 l 858 990 m 985 808 l 971 815 l 969 811 l 983 804 l 985 808 m 1415 318 l 1415 324 l 1403 319 l 1403 314 l 1415 318 m 1388 357 q 1375 342 1381 342 q 1382 338 1378 342 q 1388 357 1388 350 m 1129 772 q 1060 824 1074 824 q 1011 808 1042 824 q 973 779 981 792 q 943 733 965 767 q 929 731 938 733 q 910 713 925 718 q 932 676 918 701 q 1122 758 1040 719 q 1129 772 1129 764 m 839 963 l 824 971 l 826 950 q 839 963 829 963 m 975 800 l 969 808 q 963 804 967 808 q 975 800 965 800 m 1393 336 q 1386 342 1386 336 q 1379 332 1385 339 q 1386 335 1382 332 l 1378 315 q 1393 336 1383 324 m 1074 696 q 1067 711 1067 703 q 1040 681 1063 706 q 1067 699 1063 699 q 1074 696 1072 699 m 968 796 l 960 800 l 958 796 l 967 792 l 968 796 m 1107 646 q 1082 682 1097 660 q 1057 656 1082 675 l 1064 649 q 1063 653 1064 650 q 1061 658 1061 656 l 1067 656 q 1085 671 1076 667 q 1096 656 1089 665 q 1076 639 1083 647 q 1096 649 1092 649 q 1102 647 1099 649 q 1107 646 1106 646 m 1133 607 q 1125 604 1128 604 q 1118 607 1121 604 q 1122 613 1118 617 q 1117 624 1117 618 l 1110 615 q 1122 599 1117 599 q 1133 607 1133 599 m 825 943 q 819 956 819 951 q 814 950 815 956 q 815 943 813 946 l 825 943 m 1079 660 l 1076 661 l 1072 653 l 1076 651 l 1079 660 m 1433 256 l 1422 260 l 1422 256 l 1431 251 l 1433 256 m 1342 350 l 1338 360 l 1333 358 l 1338 350 l 1342 350 m 1167 568 q 1151 557 1167 557 q 1146 558 1147 557 q 1143 560 1144 560 l 1151 554 q 1164 551 1161 554 q 1165 560 1164 554 q 1167 568 1167 565 m 1176 542 l 1174 546 l 1164 535 l 1167 532 l 1176 542 m 817 935 q 804 953 807 946 l 804 940 q 817 935 808 935 m 957 803 l 954 806 l 919 771 l 922 767 l 957 803 m 1414 254 l 1411 257 l 1401 246 l 1404 243 l 1414 254 m 1357 306 l 1356 310 l 1350 307 l 1350 301 l 1357 306 m 1150 533 q 1142 546 1142 543 q 1143 540 1142 543 q 1138 532 1138 535 l 1144 539 l 1150 533 m 1229 471 q 1186 500 1217 472 q 1174 472 1174 476 q 1188 453 1174 465 q 1208 442 1201 442 q 1222 451 1219 442 q 1229 471 1228 469 m 1154 522 l 1154 526 l 1143 526 l 1143 522 l 1154 522 m 1406 219 q 1401 236 1406 224 q 1396 256 1396 249 q 1394 235 1393 253 q 1401 236 1400 238 q 1397 224 1400 231 q 1400 227 1399 225 q 1403 231 1401 229 q 1406 219 1406 225 m 799 917 l 789 932 l 786 928 l 794 914 l 799 917 m 940 761 l 931 768 l 928 764 l 938 757 l 940 761 m 1117 565 l 1113 567 l 1106 553 l 1110 550 l 1117 565 m 1176 513 q 1149 506 1154 506 q 1164 485 1156 497 q 1176 513 1165 488 m 1106 563 l 1106 568 l 1093 564 l 1093 558 l 1106 563 m 1128 540 l 1124 542 l 1119 533 l 1124 532 l 1128 540 m 1007 658 l 1004 667 l 1000 665 l 1003 658 l 1007 658 m 788 904 l 781 915 l 778 913 l 783 901 l 788 904 m 1021 636 l 1018 646 l 1014 643 l 1017 636 l 1021 636 m 1032 618 l 1024 636 l 1019 633 l 1028 617 l 1032 618 m 782 897 l 778 906 l 775 904 l 778 897 l 782 897 m 1179 449 q 1135 489 1163 463 q 1141 488 1138 489 q 1146 486 1144 486 q 1143 490 1143 489 q 1146 492 1143 492 q 1165 468 1157 472 q 1113 517 1150 496 q 1119 497 1115 510 q 1117 503 1117 501 q 1122 507 1117 507 q 1140 496 1128 503 q 1126 492 1132 492 q 1121 493 1124 492 q 1179 449 1142 476 m 1049 590 l 1040 608 l 1036 606 l 1044 589 l 1049 590 m 1090 564 q 1081 569 1088 561 q 1068 554 1074 554 q 1063 556 1064 554 q 1060 557 1061 557 q 1063 547 1060 554 q 1078 551 1071 553 q 1090 564 1079 564 m 1086 543 l 1086 549 l 1079 549 l 1079 543 l 1086 543 m 1232 382 l 1222 394 q 1218 388 1222 388 q 1214 393 1214 388 l 1214 383 q 1222 388 1214 388 q 1232 382 1226 388 m 1099 542 l 1096 546 l 1078 532 l 1081 528 l 1099 542 m 982 656 l 979 664 l 975 663 l 978 656 l 982 656 m 988 646 l 985 654 l 981 653 l 983 646 l 988 646 m 914 731 q 904 742 914 742 q 896 726 896 732 q 907 729 900 726 l 914 731 m 1249 356 l 1249 361 l 1221 364 l 1221 358 l 1249 356 m 772 892 q 765 890 769 892 q 758 889 761 889 l 769 883 l 772 892 m 1018 597 l 996 636 l 992 633 l 1015 594 l 1018 597 m 907 749 l 904 753 l 881 729 l 883 725 l 907 749 m 1190 400 l 1189 404 l 1182 401 l 1182 396 l 1190 400 m 1101 517 l 1100 521 l 1074 504 l 1074 500 l 1101 517 m 1228 335 l 1224 344 l 1219 342 l 1224 335 l 1228 335 m 1132 444 l 1131 449 l 1124 444 l 1124 440 l 1132 444 m 1163 1115 q 1111 1163 1163 1163 q 743 839 1028 1163 q 461 496 582 654 q 557 432 550 432 q 728 585 568 432 q 897 750 847 699 q 1092 978 1007 863 q 1163 1115 1163 1075 m 692 931 l 692 946 q 678 928 688 939 q 685 929 681 928 q 692 931 689 931 m 1211 339 q 1199 343 1201 340 q 1207 365 1200 350 q 1196 349 1196 358 q 1200 339 1196 342 l 1211 339 m 640 1000 l 636 1003 l 625 990 l 626 986 l 640 1000 m 708 924 q 701 919 707 922 q 694 914 696 915 q 701 908 697 910 q 708 924 708 915 m 718 907 l 714 910 l 707 899 l 711 896 l 718 907 m 683 949 q 669 938 679 949 l 679 938 q 683 949 683 940 m 1390 146 q 1385 218 1390 179 q 1363 274 1376 274 q 1382 147 1382 181 q 1340 81 1382 81 l 1332 81 q 1326 82 1328 82 q 1343 74 1340 74 q 1390 146 1390 74 m 724 897 l 721 900 l 714 892 l 717 889 l 724 897 m 753 871 q 743 869 750 872 l 736 867 q 746 858 740 864 q 753 871 753 865 m 1097 490 q 1068 471 1079 479 q 1072 479 1072 474 q 1071 486 1072 482 l 1081 486 q 1088 493 1083 483 l 1090 493 q 1086 496 1089 496 q 1097 490 1085 496 m 672 965 l 663 965 l 656 957 q 668 943 664 956 l 672 965 m 625 1008 q 619 1012 624 1008 q 614 1015 615 1015 q 608 1004 614 1011 l 615 997 q 625 1008 625 997 m 613 1017 l 608 1018 l 604 1011 l 608 1008 l 613 1017 m 603 1021 l 601 1026 l 594 1022 l 594 1018 l 603 1021 m 575 1051 q 564 1065 568 1065 l 564 1044 q 575 1051 568 1044 m 589 1046 q 578 1035 578 1046 l 585 1028 q 589 1046 589 1036 m 921 663 l 917 664 l 914 656 l 918 654 l 921 663 m 1025 550 q 1010 543 1019 549 q 1017 542 1013 543 l 1022 542 q 1025 550 1022 546 m 563 1071 l 558 1072 l 551 1057 l 556 1056 l 563 1071 m 1154 396 q 1146 399 1151 399 q 1150 389 1150 392 q 1154 396 1150 392 m 556 1074 q 546 1088 549 1088 q 536 1075 536 1078 q 547 1063 549 1068 q 556 1074 553 1068 m 1032 533 l 1029 536 l 1025 528 l 1029 525 l 1032 533 m 535 1094 l 531 1097 l 524 1086 l 528 1083 l 535 1094 m 522 1106 q 508 1115 513 1115 q 507 1108 508 1113 q 506 1100 506 1103 q 518 1094 513 1100 q 520 1100 518 1096 q 522 1106 522 1104 m 736 860 q 725 864 732 864 q 727 858 725 863 q 729 853 729 854 l 736 860 m 871 711 l 868 715 l 856 704 l 858 700 l 871 711 m 503 1117 l 494 1125 q 493 1110 494 1106 q 503 1117 497 1111 m 1204 322 l 1197 326 l 1196 322 l 1203 318 l 1204 322 m 1156 376 l 1151 379 l 1147 371 l 1151 368 l 1156 376 m 494 1131 q 478 1124 488 1129 l 485 1115 q 490 1123 486 1117 q 494 1131 493 1129 m 478 1129 q 465 1153 472 1144 q 453 1142 460 1149 q 467 1129 460 1138 l 478 1129 m 1371 143 q 1353 260 1371 179 l 1257 147 q 1300 114 1261 144 q 1339 93 1326 93 q 1363 113 1353 93 q 1371 143 1371 128 m 442 1160 l 438 1160 l 436 1147 l 440 1147 l 442 1160 m 1197 294 l 1193 308 l 1189 308 l 1192 294 l 1197 294 m 1183 321 l 1179 322 l 1175 314 l 1179 313 l 1183 321 m 436 1168 q 431 1167 435 1168 q 425 1165 426 1165 l 425 1153 q 436 1168 431 1160 m 861 688 q 844 678 854 689 q 850 676 846 678 q 856 674 854 674 q 861 688 856 681 m 1153 335 l 1153 347 l 1146 339 q 1153 335 1149 339 m 1204 281 l 1203 285 l 1196 282 l 1196 276 l 1204 281 m 718 826 l 713 836 q 709 831 713 835 q 706 824 706 826 l 718 826 m 1196 286 l 1183 300 l 1181 297 l 1193 283 l 1196 286 m 418 1157 l 418 1172 l 411 1172 l 411 1160 q 418 1157 414 1160 m 846 686 l 843 690 l 831 679 l 833 675 l 846 686 m 849 674 l 840 678 l 839 674 l 846 669 l 849 674 m 399 1163 l 399 1175 l 397 1172 q 392 1169 396 1169 q 388 1181 388 1169 q 386 1171 388 1176 l 386 1163 l 399 1163 m 1061 415 l 1061 421 l 1043 421 l 1043 415 l 1061 415 m 706 808 q 701 818 706 815 q 686 810 696 815 q 697 807 693 807 q 706 808 701 807 m 824 664 l 821 668 l 815 664 l 815 660 l 824 664 m 828 653 l 828 658 l 818 658 l 818 653 l 828 653 m 1054 404 l 1051 407 l 1042 397 l 1044 393 l 1054 404 m 1213 254 q 1171 304 1197 272 q 1175 306 1174 307 q 1176 303 1178 303 q 1163 325 1172 310 q 1165 319 1165 322 q 1164 313 1165 317 q 1144 328 1150 328 q 1140 325 1140 328 l 1140 325 q 1138 322 1140 322 q 1133 326 1133 322 l 1132 329 q 1136 338 1136 333 q 1133 343 1136 340 q 1118 346 1124 342 q 1129 333 1122 343 l 1122 333 q 1132 326 1126 333 q 1122 319 1122 317 q 1119 315 1122 315 q 1113 317 1117 315 q 1107 318 1108 318 q 1100 293 1107 308 q 1100 299 1099 294 q 1097 304 1101 300 q 1092 313 1092 308 l 1085 304 q 1099 289 1094 300 q 1089 281 1092 281 q 1088 288 1086 285 q 1089 276 1086 285 q 1086 268 1090 268 q 1085 274 1085 269 l 1085 268 q 1086 278 1086 265 q 1094 272 1094 275 q 1100 288 1094 282 q 1107 269 1107 272 l 1106 263 l 1106 253 l 1118 281 q 1110 289 1115 282 q 1140 261 1114 290 q 1121 275 1135 265 q 1117 261 1121 267 q 1125 265 1121 265 q 1132 259 1128 265 q 1139 253 1136 253 q 1139 257 1142 253 q 1142 260 1138 260 q 1160 240 1144 260 q 1181 221 1176 221 q 1213 254 1193 221 m 1106 346 q 1085 335 1089 336 q 1068 351 1068 335 q 1072 369 1068 357 q 1071 365 1072 368 l 1071 358 q 1090 340 1071 340 q 1106 346 1097 340 m 1035 493 q 879 682 943 607 q 856 653 879 669 q 821 640 833 638 q 796 608 821 624 q 769 575 790 594 q 939 425 935 425 q 1035 493 949 425 m 1063 365 l 1061 369 l 1054 367 l 1054 361 l 1063 365 m 717 872 q 563 1036 665 928 q 385 1157 444 1157 q 333 1110 333 1157 q 392 992 333 1081 q 461 897 444 911 q 528 864 486 888 q 640 771 568 833 q 657 790 642 779 q 657 800 658 796 q 674 811 660 804 q 672 825 674 817 q 701 857 701 846 q 717 872 706 860 m 813 635 l 806 643 l 803 639 l 810 632 l 813 635 m 681 781 q 671 788 675 788 q 672 778 672 786 q 681 781 676 778 m 1054 354 l 1051 363 l 1047 361 l 1050 354 l 1054 354 m 804 646 l 801 650 l 789 639 l 792 635 l 804 646 m 674 772 l 667 781 l 664 778 l 669 769 l 674 772 m 803 622 l 803 626 l 790 631 l 790 625 l 803 622 m 1011 385 l 1006 378 q 1001 394 1006 385 q 999 389 1001 393 q 996 381 996 385 q 999 372 996 375 l 1001 369 q 1011 385 1011 390 m 1160 211 q 1158 213 1158 211 q 1153 215 1157 215 q 1142 225 1149 215 q 1133 235 1135 235 q 1135 238 1135 236 q 1121 249 1135 247 q 1115 244 1121 246 q 1160 211 1132 231 m 333 1131 l 324 1142 l 321 1139 l 331 1128 l 333 1131 m 990 376 l 988 385 l 983 383 l 986 376 l 990 376 m 331 1125 l 317 1132 l 315 1128 l 329 1121 l 331 1125 m 968 410 l 964 410 l 961 399 l 965 397 l 968 410 m 1079 282 l 1063 289 l 1063 283 l 1078 276 l 1079 282 m 654 751 l 643 760 l 642 754 l 651 747 l 654 751 m 993 371 q 986 378 986 371 q 979 375 983 378 l 975 371 q 981 367 976 371 q 983 372 981 372 q 993 371 993 372 m 331 1114 l 326 1115 l 324 1108 l 328 1106 l 331 1114 m 331 1092 l 328 1100 l 324 1099 l 326 1092 l 331 1092 m 329 1076 l 329 1082 l 322 1082 l 322 1076 l 329 1076 m 874 465 l 871 471 l 865 467 l 865 463 l 874 465 m 635 729 l 628 736 l 625 733 l 631 726 l 635 729 m 860 479 l 857 483 l 847 476 l 850 471 l 860 479 m 339 1068 l 325 1069 l 325 1060 q 339 1068 332 1060 m 840 496 l 838 499 l 831 490 l 833 488 l 840 496 m 758 581 l 758 586 l 746 586 l 746 581 l 758 581 m 346 1046 l 346 1051 l 331 1054 l 331 1049 l 346 1046 m 817 515 l 817 521 l 804 517 l 804 513 l 817 515 m 792 540 q 786 550 786 547 l 775 550 q 785 532 782 536 l 792 540 m 953 338 q 958 350 958 343 q 949 369 958 358 l 949 354 q 954 342 954 346 q 953 338 954 339 m 389 985 l 386 993 l 382 992 l 385 985 l 389 985 m 358 1026 q 346 1031 356 1029 q 342 1022 343 1031 q 358 1026 349 1022 m 400 971 l 394 982 l 390 979 l 397 968 l 400 971 m 411 954 l 406 965 l 401 963 l 408 951 l 411 954 m 360 1021 q 346 1017 351 1017 l 349 1015 q 354 1013 350 1013 q 360 1021 360 1013 m 428 932 l 417 950 l 413 947 l 425 929 l 428 932 m 450 904 l 433 928 l 429 925 l 447 901 l 450 904 m 386 978 l 385 982 l 378 978 l 378 974 l 386 978 m 403 953 l 396 963 q 388 951 386 951 q 396 953 390 951 l 403 953 m 390 963 q 388 975 390 968 l 378 963 l 385 956 q 390 963 385 963 m 410 928 q 413 935 413 931 q 410 943 413 939 q 401 935 403 935 q 406 931 403 935 q 410 928 408 928 m 419 915 l 419 926 l 415 926 l 415 915 l 419 915 m 597 721 q 592 732 592 728 l 581 732 q 597 721 588 721 m 578 740 l 568 751 q 561 740 561 744 l 578 740 m 433 908 l 417 908 q 425 899 417 899 l 433 908 m 719 553 q 703 546 713 557 l 710 539 q 719 553 719 560 m 575 653 l 575 658 l 558 663 l 558 657 l 575 653 m 692 525 q 678 524 679 525 q 689 517 685 517 q 692 525 690 519 m 578 703 q 565 725 578 707 q 550 729 560 725 q 514 778 544 749 l 468 822 q 436 831 446 831 q 396 808 421 831 q 367 771 371 786 q 563 683 483 714 q 578 703 564 688 m 521 669 l 517 671 l 513 663 l 517 660 l 521 669 m 667 497 l 654 506 l 653 500 l 665 493 l 667 497 m 494 672 l 492 674 l 488 665 l 492 664 l 494 672 m 539 617 l 522 624 l 522 619 l 538 613 l 539 617 m 490 661 l 486 664 l 479 654 l 483 650 l 490 661 m 453 692 l 443 700 q 432 717 432 707 q 422 703 428 711 l 424 704 l 429 704 q 453 692 432 704 m 504 640 l 500 643 l 476 603 l 481 600 l 504 640 m 636 760 q 439 890 522 890 q 297 787 376 890 q 218 618 218 683 q 269 485 256 485 q 289 497 276 485 q 301 517 301 510 q 268 618 268 611 q 326 744 268 660 q 436 836 389 836 q 544 783 478 836 q 599 729 610 729 q 619 742 611 729 q 636 760 626 756 m 519 593 q 503 600 507 600 q 515 585 504 599 q 519 593 518 589 m 365 742 l 365 747 l 353 747 l 353 742 l 365 742 m 464 622 l 461 624 l 457 615 l 461 614 l 464 622 m 422 658 l 419 667 l 415 665 l 418 658 l 422 658 m 439 667 q 413 689 419 667 q 389 653 403 669 l 393 653 q 400 654 396 654 q 418 646 406 654 q 400 663 408 658 q 411 676 403 668 q 431 654 421 671 q 439 667 435 658 m 431 653 l 428 654 l 424 647 l 428 644 l 431 653 m 478 600 l 475 601 l 471 593 l 475 592 l 478 600 m 500 565 q 493 578 499 567 q 483 575 492 579 q 489 561 489 568 q 500 565 496 561 m 425 643 l 421 646 l 418 638 l 422 635 l 425 643 m 603 439 q 593 450 601 442 q 581 435 581 436 q 592 437 585 435 q 603 439 599 439 m 360 708 q 357 696 357 711 q 353 703 354 700 q 360 708 357 704 m 486 551 l 469 558 l 469 554 l 485 547 l 486 551 m 333 690 l 340 699 q 343 694 340 697 q 346 690 346 692 l 333 690 m 472 532 l 463 539 l 460 535 l 469 528 l 472 532 m 397 613 q 389 596 396 613 q 399 589 393 594 q 397 596 397 593 q 403 610 397 603 l 397 613 m 379 629 q 375 611 378 624 q 361 614 369 611 q 374 604 365 604 q 386 621 375 604 l 379 629 m 467 524 q 444 532 458 532 q 457 517 450 525 q 467 524 457 524 m 542 408 q 540 415 535 415 q 543 406 543 411 q 540 394 543 400 q 517 414 535 401 q 519 415 518 415 q 524 413 521 415 l 528 418 q 522 426 528 426 q 538 407 536 415 q 542 408 539 406 m 378 599 l 375 601 l 356 582 l 358 578 l 378 599 m 417 539 l 401 551 l 399 549 l 414 535 l 417 539 m 493 435 l 493 447 l 497 447 l 497 435 l 493 435 m 381 563 q 365 571 374 565 q 372 565 367 569 q 368 557 368 561 q 371 551 368 554 l 381 563 m 294 667 l 290 667 l 282 647 l 286 644 l 294 667 m 422 511 l 396 526 l 393 522 l 421 506 l 422 511 m 375 539 l 372 549 l 368 546 l 371 539 l 375 539 m 339 582 l 326 593 l 324 589 l 336 578 l 339 582 m 347 564 q 340 563 343 563 q 335 565 336 563 q 332 569 335 567 q 332 575 331 572 q 331 557 331 569 q 347 564 339 564 m 286 621 l 283 633 l 279 631 l 282 621 l 286 621 m 357 543 q 351 546 353 543 q 354 550 353 547 l 349 543 l 357 543 m 347 549 l 344 557 l 340 556 l 343 549 l 347 549 m 414 467 l 404 474 l 401 469 l 411 463 l 414 467 m 433 421 l 433 426 l 451 426 l 451 421 l 433 421 m 351 528 l 351 533 l 342 533 l 342 528 l 351 528 m 497 350 l 493 358 l 497 360 l 500 350 l 497 350 m 292 569 q 290 574 290 571 q 292 576 290 575 q 290 572 290 574 q 296 561 290 567 q 290 574 294 565 q 294 572 293 572 q 297 574 297 572 l 292 569 m 331 528 q 303 542 322 533 l 303 526 q 331 528 307 528 m 472 342 q 475 350 475 347 l 483 342 l 472 342 m 418 444 q 410 454 417 449 l 401 454 q 400 450 397 454 q 400 447 403 447 q 394 444 396 447 q 390 442 393 442 q 383 446 388 442 q 388 454 383 450 q 367 424 381 443 l 375 432 q 378 417 379 425 q 390 435 382 432 q 406 447 390 447 q 413 443 408 447 q 411 450 406 450 l 418 444 m 442 372 l 435 376 l 433 372 l 440 368 l 442 372 m 460 315 q 440 350 443 336 q 428 332 428 338 q 440 344 431 336 q 444 342 442 340 q 447 331 447 335 q 444 325 447 326 l 443 329 q 438 332 442 332 q 435 329 433 332 q 435 325 438 325 q 428 328 428 325 q 410 300 431 322 q 425 310 414 304 q 418 300 419 303 l 424 293 q 442 297 428 297 q 433 311 429 311 q 429 310 432 310 q 428 311 428 310 l 435 318 q 440 308 442 310 q 443 319 440 313 q 456 318 454 319 q 456 314 457 315 q 449 308 453 311 q 472 328 457 314 l 460 315 m 328 425 q 317 404 328 417 q 321 400 325 404 q 335 417 322 413 l 328 425 m 367 365 l 365 369 l 358 367 l 358 361 l 367 365 m 347 376 l 344 385 l 340 383 l 343 376 l 347 376 m 338 371 l 338 375 l 328 379 l 326 375 l 338 371 m 265 458 l 265 469 q 248 442 263 464 q 226 419 233 419 q 188 444 215 419 q 160 479 160 468 q 167 499 160 486 q 221 590 221 593 q 217 599 221 597 q 149 472 149 490 q 156 451 149 458 q 221 400 206 400 q 246 426 226 400 q 265 458 265 451 m 328 363 l 319 367 l 318 363 l 325 358 l 328 363 m 164 539 l 160 542 l 153 531 l 157 528 l 164 539 m 328 329 l 328 340 l 324 340 l 324 329 l 328 329 m 275 399 l 272 401 l 263 390 l 265 388 l 275 399 m 238 390 l 235 393 l 253 414 l 256 411 l 238 390 m 375 301 q 315 238 325 247 q 290 261 306 238 l 347 325 q 375 301 367 310 m 143 494 l 143 499 l 135 494 l 136 490 l 143 494 m 208 396 q 201 401 207 397 q 203 393 203 400 q 204 399 203 397 q 208 396 207 397 m 343 250 q 331 235 342 247 q 338 240 333 236 q 343 238 339 238 l 343 250 m 188 408 l 188 414 l 172 411 l 172 406 l 188 408 m 132 460 l 131 464 l 122 461 l 122 456 l 132 460 m 292 279 q 281 281 292 281 q 278 272 281 274 q 272 281 271 281 q 282 268 278 268 q 285 269 283 268 q 283 274 283 272 q 285 278 283 276 q 292 279 289 275 m 138 429 l 131 433 l 129 428 l 136 424 l 138 429 m 100 436 l 96 438 l 92 431 l 96 428 l 100 436 m 176 340 l 169 344 l 168 340 l 175 336 l 176 340 m 240 278 q 238 297 240 290 q 228 285 233 292 l 224 289 q 229 300 229 294 q 225 299 228 300 q 219 297 222 297 q 215 300 217 297 q 210 303 214 303 q 193 294 206 301 q 197 293 196 294 q 197 290 200 290 q 192 281 199 290 q 179 292 189 285 q 185 282 186 286 q 193 278 185 278 q 197 283 197 278 q 200 288 197 288 q 207 282 203 286 l 206 256 q 217 269 210 261 q 210 265 213 265 q 204 269 208 265 q 214 285 206 274 q 217 281 215 283 q 214 275 215 278 q 219 278 217 278 q 222 276 221 278 q 219 283 219 281 q 221 288 219 286 q 232 268 228 283 q 232 290 231 279 q 239 288 238 290 q 240 278 239 281 m 121 329 q 108 350 117 336 q 101 343 108 343 q 118 326 110 326 l 108 339 l 121 329 m 238 154 q 142 265 210 188 q 124 149 124 186 q 133 117 124 135 q 156 99 143 99 q 238 154 167 99 m 79 256 q 71 253 76 256 l 71 238 q 79 256 74 244 m 68 238 q 65 256 64 246 q 61 233 60 251 q 64 240 61 240 q 68 238 65 240 m 1308 579 l 1303 579 l 1303 564 l 1308 564 l 1308 579 m 1379 467 l 1372 467 l 1372 463 l 1379 463 l 1379 467 m 1385 457 l 1382 456 l 1385 444 l 1389 444 l 1385 457 m 1213 625 l 1208 615 l 1213 614 l 1217 625 l 1213 625 m 1388 419 l 1385 417 l 1397 403 l 1400 406 l 1388 419 m 1190 626 l 1186 625 l 1190 617 l 1194 617 l 1190 626 m 1381 408 q 1372 414 1378 408 q 1374 411 1374 413 q 1368 408 1374 408 l 1381 408 m 1364 426 l 1358 422 l 1358 418 l 1365 422 l 1364 426 m 1425 335 q 1424 348 1425 339 q 1422 361 1422 357 q 1419 354 1422 360 q 1415 347 1415 349 q 1425 335 1426 342 m 1385 388 l 1382 386 l 1385 379 l 1389 379 l 1385 388 m 1332 464 q 1307 522 1329 485 q 1272 576 1290 549 q 1329 474 1319 489 q 1269 565 1288 528 q 1303 504 1275 551 q 1324 463 1324 468 l 1324 458 l 1322 458 q 1321 460 1322 460 q 1264 554 1283 522 q 1315 458 1315 456 l 1315 454 q 1314 453 1315 453 l 1314 454 l 1299 479 q 1261 543 1271 526 q 1310 453 1293 482 q 1306 450 1307 449 q 1258 532 1275 504 q 1301 449 1286 478 q 1251 522 1267 492 l 1296 443 q 1292 442 1293 440 l 1250 511 q 1288 439 1272 464 q 1243 504 1257 475 q 1282 433 1269 451 q 1278 432 1279 431 q 1242 493 1253 474 q 1274 429 1261 451 q 1235 483 1246 460 q 1268 424 1261 436 q 1267 417 1264 419 q 1332 464 1322 454 m 1193 607 q 1185 604 1190 607 l 1185 594 q 1192 589 1185 588 q 1193 607 1192 606 m 1357 407 l 1354 406 l 1357 397 l 1361 397 l 1357 407 m 1429 331 q 1425 315 1425 321 q 1418 319 1421 321 q 1426 310 1418 317 q 1429 331 1429 315 m 1199 568 q 1200 554 1200 568 q 1203 571 1206 568 q 1206 567 1204 569 q 1203 564 1204 565 l 1199 568 m 1424 310 l 1421 308 l 1424 300 l 1428 300 l 1424 310 m 1168 589 l 1161 582 l 1164 578 l 1171 586 l 1168 589 m 1414 313 l 1408 313 l 1413 297 l 1417 297 l 1414 313 m 1183 571 l 1172 564 l 1175 560 l 1185 567 l 1183 571 m 1324 404 q 1317 403 1321 403 q 1315 406 1314 403 q 1311 410 1315 410 q 1304 404 1306 410 q 1326 406 1325 404 l 1324 404 m 1338 385 l 1331 375 l 1335 371 l 1342 382 l 1338 385 m 1321 385 q 1319 396 1321 394 q 1313 393 1322 393 l 1321 385 m 1193 535 q 1168 521 1175 528 q 1179 519 1171 521 l 1190 519 q 1193 535 1193 521 m 1313 385 l 1306 375 l 1310 371 l 1317 382 l 1313 385 m 1364 307 l 1364 297 q 1376 315 1376 311 l 1364 307 m 1368 310 q 1364 318 1368 313 l 1357 310 l 1368 310 m 960 776 q 946 786 953 786 l 940 778 l 946 771 q 960 776 949 771 m 1068 649 l 1064 647 l 1067 639 l 1071 639 l 1068 649 m 1294 396 q 1286 389 1289 390 q 1290 392 1288 392 q 1292 386 1292 392 q 1294 396 1292 393 m 1435 228 q 1431 250 1436 244 q 1428 243 1428 246 q 1432 240 1431 242 q 1425 231 1431 235 l 1418 239 q 1422 250 1424 244 q 1415 239 1418 250 q 1435 228 1426 231 m 1322 354 l 1321 350 l 1331 343 l 1333 347 l 1322 354 m 1325 365 q 1317 372 1322 365 q 1314 365 1317 365 q 1311 367 1313 365 l 1318 367 q 1308 358 1318 358 q 1314 340 1315 346 q 1325 365 1313 351 m 1463 190 q 1444 233 1461 193 q 1447 168 1447 213 q 1463 190 1463 186 m 1104 596 q 1101 607 1104 610 q 1093 603 1099 607 q 1099 599 1094 603 q 1104 596 1103 596 m 1347 326 q 1339 325 1342 326 l 1332 333 l 1335 328 q 1340 322 1336 322 q 1346 325 1344 322 l 1347 326 m 1140 574 q 1130 582 1133 572 q 1110 594 1126 592 l 1115 594 q 1126 579 1126 596 q 1122 575 1126 575 q 1115 574 1117 575 q 1125 576 1121 576 q 1132 574 1129 576 q 1115 556 1129 563 q 1124 544 1124 556 l 1135 557 q 1129 556 1132 556 q 1124 558 1126 556 q 1132 565 1129 564 q 1131 569 1126 565 q 1140 574 1136 575 m 1436 201 q 1435 221 1438 215 l 1428 213 q 1435 214 1432 217 l 1431 208 q 1431 210 1428 208 l 1436 210 l 1436 201 m 1113 585 q 1106 590 1110 586 q 1107 586 1107 589 q 1104 585 1107 585 q 1094 590 1099 585 q 1092 582 1096 588 q 1092 586 1090 583 q 1089 589 1093 589 q 1082 583 1082 589 q 1090 581 1088 583 q 1086 571 1086 575 q 1099 575 1093 575 q 1093 574 1096 574 q 1090 575 1092 574 q 1100 585 1096 583 q 1111 571 1107 576 q 1111 579 1110 575 q 1113 585 1114 583 m 1235 429 l 1231 426 l 1235 419 l 1239 419 l 1235 429 m 1179 510 l 1165 478 l 1169 475 l 1183 510 l 1179 510 m 1304 343 q 1290 351 1299 343 q 1300 358 1297 356 q 1296 357 1299 357 q 1289 363 1292 360 q 1279 339 1282 347 q 1289 347 1282 339 q 1299 340 1294 340 q 1304 343 1303 340 m 1261 388 l 1258 383 l 1240 400 l 1242 404 l 1261 388 m 1242 411 l 1238 403 l 1233 406 l 1238 413 l 1242 411 m 933 746 q 925 761 933 750 q 915 749 917 751 l 933 746 m 1222 418 l 1218 415 l 1208 426 l 1211 429 l 1222 418 m 1311 318 q 1304 314 1307 314 q 1318 310 1314 314 l 1311 318 m 1299 332 l 1294 329 l 1299 322 l 1303 322 l 1299 332 m 1010 658 l 1006 656 l 1013 644 l 1015 647 l 1010 658 m 1347 279 l 1339 275 l 1339 271 l 1349 275 l 1347 279 m 1035 617 l 1031 615 l 1033 608 l 1038 608 l 1035 617 m 1249 367 l 1242 375 q 1236 376 1238 374 q 1249 367 1239 378 m 1319 285 l 1318 281 l 1325 276 l 1326 281 l 1319 285 m 1200 417 l 1199 413 l 1208 406 l 1210 410 l 1200 417 m 1299 307 l 1290 307 l 1290 301 l 1299 301 l 1299 307 m 1260 363 q 1256 356 1258 363 q 1253 347 1254 349 q 1246 353 1249 351 q 1251 343 1250 347 q 1240 333 1243 338 q 1260 351 1256 346 l 1260 363 m 990 646 l 986 643 l 989 636 l 993 636 l 990 646 m 1288 310 l 1279 310 l 1279 306 l 1288 306 l 1288 310 m 1224 376 l 1221 372 l 1226 365 l 1231 368 l 1224 376 m 1279 314 l 1271 314 l 1271 308 l 1279 308 l 1279 314 m 1260 319 l 1260 315 l 1269 311 l 1271 315 l 1260 319 m 1021 594 l 1017 593 l 1019 586 l 1024 586 l 1021 594 m 1026 586 l 1022 583 l 1025 576 l 1029 576 l 1026 586 m 1293 282 q 1286 283 1290 282 q 1279 285 1282 285 q 1282 293 1282 290 q 1293 282 1285 292 m 1207 383 q 1199 390 1201 389 q 1194 375 1199 376 q 1207 383 1197 372 m 1229 347 l 1226 344 l 1232 336 l 1236 340 l 1229 347 m 1179 399 q 1164 415 1169 408 q 1164 413 1163 415 q 1163 408 1164 410 q 1174 396 1172 400 q 1179 399 1178 399 m 1263 303 l 1258 296 l 1263 293 l 1267 301 l 1263 303 m 1313 272 q 1311 288 1310 283 q 1303 275 1311 283 l 1299 279 l 1304 286 q 1293 290 1301 290 l 1288 296 l 1276 296 q 1278 288 1281 290 q 1269 293 1272 293 q 1264 285 1265 293 l 1258 290 q 1256 272 1254 282 l 1256 285 q 1264 265 1265 275 q 1268 279 1264 272 q 1265 282 1265 278 q 1269 285 1267 283 q 1272 288 1271 286 q 1276 279 1276 283 q 1283 281 1279 279 q 1288 269 1286 274 q 1285 268 1286 268 q 1281 269 1283 268 q 1290 264 1288 265 l 1286 258 q 1276 260 1278 258 q 1293 250 1292 251 l 1289 256 q 1293 264 1288 258 q 1294 281 1293 271 q 1297 276 1296 281 q 1301 272 1297 272 l 1313 272 m 1151 431 q 1146 429 1149 429 q 1142 431 1143 429 q 1143 426 1143 429 q 1140 419 1143 422 q 1147 422 1143 422 q 1150 421 1149 422 q 1149 425 1149 422 q 1151 431 1149 428 m 1242 325 l 1236 325 l 1236 310 l 1242 310 l 1242 325 m 1232 319 l 1228 311 l 1232 308 l 1236 317 l 1232 319 m 883 704 q 879 717 888 710 l 875 708 l 883 704 m 972 618 l 957 611 l 957 607 l 974 614 l 972 618 m 1289 244 l 1288 240 l 1300 233 l 1301 238 l 1289 244 m 1013 568 q 1001 572 1008 572 q 996 558 1001 565 q 1006 554 999 554 q 1013 568 1006 561 m 939 643 l 932 639 l 932 635 l 940 639 l 939 643 m 950 631 l 940 626 l 940 622 l 951 626 l 950 631 m 974 600 l 969 600 l 969 589 l 974 589 l 974 600 m 1050 525 q 1029 521 1036 525 q 1038 510 1036 513 l 1050 525 m 992 574 l 989 565 l 993 563 l 996 571 l 992 574 m 1181 357 l 1178 354 l 1188 343 l 1190 346 l 1181 357 m 1058 499 l 1051 494 l 1051 490 l 1060 494 l 1058 499 m 1275 254 q 1268 251 1275 251 q 1272 247 1271 251 q 1272 242 1275 244 q 1275 254 1275 244 m 1299 226 l 1286 211 l 1290 208 l 1303 224 l 1299 226 m 1178 342 q 1171 351 1178 344 l 1175 358 q 1168 351 1169 351 q 1178 342 1176 342 m 1157 367 l 1153 358 l 1157 356 l 1161 364 l 1157 367 m 1185 332 l 1181 329 l 1185 322 l 1189 322 l 1185 332 m 1268 238 l 1264 236 l 1268 228 l 1272 228 l 1268 238 m 1129 418 q 1111 443 1111 438 q 1106 435 1111 442 q 1094 442 1101 440 q 1094 446 1090 442 q 1089 444 1093 444 q 1085 447 1085 444 q 1086 450 1085 449 l 1081 444 q 1078 457 1078 451 q 1046 433 1051 435 q 1075 450 1057 438 q 1078 438 1079 442 q 1082 442 1078 442 q 1082 438 1085 442 q 1083 435 1079 435 q 1086 438 1086 435 l 1086 438 q 1090 442 1086 442 q 1107 429 1096 442 q 1104 418 1103 419 q 1113 407 1107 410 q 1111 422 1110 411 q 1117 411 1117 417 q 1119 425 1117 424 q 1129 418 1125 419 m 1210 290 l 1206 289 l 1210 282 l 1214 282 l 1210 290 m 1172 333 l 1167 333 l 1167 322 l 1172 322 l 1172 333 m 1063 468 q 1047 454 1057 464 l 1039 463 q 1032 458 1033 458 q 1046 469 1042 469 q 1049 466 1049 469 q 1053 463 1049 463 q 1059 465 1057 463 q 1063 468 1061 468 m 1263 222 l 1257 215 l 1260 211 l 1267 219 l 1263 222 m 1251 246 q 1247 243 1250 246 q 1240 240 1244 240 l 1236 240 l 1236 243 q 1243 232 1240 233 q 1236 222 1238 225 q 1251 246 1247 239 m 1203 274 q 1207 271 1204 271 q 1211 272 1210 271 q 1214 260 1214 264 q 1219 267 1215 261 q 1224 274 1222 272 l 1203 274 m 1103 378 l 1090 378 l 1090 382 l 1103 382 l 1103 378 m 1246 214 q 1244 221 1244 218 l 1236 213 l 1228 221 q 1236 206 1228 215 l 1246 206 l 1246 214 m 1113 493 q 1099 510 1103 510 q 1079 497 1094 510 q 1060 483 1064 485 q 1064 485 1061 483 q 1068 486 1067 486 q 1056 472 1064 472 q 1051 474 1049 472 q 1060 481 1057 479 q 949 411 986 436 l 949 400 q 954 378 949 390 q 1001 418 974 400 q 994 415 999 418 l 990 419 l 1007 426 l 1001 419 q 1024 433 1015 428 l 1013 433 l 1013 444 l 1017 450 q 1018 438 1018 449 q 1029 446 1025 444 q 1021 451 1025 446 l 1043 451 q 1032 442 1036 444 q 1113 493 1085 475 m 1063 406 l 1058 406 l 1058 397 l 1063 397 l 1063 406 m 1031 442 l 1024 439 l 1024 433 l 1032 438 l 1031 442 m 1121 364 q 1097 388 1121 388 q 1072 376 1083 388 q 1060 351 1060 365 q 1068 335 1060 343 q 1085 328 1076 328 q 1109 340 1097 328 q 1121 364 1121 351 m 1106 365 q 1090 347 1101 347 q 1076 358 1082 347 l 1083 365 l 1083 356 q 1092 353 1086 353 q 1106 365 1106 353 m 1204 254 q 1181 231 1190 231 q 1156 254 1176 231 q 1121 292 1131 282 q 1144 318 1128 301 q 1204 254 1165 299 m 1115 329 l 1107 329 l 1107 324 l 1115 324 l 1115 329 m 1135 321 q 1113 297 1126 313 q 1107 304 1113 304 q 1135 321 1117 310 m 1067 393 q 1043 378 1054 378 q 1024 403 1026 378 l 1024 382 q 1040 372 1032 372 q 1067 393 1054 372 m 1001 429 l 997 429 l 997 440 l 1001 440 l 1001 429 m 1099 325 q 1092 322 1099 322 l 1082 322 l 1076 324 q 1079 319 1079 324 q 1076 313 1079 317 q 1082 315 1079 314 q 1086 313 1085 314 q 1089 321 1086 321 q 1099 325 1097 324 m 1153 243 q 1165 229 1153 229 l 1153 243 m 1021 410 l 1017 410 l 1017 376 l 1021 376 l 1021 410 m 1146 250 l 1142 242 l 1146 240 l 1150 249 l 1146 250 m 1001 396 q 994 393 1000 396 q 988 390 989 390 l 993 385 q 1001 396 990 385 m 1078 297 l 1071 294 l 1071 289 l 1079 293 l 1078 297 m 1039 332 l 1038 328 l 1044 324 l 1046 328 l 1039 332 m 1081 304 q 1077 306 1079 304 q 1067 310 1075 308 q 1060 322 1060 313 l 1064 328 q 1071 325 1067 325 l 1054 342 q 1063 329 1060 333 q 1050 318 1053 319 l 1050 328 q 1036 310 1046 319 q 1022 321 1026 318 q 1051 297 1042 303 q 1040 310 1044 306 q 1051 313 1042 313 q 1056 308 1056 313 q 1056 301 1054 303 q 1061 313 1053 304 l 1068 304 q 1064 303 1067 303 q 1061 304 1063 303 q 1056 293 1064 293 l 1064 290 q 1069 304 1064 297 l 1081 304 m 779 628 l 774 624 l 774 619 l 781 622 l 779 628 m 979 408 l 954 388 q 953 392 954 389 q 951 399 951 396 q 969 418 951 400 q 965 411 965 414 q 972 407 965 407 q 979 408 979 407 m 772 613 q 783 604 779 604 q 786 617 786 608 l 772 613 m 1021 343 l 1017 343 l 1017 335 l 1021 335 l 1021 343 m 1000 367 l 993 363 l 993 358 l 1001 363 l 1000 367 m 963 403 l 954 399 l 954 404 l 961 408 l 963 403 m 989 358 l 986 349 l 990 347 l 993 358 l 989 358 m 936 413 l 933 401 l 938 400 l 940 413 l 936 413 m 914 429 q 901 444 907 439 q 893 432 894 435 q 903 431 897 432 q 914 429 910 429 m 757 599 l 756 594 l 768 588 l 769 592 l 757 599 m 892 454 l 885 451 l 885 446 l 893 450 l 892 454 m 931 418 q 925 417 931 419 q 921 419 921 415 q 931 397 924 397 l 931 418 m 1069 232 l 1067 228 l 1165 151 l 1168 156 l 1069 232 m 881 464 l 874 460 l 874 456 l 882 460 l 881 464 m 896 449 l 886 442 l 889 438 l 899 444 l 896 449 m 826 511 l 821 507 l 821 503 l 829 507 l 826 511 m 806 531 l 793 531 l 793 525 l 806 525 l 806 531 m 939 390 q 926 382 931 382 q 922 400 922 382 q 900 383 907 397 q 922 372 910 372 q 939 390 931 372 m 1068 232 q 958 335 958 315 q 951 326 958 326 q 1068 232 994 288 m 703 533 l 689 536 l 689 532 l 703 528 l 703 533 m 511 661 l 507 653 l 511 651 l 515 660 l 511 661 m 506 651 l 501 643 l 506 642 l 510 650 l 506 651 m 639 489 l 635 486 l 642 475 l 646 478 l 639 489 m 478 651 l 474 643 l 478 642 l 481 650 l 478 651 m 472 642 l 463 625 l 467 622 l 475 640 l 472 642 m 599 454 l 597 450 l 607 443 l 608 447 l 599 454 m 469 592 l 465 583 l 469 582 l 472 590 l 469 592 m 456 614 l 446 596 l 450 594 l 458 613 l 456 614 m 467 574 q 456 576 464 576 q 444 585 453 576 l 444 567 q 449 576 449 572 q 458 569 454 569 q 464 572 463 569 q 467 574 465 574 m 414 585 q 406 588 407 585 q 413 590 408 590 q 406 594 410 590 q 404 578 403 583 q 414 585 410 582 m 433 563 q 426 561 431 560 q 424 567 422 563 l 417 558 q 436 558 429 560 l 433 563 m 594 393 q 576 407 582 401 q 572 388 572 399 q 556 397 560 392 q 574 378 564 378 q 594 393 586 378 m 560 418 l 554 418 l 554 407 l 560 407 l 560 418 m 313 692 l 310 685 l 314 682 l 317 690 l 313 692 m 418 568 q 415 576 415 571 q 407 571 408 569 q 418 568 415 568 m 400 585 l 396 585 l 396 576 l 400 576 l 400 585 m 379 596 l 376 592 l 389 578 l 392 582 l 379 596 m 401 571 l 392 571 l 392 565 l 401 565 l 401 571 m 354 624 q 351 632 353 629 q 346 631 349 631 q 328 635 339 631 q 331 625 329 633 q 343 615 338 614 q 343 613 346 614 q 332 619 344 619 q 342 628 335 628 q 354 624 347 628 m 383 574 l 379 571 l 385 558 l 389 558 l 383 574 m 313 642 l 310 635 l 314 632 l 317 640 l 313 642 m 547 418 q 436 488 474 464 q 444 481 442 483 l 428 475 q 394 499 421 475 q 401 501 397 499 q 408 504 406 504 q 413 497 411 504 q 418 489 415 490 l 415 493 q 415 497 414 496 q 420 496 417 497 q 425 494 424 494 q 422 486 425 489 q 429 479 426 479 q 428 492 429 490 q 435 490 428 489 q 415 504 431 492 q 397 517 400 517 q 390 515 393 517 q 386 513 388 513 q 383 499 386 503 q 464 449 438 465 q 453 458 457 456 l 475 458 q 467 453 471 454 q 476 444 474 447 q 481 454 476 454 l 481 438 q 476 439 479 438 q 472 440 474 440 q 494 426 481 435 q 490 435 488 432 q 506 426 497 426 l 501 422 q 494 425 501 425 q 540 385 535 396 q 547 392 540 392 l 547 418 m 464 464 q 461 465 463 464 q 456 467 460 467 q 451 463 451 467 l 451 463 q 449 460 451 460 q 433 475 446 460 l 436 472 q 443 469 439 469 q 446 472 446 469 q 450 475 446 475 q 464 464 454 474 m 310 626 l 307 618 l 311 617 l 314 625 l 310 626 m 307 632 q 289 621 297 621 q 301 617 297 621 q 304 626 301 621 q 307 632 307 631 m 486 397 l 482 397 l 482 413 l 486 413 l 486 397 m 307 614 q 304 610 306 614 q 301 607 303 607 l 294 613 q 303 594 301 600 q 310 599 307 597 l 307 614 m 482 415 l 478 382 l 474 382 l 476 415 l 482 415 m 451 439 q 417 458 426 454 q 428 451 424 458 q 422 432 422 440 q 435 439 426 439 q 426 444 426 439 q 451 439 442 444 m 313 578 l 310 572 l 319 565 l 322 569 l 313 578 m 283 604 l 279 604 l 279 596 l 283 596 l 283 604 m 321 551 l 318 549 l 328 538 l 331 540 l 321 551 m 453 406 l 451 401 l 439 410 l 440 414 l 453 406 m 464 401 q 451 390 464 390 q 436 401 449 390 q 450 394 440 399 q 457 410 456 403 q 461 413 457 413 q 463 409 461 413 q 464 401 464 406 m 489 361 q 485 347 485 358 q 478 358 483 351 q 483 360 479 358 q 489 361 488 361 m 436 404 l 432 404 l 432 413 l 436 413 l 436 404 m 382 522 q 331 472 339 494 q 351 497 344 490 q 350 493 351 496 q 353 492 349 492 q 360 497 354 492 q 361 493 361 494 q 317 454 333 471 q 374 500 356 486 q 367 499 371 499 q 356 503 361 499 l 375 514 q 375 501 376 514 q 382 522 381 515 m 346 513 q 319 519 338 513 q 335 492 325 501 q 346 513 340 506 m 317 517 l 313 515 l 326 482 l 331 482 l 317 517 m 447 357 q 446 369 446 358 q 439 360 440 363 q 447 357 442 360 m 547 375 q 540 331 538 347 q 538 340 538 333 q 489 286 526 315 q 429 238 436 244 q 543 329 504 294 q 542 347 543 333 q 547 364 540 360 l 547 375 m 457 339 l 456 335 l 463 331 l 464 335 l 457 339 m 385 422 l 382 414 l 386 413 l 389 421 l 385 422 m 404 383 l 392 383 l 392 389 l 404 389 l 404 383 m 354 438 q 346 436 349 433 q 344 426 349 432 q 350 429 347 428 q 354 426 353 428 q 353 432 353 429 q 354 438 353 435 m 436 358 q 424 383 436 371 q 399 394 411 394 q 375 371 375 394 q 388 347 375 358 q 413 335 400 335 q 428 343 419 335 q 436 358 436 351 m 428 358 q 411 340 428 340 q 390 351 407 342 q 406 347 399 347 q 425 365 425 347 q 424 372 425 368 q 426 367 424 371 q 428 358 428 363 m 322 479 q 306 507 322 489 q 289 486 301 497 q 267 478 276 475 q 272 457 269 474 q 286 447 275 447 q 322 479 322 464 m 192 585 l 188 585 l 188 574 l 192 574 l 192 585 m 422 328 q 417 325 419 325 q 414 326 415 325 q 419 331 418 331 q 412 329 417 331 q 404 328 407 328 q 396 332 400 328 q 411 329 403 329 q 408 319 411 322 q 422 328 421 325 m 347 394 l 344 404 l 340 401 l 343 394 l 347 394 m 351 385 l 349 382 l 356 375 l 358 378 l 351 385 m 372 365 l 368 365 l 368 357 l 372 357 l 372 365 m 317 431 l 313 431 l 313 410 l 317 410 l 317 431 m 400 322 q 401 300 403 307 l 401 313 q 411 310 407 313 l 400 322 m 431 289 q 426 290 429 289 l 421 290 q 419 288 417 290 q 419 285 422 285 q 410 297 410 285 q 400 278 404 285 l 406 285 q 411 281 408 285 q 418 278 414 278 q 431 289 424 278 m 260 492 q 224 432 236 451 q 254 500 242 479 q 215 438 235 463 q 251 510 239 486 q 210 440 224 464 q 246 519 231 496 q 201 447 218 468 q 243 529 228 501 q 196 450 210 476 q 238 538 217 508 q 188 457 196 468 q 235 550 219 521 q 181 460 200 493 q 179 464 178 463 q 232 557 204 510 q 174 467 193 497 q 198 518 174 476 q 226 572 222 560 q 168 475 186 507 q 224 582 197 542 q 163 469 163 492 q 229 422 201 438 q 243 456 228 429 q 260 492 258 483 m 307 401 l 300 397 l 300 393 l 308 397 l 307 401 m 299 379 q 292 397 294 390 q 288 389 292 394 l 299 379 m 399 296 q 392 292 396 296 l 392 300 q 378 282 381 288 q 392 260 389 268 l 392 281 q 386 282 388 281 l 390 288 q 396 285 393 288 q 396 292 394 288 q 399 296 396 296 m 318 357 l 315 349 l 319 347 l 322 356 l 318 357 m 304 443 q 286 438 294 438 q 269 447 278 438 q 264 435 264 440 l 265 439 q 269 442 267 442 q 285 433 271 442 q 274 424 276 422 l 276 426 q 269 435 278 426 q 260 410 264 414 q 258 422 260 422 q 219 381 235 397 q 232 389 228 389 l 228 382 q 304 443 279 421 m 282 399 q 275 393 281 393 q 282 388 278 393 l 282 399 m 318 363 q 303 356 313 356 l 311 346 q 308 350 308 347 q 318 363 308 354 m 386 261 l 382 261 l 382 253 l 386 253 l 386 261 m 303 346 q 294 374 294 349 l 294 346 l 303 346 m 369 268 q 367 260 369 265 q 372 263 369 261 q 376 260 375 261 l 369 268 m 285 372 q 272 382 278 381 q 268 365 274 365 l 263 365 q 258 364 260 364 l 263 364 q 268 363 265 363 q 277 368 271 363 q 285 372 283 374 m 389 313 q 381 303 385 307 q 360 326 368 318 q 386 321 379 322 q 378 324 383 321 q 371 328 374 328 l 367 333 l 372 339 q 361 346 364 340 q 358 328 361 335 q 356 331 357 328 q 351 335 354 335 q 332 318 344 335 q 331 335 331 322 q 318 310 331 332 q 328 319 321 317 q 282 257 304 279 q 315 228 308 228 q 334 247 318 228 q 354 265 350 265 q 354 263 357 265 q 357 260 353 260 q 363 266 360 260 q 371 272 367 272 q 379 267 375 272 q 374 281 374 272 q 357 265 361 267 q 389 313 375 297 m 269 361 l 268 356 l 275 353 l 278 357 l 269 361 m 250 382 l 243 375 l 246 371 l 253 379 l 250 382 m 278 346 q 271 347 275 347 l 271 347 q 264 349 265 347 q 271 340 265 344 q 272 347 271 346 q 278 346 278 347 m 253 369 l 247 367 l 247 361 l 256 365 l 253 369 m 300 301 q 299 306 299 304 q 300 311 299 308 q 292 300 294 304 q 297 303 294 303 q 300 301 299 303 m 372 256 q 357 238 368 256 q 343 221 346 221 q 338 218 336 221 l 332 222 q 339 219 336 219 q 381 256 343 219 l 372 256 m 289 315 l 285 315 l 285 304 l 289 304 l 289 315 m 425 239 l 326 163 l 329 157 l 428 235 l 425 239 m 292 292 l 290 288 l 297 283 l 300 288 l 292 292 m 264 325 l 260 324 l 263 317 l 267 317 l 264 325 m 257 333 q 254 329 251 333 q 256 318 256 322 q 257 333 257 315 m 289 296 l 285 296 l 285 285 l 289 285 l 289 296 m 182 400 q 174 399 176 396 q 175 390 176 399 l 182 400 m 233 326 l 225 322 l 225 318 l 236 322 l 233 326 m 113 463 l 106 444 l 110 443 l 117 463 l 113 463 m 233 310 l 229 308 l 232 300 l 236 300 l 233 310 m 224 319 l 217 319 l 217 314 l 224 314 l 224 319 m 157 392 l 153 389 l 160 378 l 164 381 l 157 392 m 200 339 l 193 331 l 196 328 l 203 335 l 200 339 m 122 410 q 121 418 121 410 l 121 413 q 122 421 118 417 q 117 413 117 415 q 122 410 118 410 m 215 317 l 208 317 l 208 311 l 215 311 l 215 317 m 157 367 l 154 358 l 157 356 l 161 364 l 157 367 m 204 314 l 197 314 l 197 308 l 204 308 l 204 314 m 215 290 q 203 288 206 290 q 211 300 204 292 q 215 290 215 294 m 93 425 l 89 424 l 93 417 l 97 417 l 93 425 m 238 250 l 235 242 l 238 240 l 242 249 l 238 250 m 222 261 l 218 261 l 218 247 l 222 247 l 222 261 m 157 317 l 150 317 l 150 311 l 157 311 l 157 317 m 236 228 l 232 228 l 232 215 l 236 215 l 236 228 m 121 349 q 108 361 108 356 q 111 351 108 357 l 114 344 q 121 349 118 347 m 135 326 l 132 322 l 142 311 l 144 315 l 135 326 m 206 247 q 203 243 206 243 q 199 244 200 246 q 203 240 201 244 q 206 247 206 243 m 188 246 l 185 236 l 188 233 l 192 246 l 188 246 m 196 233 l 193 231 l 204 214 l 208 218 l 196 233 m 93 326 l 79 329 l 79 324 l 93 321 l 93 326 m 108 285 l 97 278 l 97 274 l 108 285 m 99 269 q 93 268 96 268 q 85 271 89 268 q 90 290 90 276 q 82 286 88 290 q 85 279 85 282 q 80 275 85 275 q 75 272 75 275 q 78 267 75 269 q 76 271 76 268 q 79 272 76 272 q 82 270 78 272 q 89 268 86 268 q 99 269 93 268 m 69 308 q 67 300 69 303 q 64 317 64 307 q 63 302 64 311 q 61 288 61 293 q 67 297 65 293 q 69 288 69 294 l 69 308 m 103 260 q 92 231 92 224 l 92 240 l 97 228 q 96 243 97 246 l 96 242 q 100 240 96 240 q 103 247 104 240 q 103 260 101 257 m 164 88 q 154 86 158 86 q 122 111 135 86 q 113 153 113 131 q 131 281 113 178 q 111 222 119 278 q 104 153 104 179 q 151 81 104 81 q 168 89 154 81 l 164 88 m 97 221 l 92 221 l 92 210 l 97 210 l 97 221 m 67 219 q 64 231 64 222 q 58 207 58 218 q 61 215 58 213 q 65 214 64 213 l 60 219 q 64 222 61 222 q 67 219 65 222 m 50 240 q 32 196 35 204 q 47 175 32 190 q 50 240 47 222 m 1271 378 q 1236 417 1236 415 q 1225 413 1228 417 l 1225 415 q 1226 419 1225 419 q 1225 429 1226 424 q 1218 426 1219 425 l 1225 435 q 1232 429 1231 429 q 1225 442 1232 433 q 1208 432 1217 432 q 1190 438 1200 432 q 1268 376 1217 414 q 1264 385 1263 382 l 1271 378 m 1188 408 q 1168 435 1183 417 l 1175 424 q 1176 407 1178 418 q 1188 408 1179 408 m 897 718 l 890 726 l 883 718 q 888 711 886 715 q 897 718 892 711 m 907 694 l 906 700 l 899 696 l 899 692 l 907 694 m 1169 389 l 1165 392 l 1161 383 l 1165 381 l 1169 389 m 901 686 l 900 690 l 893 686 l 893 682 l 901 686 m 879 700 l 872 708 l 869 706 l 876 697 l 879 700 m 1090 460 l 1089 464 l 1082 460 l 1082 456 l 1090 460 m 1128 350 l 1128 358 l 1122 358 l 1122 350 l 1128 350 m 1118 335 l 1111 339 l 1110 335 l 1117 331 l 1118 335 m 1058 397 q 1046 388 1050 388 q 1038 399 1038 388 l 1043 406 q 1032 396 1032 406 q 1033 390 1032 393 q 1035 385 1035 386 l 1050 385 q 1058 397 1058 393 m 1013 392 l 1013 403 l 1008 403 l 1008 392 l 1013 392 m 1018 353 q 1013 354 1017 353 q 1007 356 1008 356 l 1013 349 q 1007 342 1007 343 l 1018 353 m 622 713 l 622 718 l 608 722 l 608 717 l 622 713 m 349 706 l 349 717 l 353 717 l 353 706 l 349 706 m 403 724 q 400 721 403 721 l 392 729 q 349 669 385 729 q 383 732 346 678 q 381 738 381 735 q 382 740 381 739 q 375 726 375 733 q 364 733 369 726 q 357 714 364 718 q 356 733 357 721 q 338 711 342 713 q 332 713 333 711 q 329 714 331 714 q 339 729 333 718 l 333 724 q 331 728 331 725 q 332 732 331 731 q 329 726 329 729 q 331 722 329 724 q 324 718 325 717 q 339 701 335 713 q 322 711 333 701 q 333 694 328 704 l 324 682 l 324 692 q 314 674 322 688 l 313 676 q 307 664 314 674 q 304 673 307 667 q 301 683 301 679 q 306 690 301 686 q 296 674 300 683 q 300 676 296 676 l 304 668 l 300 661 q 311 656 306 661 l 306 651 l 299 654 q 285 638 285 647 q 287 631 285 633 q 289 626 289 628 q 303 640 294 626 q 319 656 313 653 q 317 649 317 653 l 325 658 l 329 651 q 335 642 331 651 q 343 632 340 633 q 403 724 361 651 m 574 432 q 564 425 571 432 l 568 403 q 574 432 575 429 m 535 404 l 531 413 l 526 411 l 531 404 l 535 404 m 522 378 q 515 372 518 375 l 513 382 q 522 378 519 378 m 508 396 q 494 381 499 386 q 497 368 500 374 q 508 364 503 368 q 499 367 504 367 q 489 364 494 367 q 493 371 492 368 q 483 390 488 383 q 490 385 485 390 q 489 397 489 383 l 496 390 q 497 397 497 393 q 496 401 497 401 l 497 399 q 501 394 497 394 l 506 394 q 508 396 507 396 m 471 410 q 469 390 474 401 q 456 378 465 378 q 440 387 449 378 q 431 396 432 396 q 453 385 443 385 q 471 410 471 385 m 417 421 q 411 429 414 424 q 414 421 411 425 q 406 418 411 418 q 417 421 411 415 m 528 385 q 497 407 497 406 q 492 406 493 407 l 489 403 q 476 422 490 417 q 472 419 472 422 q 474 415 472 418 l 465 425 l 465 431 q 460 435 464 435 q 417 428 447 435 q 419 411 419 419 q 417 397 419 404 q 413 408 413 403 q 410 401 413 403 q 406 406 408 403 q 396 418 407 418 q 406 408 399 417 q 389 413 401 407 q 372 400 379 400 q 367 372 372 388 q 385 403 382 403 q 428 388 407 403 q 457 372 450 372 q 474 382 454 372 l 478 376 q 458 364 460 367 q 454 350 458 354 q 453 358 454 354 q 451 365 451 363 q 451 351 453 363 q 456 344 451 344 q 467 342 468 344 q 457 343 465 343 q 465 357 457 349 q 465 351 467 356 q 468 350 464 350 q 469 353 471 350 q 472 357 468 357 q 474 354 478 357 q 471 342 475 353 q 478 336 474 340 l 478 328 q 492 340 483 332 q 485 344 485 340 q 515 356 500 342 q 528 385 529 369 m 419 364 q 406 353 414 353 q 389 364 397 353 l 389 374 q 404 360 390 360 q 411 372 413 360 l 419 364 m 332 428 l 332 432 l 317 436 l 317 431 l 332 428 m 363 389 q 354 396 354 399 q 350 388 354 393 q 357 392 354 392 q 363 389 360 392 m 338 397 q 332 394 335 394 q 329 396 331 394 q 331 390 331 393 q 329 386 331 388 q 338 397 332 390 m 306 424 l 303 426 l 293 415 l 296 413 l 306 424 m 264 433 l 260 435 l 257 426 l 260 425 l 264 433 m 278 326 q 274 322 278 322 q 264 329 271 322 q 278 313 278 315 l 278 326 z "},"-":{"ha":494,"x_min":0,"x_max":0,"o":""},".":{"ha":494,"x_min":0,"x_max":0,"o":""},"/":{"ha":494,"x_min":0,"x_max":0,"o":""},":":{"ha":494,"x_min":0,"x_max":0,"o":""},";":{"ha":494,"x_min":0,"x_max":0,"o":""},"<":{"ha":1514,"x_min":15,"x_max":1492,"o":"m 154 1006 l 104 1006 l 104 919 l 57 919 l 57 1006 l 15 1006 l 15 1032 l 57 1032 l 57 1047 l 88 1047 l 88 1069 l 154 1069 l 154 1047 l 104 1047 l 104 1032 l 154 1032 l 154 1006 m 483 919 l 428 919 l 428 1024 l 386 1024 l 386 919 l 339 919 l 339 1046 l 458 1046 l 458 1025 q 483 1024 467 1026 l 483 919 m 200 1046 l 288 1046 l 288 1025 q 314 1024 297 1026 l 314 940 l 288 940 l 288 919 l 200 919 l 200 940 l 172 940 l 172 1024 l 201 1024 l 200 1046 m 549 1065 l 596 1065 l 596 1042 l 647 1042 l 647 1018 l 601 1018 q 603 942 603 944 l 647 943 l 647 919 l 574 919 l 574 943 l 549 943 l 549 1018 l 506 1018 l 506 1042 l 549 1042 l 549 1065 m 1114 1029 l 1043 1029 l 1043 1053 l 1114 1053 l 1114 1029 m 1369 944 l 1347 944 l 1347 964 l 1369 964 l 1369 944 m 1043 1014 l 1018 1014 l 1018 921 l 971 921 l 971 1053 l 1018 1053 l 1018 1036 q 1043 1029 1028 1036 l 1043 1014 m 1368 1008 q 1347 1010 1361 1007 l 1347 1025 l 1369 1025 l 1369 1049 l 1465 1049 l 1465 1025 l 1394 1025 l 1394 1010 l 1436 1010 l 1436 986 l 1465 986 l 1465 964 l 1492 964 l 1492 944 l 1465 944 l 1465 919 l 1369 919 l 1369 944 l 1436 944 q 1439 954 1442 949 q 1436 964 1436 960 l 1394 964 l 1394 986 l 1369 986 l 1368 1008 m 1492 1010 l 1465 1010 l 1465 1025 l 1492 1025 l 1492 1010 m 797 921 l 704 921 l 704 1047 l 751 1047 l 751 947 l 797 947 l 797 921 m 846 963 l 821 963 l 821 947 l 797 947 l 797 1047 l 846 1047 l 846 963 m 924 1032 l 882 1032 l 882 1064 l 924 1064 l 924 1032 m 924 919 l 882 919 l 882 1006 l 924 1006 l 924 919 m 1268 947 l 1268 1047 l 1318 1047 l 1318 921 l 1203 921 l 1203 947 l 1179 947 l 1179 1047 l 1221 1047 l 1221 947 l 1268 947 m 1140 921 l 1099 921 l 1099 957 l 1140 957 l 1140 921 m 1415 299 l 1281 274 l 1186 490 l 1053 456 l 1125 247 l 982 221 l 1022 74 l 750 38 l 732 169 l 981 215 l 949 333 l 440 217 l 439 115 l 626 150 l 636 24 l 436 -4 l 439 119 l 349 103 l 360 272 l 293 254 l 275 88 l 213 75 l 247 331 l 297 347 l 306 425 l 372 447 l 375 506 l 447 532 l 449 601 l 381 575 l 383 635 l 450 663 l 449 601 l 519 631 l 521 558 l 756 646 l 742 719 l 831 754 l 813 818 l 910 860 l 932 796 l 832 756 l 851 681 l 960 719 l 982 657 l 1090 694 l 1131 603 l 1239 636 l 1415 299 m 904 536 l 881 622 l 757 581 l 772 496 l 904 536 m 535 422 l 532 503 l 438 471 l 436 392 l 535 422 z "},"=":{"ha":1506,"x_min":24,"x_max":1476,"o":"m 1442 181 l 1438 181 l 1438 196 l 1442 196 l 1442 181 m 1433 189 l 1431 193 q 1424 192 1426 193 q 1428 176 1432 178 q 1432 179 1429 176 q 1425 175 1429 175 l 1419 196 q 1425 201 1425 196 q 1433 189 1425 207 m 1406 203 l 1401 203 l 1401 218 l 1406 218 l 1406 203 m 1442 160 l 1438 160 l 1438 176 l 1442 176 l 1442 160 m 1419 153 q 1413 163 1419 163 q 1408 150 1411 157 l 1408 174 q 1419 153 1421 157 m 1424 115 l 1414 115 l 1414 111 l 1424 111 l 1424 115 m 1431 101 l 1426 101 l 1426 90 l 1431 90 l 1431 101 m 1397 92 q 1388 71 1388 79 q 1376 72 1386 72 q 1397 92 1385 76 m 1275 190 l 1271 190 l 1267 199 l 1271 200 l 1275 190 m 1386 65 l 1376 54 l 1374 58 l 1383 68 l 1386 65 m 1271 182 l 1265 174 l 1268 171 l 1275 178 l 1271 182 m 1388 51 q 1385 43 1388 49 l 1378 50 q 1388 51 1381 47 m 1251 199 q 1239 203 1247 203 q 1218 188 1229 203 q 1239 200 1229 200 q 1251 199 1250 200 m 1329 67 q 1313 74 1326 67 q 1293 79 1300 81 q 1300 72 1300 79 q 1304 78 1300 78 q 1313 74 1308 78 q 1325 69 1318 69 l 1329 67 m 1219 186 l 1214 186 l 1214 172 l 1219 172 l 1219 186 m 1196 204 l 1185 204 l 1185 210 l 1196 210 l 1196 204 m 1372 18 l 1372 10 q 1371 0 1371 3 l 1357 0 q 1372 18 1369 -6 m 1294 86 l 1292 82 l 1279 93 l 1281 97 l 1294 86 m 1179 197 l 1185 197 q 1183 193 1185 193 q 1178 196 1178 193 q 1181 201 1178 199 q 1188 192 1175 192 l 1179 197 m 1353 4 l 1350 1 l 1340 13 l 1343 15 l 1353 4 m 1271 93 l 1269 89 l 1263 93 l 1264 97 l 1271 93 m 1314 33 l 1308 33 l 1308 51 l 1314 51 l 1314 33 m 1246 113 q 1238 115 1240 115 l 1242 124 q 1246 113 1242 119 m 1328 24 l 1325 19 l 1318 28 l 1321 31 l 1328 24 m 1251 106 l 1244 101 l 1243 106 l 1251 110 l 1251 106 m 1165 197 l 1158 182 l 1163 181 l 1169 194 l 1165 197 m 1182 169 q 1168 183 1182 176 q 1165 178 1168 182 q 1163 172 1163 174 q 1178 163 1176 164 q 1182 169 1178 165 m 1182 153 l 1178 144 l 1182 143 l 1186 151 l 1182 153 m 1179 143 q 1169 129 1169 142 q 1174 108 1169 118 q 1172 131 1172 124 q 1179 143 1179 131 m 336 203 l 332 201 l 338 188 l 342 188 l 336 203 m 322 207 l 315 199 l 313 203 l 319 210 l 322 207 m 338 183 q 333 187 336 183 q 328 190 329 190 l 319 179 q 321 173 319 176 q 322 168 322 169 q 338 183 328 172 m 319 158 l 315 157 l 318 150 l 322 150 l 319 158 m 286 193 l 282 193 l 282 178 l 286 178 l 286 193 m 328 136 q 326 115 328 118 q 331 132 331 124 q 322 149 331 142 q 328 136 322 139 m 296 164 l 289 161 l 288 165 l 296 169 l 296 164 m 282 178 q 265 168 274 168 q 244 183 258 168 l 254 163 l 272 163 q 282 178 282 163 m 285 110 l 278 106 l 278 101 l 286 106 l 285 110 m 269 113 l 265 111 l 257 129 l 261 131 l 269 113 m 275 103 l 269 100 l 269 94 l 278 99 l 275 103 m 242 138 l 236 133 l 236 129 l 244 133 l 242 138 m 239 99 l 229 92 l 226 96 l 236 103 l 239 99 m 97 193 l 92 193 l 92 203 l 97 203 l 97 193 m 204 89 q 202 84 204 88 q 200 79 200 81 q 196 83 200 83 q 175 74 192 83 q 204 89 183 78 m 81 201 l 72 201 q 75 206 74 203 l 78 211 q 78 204 76 208 q 81 201 79 201 m 64 188 l 58 188 l 58 203 l 64 203 l 64 188 m 76 186 q 75 175 76 182 q 67 185 74 178 q 76 186 69 182 m 194 50 l 188 39 l 185 42 l 190 53 l 194 50 m 64 165 l 58 165 l 58 183 l 64 183 l 64 165 m 183 33 l 176 26 l 174 29 l 181 38 l 183 33 m 156 53 l 151 53 l 149 60 l 151 61 l 156 53 m 99 113 l 94 110 l 99 103 l 103 103 l 99 113 m 124 78 l 114 78 q 103 97 114 86 q 124 78 117 83 m 171 28 l 169 22 l 161 26 l 161 31 l 171 28 m 144 49 l 142 44 l 135 53 l 138 56 l 144 49 m 131 71 q 128 71 131 74 q 126 61 126 68 l 115 74 q 131 71 122 74 m 161 18 l 151 7 l 149 11 l 158 21 l 161 18 m 71 108 l 67 101 l 71 99 l 75 107 l 71 108 m 143 6 q 128 21 131 1 q 129 6 131 15 l 143 6 m 1476 190 q 1465 174 1476 186 q 1453 157 1454 163 q 1447 113 1450 125 q 1428 74 1442 89 q 1397 38 1399 42 q 1381 -10 1381 11 q 1360 -19 1374 -19 q 1297 22 1351 -19 q 1206 89 1233 72 q 1165 97 1192 89 q 1158 119 1160 101 q 1154 138 1156 136 q 935 314 1086 190 q 878 382 901 342 q 835 461 864 408 q 831 476 835 465 q 801 496 822 483 q 790 514 793 513 q 788 511 788 514 l 788 511 q 783 510 788 510 q 776 521 782 510 q 763 533 769 532 l 757 539 q 761 553 756 546 q 753 554 760 554 q 747 553 749 554 q 717 517 726 517 q 714 518 714 517 l 714 518 q 710 519 714 519 l 700 501 q 665 467 676 492 q 642 426 657 453 q 542 300 617 368 q 413 197 522 282 q 347 143 390 183 q 340 110 346 133 q 315 97 335 99 q 296 94 296 94 q 210 29 276 83 q 140 -14 157 -14 q 119 -3 128 -14 q 67 88 121 29 q 54 122 57 99 q 50 154 53 138 q 36 177 49 163 q 24 196 24 192 q 36 229 24 200 q 50 267 49 258 q 61 346 61 313 q 122 501 63 407 q 218 650 144 536 q 250 726 225 676 q 322 824 303 800 q 417 894 375 886 q 408 897 415 897 q 399 922 410 914 q 385 929 392 925 q 371 953 381 953 q 365 951 368 953 q 361 950 363 950 l 356 957 q 367 972 356 953 q 347 997 347 969 l 333 1007 q 318 1057 328 1021 q 306 1067 317 1060 q 307 1092 307 1074 q 299 1101 299 1106 q 306 1127 299 1108 q 311 1158 313 1146 q 335 1179 319 1161 q 353 1188 343 1181 q 364 1194 364 1194 q 369 1191 367 1194 q 375 1188 371 1188 q 383 1200 383 1188 q 391 1195 386 1200 q 400 1190 396 1190 q 405 1194 403 1190 q 411 1197 407 1197 q 418 1191 414 1197 q 426 1185 422 1185 q 429 1186 429 1185 q 433 1188 429 1188 q 445 1176 436 1188 q 458 1165 454 1165 q 464 1167 461 1165 q 471 1169 467 1169 q 480 1158 474 1169 q 489 1147 486 1147 l 501 1150 q 504 1135 504 1146 q 526 1113 518 1138 q 536 1119 532 1119 q 543 1111 538 1119 q 557 1101 549 1103 q 560 1092 560 1100 q 565 1085 561 1085 q 567 1086 568 1085 q 571 1088 567 1088 q 583 1079 581 1088 q 600 1061 585 1064 q 621 1041 601 1057 q 638 1017 640 1025 q 650 999 643 1014 q 681 979 660 992 q 689 963 682 974 q 710 947 690 960 q 722 924 722 938 q 736 913 728 922 q 747 903 744 903 q 762 915 750 903 q 778 931 774 928 q 799 958 782 942 q 821 986 817 975 q 846 1000 829 992 q 851 1013 849 1001 q 857 1025 854 1025 q 862 1023 861 1025 q 865 1021 863 1021 l 865 1036 q 913 1069 881 1049 q 919 1083 917 1072 q 931 1093 921 1093 q 933 1092 933 1093 q 936 1090 932 1090 q 943 1108 943 1090 q 956 1117 949 1110 q 965 1125 963 1125 q 974 1119 969 1124 q 983 1139 976 1126 q 999 1156 989 1142 q 1004 1157 997 1157 q 1008 1155 1007 1157 q 1013 1153 1008 1153 q 1019 1164 1014 1153 q 1031 1175 1025 1175 q 1037 1174 1033 1175 q 1043 1172 1040 1172 q 1055 1183 1046 1172 q 1068 1194 1064 1194 q 1072 1192 1071 1194 q 1076 1190 1072 1190 q 1083 1197 1079 1190 q 1090 1204 1088 1204 q 1095 1201 1093 1204 q 1101 1197 1097 1197 q 1107 1202 1104 1197 q 1114 1207 1110 1207 q 1119 1201 1117 1207 q 1126 1194 1122 1194 q 1131 1197 1129 1194 q 1138 1200 1133 1200 q 1147 1189 1142 1199 q 1189 1164 1158 1186 l 1201 1108 q 1197 1101 1201 1104 q 1193 1094 1193 1099 q 1194 1074 1194 1086 q 1182 1064 1189 1072 q 1169 1032 1182 1057 q 1167 1017 1172 1024 q 1153 1010 1161 1010 l 1153 992 q 1135 975 1151 978 q 1143 960 1143 960 q 1115 935 1129 957 q 1092 911 1100 929 q 1071 892 1083 893 q 1199 790 1126 886 q 1283 644 1257 713 q 1394 468 1321 586 q 1433 363 1426 414 q 1449 262 1447 271 q 1464 224 1451 253 q 1476 190 1476 194 m 1168 1150 l 1167 1154 l 1160 1150 l 1160 1146 l 1168 1150 m 1176 1144 l 1174 1147 l 1164 1138 l 1167 1133 l 1176 1144 m 1182 1133 l 1182 1139 l 1168 1136 l 1168 1131 l 1182 1133 m 1140 1171 q 1129 1175 1136 1175 q 1133 1165 1129 1172 q 1140 1171 1136 1169 m 1186 1107 l 1179 1125 l 1175 1124 l 1182 1107 l 1186 1107 m 1115 1183 q 1110 1175 1110 1183 q 1103 1178 1107 1175 q 1099 1181 1100 1181 l 1099 1169 l 1108 1169 q 1115 1183 1110 1175 m 1176 1104 l 1174 1107 l 1167 1100 l 1169 1096 l 1176 1104 m 1176 1083 l 1176 1089 l 1168 1089 l 1168 1083 l 1176 1083 m 1176 1078 l 1163 1078 q 1174 1065 1163 1065 q 1176 1078 1174 1074 m 1072 1160 l 1072 1172 q 1067 1174 1071 1172 q 1063 1175 1064 1175 q 1072 1160 1063 1165 m 1168 1056 l 1168 1061 l 1151 1057 l 1151 1051 l 1168 1056 m 1061 1154 q 1060 1159 1061 1156 q 1058 1164 1058 1163 q 1054 1158 1058 1161 q 1061 1154 1057 1154 m 1157 1029 l 1157 1035 l 1140 1035 l 1140 1029 l 1157 1029 m 1153 1024 q 1138 1028 1142 1024 q 1144 1018 1138 1018 q 1150 1021 1149 1018 q 1153 1024 1151 1024 m 1046 1147 q 1029 1160 1035 1160 q 1025 1147 1029 1156 q 1021 1135 1021 1138 l 1031 1135 q 1046 1147 1043 1149 m 1140 1001 l 1131 1013 l 1128 1010 l 1138 999 l 1140 1001 m 1021 1129 q 1004 1136 1014 1136 q 1014 1122 1007 1131 l 1021 1129 m 1117 999 l 1113 1000 l 1108 992 l 1113 990 l 1117 999 m 1121 969 q 1108 975 1119 972 q 1113 963 1113 965 l 1121 969 m 1108 985 l 1104 988 l 1097 976 l 1101 974 l 1108 985 m 992 1107 q 990 1114 992 1110 q 989 1121 989 1118 q 976 1110 976 1121 q 978 1103 976 1106 q 979 1100 979 1100 q 992 1107 985 1107 m 1111 957 q 1103 968 1111 958 l 1096 960 q 1111 957 1100 957 m 1097 969 l 1093 972 l 1086 961 l 1090 958 l 1097 969 m 974 1093 l 968 1104 l 964 1101 l 971 1090 l 974 1093 m 1097 942 q 1089 950 1094 943 l 1085 938 q 1092 939 1088 936 q 1097 942 1096 942 m 1086 954 l 1082 957 l 1072 942 l 1076 939 l 1086 954 m 963 1086 q 949 1093 956 1093 q 946 1088 949 1092 q 943 1079 943 1085 q 950 1068 943 1076 q 963 1086 954 1074 m 1085 933 l 1081 933 l 1078 922 l 1082 921 l 1085 933 m 946 1063 l 940 1078 l 936 1076 l 942 1063 l 946 1063 m 1078 915 l 1071 915 q 1065 914 1067 914 q 1074 906 1065 906 q 1079 910 1078 906 q 1078 915 1081 915 m 1068 932 l 1065 935 l 1047 911 l 1051 908 l 1068 932 m 936 1060 q 929 1072 936 1064 q 926 1050 924 1057 q 936 1060 929 1051 m 1063 901 q 1043 892 1053 897 q 1053 883 1047 890 q 1063 901 1053 892 m 919 1042 q 910 1053 919 1053 q 913 1035 910 1038 l 919 1042 m 1342 524 q 1333 522 1343 522 q 1326 533 1331 522 l 1321 543 q 1329 547 1326 547 q 1333 540 1332 543 q 1329 532 1329 536 q 1331 531 1331 532 q 1335 529 1331 529 q 1336 533 1340 529 q 1342 524 1340 528 m 1036 865 l 1033 881 q 1024 865 1024 869 l 1036 865 m 1043 900 l 1040 903 l 1003 857 l 1006 854 l 1043 900 m 893 1015 l 890 1025 l 886 1024 l 889 1015 l 893 1015 m 1132 739 l 1132 743 l 1146 740 l 1146 735 l 1132 739 m 1356 488 l 1356 493 l 1368 489 l 1368 483 l 1356 488 m 1035 856 l 1019 865 l 1018 861 l 1033 851 l 1035 856 m 1213 642 l 1200 658 l 1204 661 l 1217 644 l 1213 642 m 1401 422 l 1399 431 l 1401 432 l 1406 422 l 1401 422 m 889 1011 q 883 1021 883 1017 q 872 1013 872 1021 q 874 1006 872 1007 q 876 1003 876 1004 q 889 1011 883 1003 m 1143 704 l 1143 708 l 1154 708 l 1154 704 l 1143 704 m 1375 450 l 1367 453 l 1367 458 l 1376 454 l 1375 450 m 1133 711 l 1129 721 l 1125 719 l 1129 711 l 1133 711 m 1018 846 l 1008 853 l 1006 849 l 1015 842 l 1018 846 m 1181 658 q 1172 674 1181 663 l 1172 661 q 1167 669 1167 667 q 1169 651 1167 663 q 1181 658 1178 661 m 1163 672 l 1156 681 l 1153 676 l 1160 669 l 1163 672 m 1279 613 q 1135 850 1279 701 q 1106 869 1129 856 q 1078 883 1083 883 l 1065 883 q 1046 861 1065 876 q 1038 844 1047 851 q 1024 832 1025 833 l 1024 824 q 1063 831 1054 831 q 1169 743 1106 831 q 1229 613 1229 658 q 1228 594 1229 597 q 1210 549 1225 586 q 1196 510 1196 511 q 1209 492 1196 504 q 1228 479 1222 479 q 1256 538 1233 479 q 1279 613 1279 597 m 874 996 l 861 1010 l 858 1007 l 871 993 l 874 996 m 1419 382 q 1368 474 1406 463 l 1372 479 l 1379 472 q 1303 594 1353 515 l 1306 589 q 1306 582 1307 585 q 1299 589 1300 589 l 1296 593 q 1299 598 1296 597 q 1300 600 1301 599 q 1286 624 1294 608 q 1284 612 1286 619 q 1282 600 1282 604 q 1308 554 1282 593 q 1342 511 1335 515 l 1349 504 q 1343 515 1349 510 l 1347 519 q 1363 496 1353 511 q 1356 497 1360 494 q 1349 500 1351 500 l 1342 507 q 1354 467 1354 476 q 1326 422 1354 446 q 1282 389 1304 406 q 1299 379 1288 386 q 1279 344 1279 350 l 1279 335 q 1293 325 1285 332 q 1290 331 1290 328 q 1299 335 1290 335 q 1306 332 1306 335 q 1310 321 1306 325 q 1301 315 1306 315 q 1289 318 1297 315 q 1276 321 1281 321 q 1278 329 1276 325 l 1278 335 q 1271 319 1271 326 q 1363 296 1322 304 q 1343 308 1360 296 q 1344 306 1344 307 q 1342 300 1344 303 l 1333 310 q 1328 306 1331 306 q 1324 308 1325 306 q 1329 310 1326 311 q 1328 317 1328 313 q 1329 322 1328 319 q 1338 317 1333 322 q 1335 310 1338 314 q 1338 313 1336 310 q 1344 315 1340 315 q 1350 313 1349 315 q 1354 310 1351 310 q 1365 321 1357 311 q 1358 318 1363 318 q 1347 344 1347 318 q 1342 332 1346 339 l 1338 336 q 1350 350 1343 349 q 1356 338 1350 338 q 1376 339 1374 338 q 1351 365 1351 338 l 1351 375 q 1343 374 1346 371 q 1350 382 1346 376 q 1357 375 1361 375 q 1365 385 1357 379 l 1363 372 q 1376 379 1369 379 q 1385 376 1381 379 q 1374 386 1381 379 q 1382 397 1382 394 q 1371 388 1378 397 l 1368 399 q 1381 403 1374 400 q 1403 360 1390 393 q 1410 397 1410 388 l 1396 389 q 1399 393 1399 392 q 1391 397 1399 397 q 1388 401 1383 397 q 1400 394 1393 403 l 1408 403 q 1419 382 1417 396 m 1199 613 l 1199 618 l 1210 618 l 1210 613 l 1199 613 m 1153 668 l 1118 721 l 1114 718 l 1149 665 l 1153 668 m 1206 619 q 1182 651 1190 639 q 1181 650 1181 651 q 1182 644 1181 647 q 1178 657 1178 651 q 1171 649 1171 651 q 1174 644 1171 646 l 1174 624 q 1167 626 1169 626 q 1168 608 1168 625 q 1158 607 1163 608 q 1154 603 1154 606 q 1157 600 1154 601 l 1151 606 q 1164 618 1158 614 l 1165 618 q 1147 619 1163 619 q 1142 618 1143 619 q 1144 614 1142 617 q 1143 613 1147 614 q 1138 611 1139 611 l 1146 624 l 1161 624 l 1165 628 q 1156 626 1167 626 q 1094 717 1143 626 l 1097 714 l 1107 724 q 1113 721 1111 724 q 1117 736 1117 729 q 1124 721 1117 721 q 1135 722 1132 721 q 1133 729 1133 726 q 1140 708 1138 715 q 1143 717 1143 711 q 1140 729 1143 722 q 1154 703 1154 715 q 1156 699 1153 701 q 1168 710 1165 706 q 1158 722 1168 711 q 1168 719 1163 717 q 1163 732 1168 725 q 1176 713 1175 715 q 1163 692 1164 700 q 1176 704 1172 700 q 1174 697 1174 701 q 1169 692 1174 692 q 1164 686 1164 692 l 1158 692 q 1151 682 1153 686 q 1178 681 1168 681 q 1171 678 1178 679 q 1190 657 1185 661 q 1197 679 1190 665 q 1200 672 1197 678 q 1203 664 1203 665 q 1194 671 1203 668 q 1199 656 1194 665 q 1188 650 1192 656 q 1210 644 1201 644 q 1211 636 1210 642 q 1213 628 1213 631 l 1206 619 m 1164 642 q 1161 667 1160 654 l 1154 660 q 1164 642 1154 653 m 1188 610 l 1183 619 l 1188 619 l 1192 613 l 1188 610 m 1004 832 q 996 836 1000 836 q 990 832 993 836 q 997 821 990 829 q 1004 832 997 825 m 1349 467 q 1281 592 1349 478 q 1278 590 1281 590 q 1276 583 1276 589 q 1299 546 1276 581 q 1338 472 1338 485 l 1338 463 q 1271 413 1282 413 q 1251 435 1263 413 q 1232 463 1239 457 l 1232 451 q 1276 394 1264 394 q 1318 424 1288 394 q 1349 467 1349 453 m 1419 376 l 1415 379 l 1396 339 l 1399 338 l 1419 376 m 861 990 q 844 976 849 982 q 853 971 847 972 l 861 990 m 988 808 l 974 815 l 972 811 l 986 804 l 988 808 m 1418 318 l 1418 324 l 1406 319 l 1406 314 l 1418 318 m 1390 357 q 1378 342 1383 342 q 1385 338 1381 342 q 1390 357 1390 350 m 1132 772 q 1063 824 1076 824 q 1014 808 1044 824 q 976 779 983 792 q 946 733 968 767 q 932 731 940 733 q 913 713 928 718 q 935 676 921 701 q 1125 758 1043 719 q 1132 772 1132 764 m 842 963 l 826 971 l 829 950 q 842 963 832 963 m 978 800 l 972 808 q 965 804 969 808 q 978 800 968 800 m 1396 336 q 1389 342 1389 336 q 1382 332 1388 339 q 1389 335 1385 332 l 1381 315 q 1396 336 1386 324 m 1076 696 q 1069 711 1069 703 q 1043 681 1065 706 q 1069 699 1065 699 q 1076 696 1075 699 m 971 796 l 963 800 l 961 796 l 969 792 l 971 796 m 1110 646 q 1085 682 1100 660 q 1060 656 1085 675 l 1067 649 q 1065 653 1067 650 q 1064 658 1064 656 l 1069 656 q 1088 671 1079 667 q 1099 656 1092 665 q 1079 639 1086 647 q 1099 649 1094 649 q 1105 647 1101 649 q 1110 646 1108 646 m 1136 607 q 1125 599 1136 599 q 1113 615 1119 599 l 1119 624 q 1125 613 1119 618 q 1121 607 1121 617 q 1128 604 1124 604 q 1136 607 1131 604 m 828 943 q 822 956 822 951 q 817 950 818 956 q 818 943 815 946 l 828 943 m 1082 660 l 1079 661 l 1075 653 l 1079 651 l 1082 660 m 1433 251 l 1425 256 l 1425 260 l 1436 256 l 1433 251 m 1340 350 l 1336 358 l 1340 360 l 1344 350 l 1340 350 m 1169 568 q 1168 560 1169 565 q 1167 551 1167 554 q 1154 554 1164 554 l 1146 560 q 1149 558 1147 560 q 1154 557 1150 557 q 1169 568 1169 557 m 1169 532 l 1167 535 l 1176 546 l 1179 542 l 1169 532 m 819 935 q 807 953 810 946 l 807 940 q 819 935 811 935 m 960 803 l 957 806 l 922 771 l 925 767 l 960 803 m 1407 243 l 1404 246 l 1414 257 l 1417 254 l 1407 243 m 1360 306 l 1358 310 l 1353 307 l 1353 301 l 1360 306 m 1147 539 l 1140 532 q 1146 540 1140 535 q 1144 546 1144 543 q 1153 533 1144 543 l 1147 539 m 1232 471 q 1189 500 1219 472 q 1176 472 1176 476 q 1190 453 1176 465 q 1211 442 1204 442 q 1225 451 1222 442 q 1232 471 1231 469 m 1146 522 l 1146 526 l 1157 526 l 1157 522 l 1146 522 m 1408 219 q 1406 231 1408 225 q 1403 227 1404 229 q 1400 224 1401 225 q 1404 236 1403 231 q 1397 235 1403 238 q 1399 256 1396 253 q 1403 236 1399 249 q 1408 219 1408 224 m 801 917 l 792 932 l 789 928 l 797 914 l 801 917 m 943 761 l 933 768 l 931 764 l 940 757 l 943 761 m 1113 550 l 1108 553 l 1115 567 l 1119 565 l 1113 550 m 1179 513 q 1151 506 1157 506 q 1167 485 1158 497 q 1179 513 1168 488 m 1096 558 l 1096 564 l 1108 568 l 1108 563 l 1096 558 m 1126 532 l 1122 533 l 1126 542 l 1131 540 l 1126 532 m 1042 689 q 1035 700 1040 693 q 1040 704 1038 703 q 946 663 1007 690 q 958 651 950 661 q 969 669 958 669 q 975 668 975 669 q 974 672 974 671 q 976 674 974 674 l 1000 674 q 997 678 1000 675 q 997 683 996 681 l 1019 683 q 1015 690 1019 686 q 1031 696 1024 696 q 1042 689 1036 696 m 1010 658 l 1007 667 l 1003 665 l 1006 658 l 1010 658 m 790 904 l 783 915 l 781 913 l 786 901 l 790 904 m 1024 636 l 1021 646 l 1017 643 l 1019 636 l 1024 636 m 1035 618 l 1026 636 l 1022 633 l 1031 617 l 1035 618 m 785 897 l 781 906 l 778 904 l 781 897 l 785 897 m 1182 449 q 1138 489 1165 463 q 1144 488 1140 489 q 1149 486 1147 486 q 1146 490 1146 489 q 1149 492 1146 492 q 1168 468 1160 472 q 1115 517 1153 496 q 1122 497 1118 510 q 1119 503 1119 501 q 1125 507 1119 507 q 1143 496 1131 503 q 1129 492 1135 492 q 1124 493 1126 492 q 1182 449 1144 476 m 1051 590 l 1043 608 l 1039 606 l 1047 589 l 1051 590 m 1093 564 q 1081 551 1082 564 q 1065 547 1074 553 q 1063 557 1063 554 q 1065 556 1064 557 q 1071 554 1067 554 q 1083 569 1076 554 q 1093 564 1090 561 m 1082 543 l 1082 549 l 1089 549 l 1089 543 l 1082 543 m 1235 382 q 1225 388 1229 388 q 1217 383 1217 388 l 1217 393 q 1221 388 1217 388 q 1225 394 1225 388 l 1235 382 m 1083 528 l 1081 532 l 1099 546 l 1101 542 l 1083 528 m 985 656 l 982 664 l 978 663 l 981 656 l 985 656 m 990 646 l 988 654 l 983 653 l 986 646 l 990 646 m 917 731 q 907 742 917 742 q 899 726 899 732 q 910 729 903 726 l 917 731 m 1224 358 l 1224 364 l 1251 361 l 1251 356 l 1224 358 m 775 892 q 768 890 772 892 q 761 889 764 889 l 772 883 l 775 892 m 1021 597 l 999 636 l 994 633 l 1018 594 l 1021 597 m 910 749 l 907 753 l 883 729 l 886 725 l 910 749 m 1185 396 l 1185 401 l 1192 404 l 1193 400 l 1185 396 m 1104 517 l 1103 521 l 1076 504 l 1076 500 l 1104 517 m 1226 335 l 1222 342 l 1226 344 l 1231 335 l 1226 335 m 1126 440 l 1126 444 l 1133 449 l 1135 444 l 1126 440 m 1165 1115 q 1114 1163 1165 1163 q 746 839 1031 1163 q 464 496 585 654 q 560 432 553 432 q 731 585 571 432 q 900 750 850 699 q 1094 978 1010 863 q 1165 1115 1165 1075 m 694 931 l 694 946 q 681 928 690 939 q 688 929 683 928 q 694 931 692 931 m 1203 339 q 1199 349 1199 342 q 1210 365 1199 358 q 1201 343 1203 350 q 1214 339 1204 340 l 1203 339 m 643 1000 l 639 1003 l 628 990 l 629 986 l 643 1000 m 711 924 q 704 919 710 922 q 697 914 699 915 q 704 908 700 910 q 711 924 711 915 m 721 907 l 717 910 l 710 899 l 714 896 l 721 907 m 686 949 q 672 938 682 949 l 682 938 q 686 949 686 940 m 1393 146 q 1388 218 1393 179 q 1365 274 1379 274 q 1385 147 1385 181 q 1343 81 1385 81 l 1335 81 q 1329 82 1331 82 q 1346 74 1343 74 q 1393 146 1393 74 m 726 897 l 724 900 l 717 892 l 719 889 l 726 897 m 756 871 q 746 869 753 872 l 739 867 q 749 858 743 864 q 756 871 756 865 m 1100 490 q 1071 471 1082 479 q 1075 479 1075 474 q 1074 486 1075 482 l 1083 486 q 1090 493 1086 483 l 1093 493 q 1089 496 1092 496 q 1100 490 1088 496 m 675 965 l 665 965 l 658 957 q 671 943 667 956 l 675 965 m 628 1008 q 622 1012 626 1008 q 617 1015 618 1015 q 611 1004 617 1011 l 618 997 q 628 1008 628 997 m 615 1017 l 611 1018 l 607 1011 l 611 1008 l 615 1017 m 606 1021 l 604 1026 l 597 1022 l 597 1018 l 606 1021 m 578 1051 q 567 1065 571 1065 l 567 1044 q 578 1051 571 1044 m 592 1046 q 581 1035 581 1046 l 588 1028 q 592 1046 592 1036 m 924 663 l 919 664 l 917 656 l 921 654 l 924 663 m 1028 550 q 1013 543 1022 549 q 1019 542 1015 543 l 1025 542 q 1028 550 1025 546 m 565 1071 l 561 1072 l 554 1057 l 558 1056 l 565 1071 m 1157 396 q 1153 389 1153 392 q 1149 399 1153 392 q 1157 396 1154 399 m 558 1074 q 549 1088 551 1088 q 539 1075 539 1078 q 550 1063 551 1068 q 558 1074 556 1068 m 1035 533 l 1032 536 l 1028 528 l 1032 525 l 1035 533 m 538 1094 l 533 1097 l 526 1086 l 531 1083 l 538 1094 m 525 1106 q 511 1115 515 1115 q 510 1108 511 1113 q 508 1100 508 1103 q 521 1094 515 1100 q 523 1100 521 1096 q 525 1106 525 1104 m 739 860 q 728 864 735 864 q 730 858 728 863 q 732 853 732 854 l 739 860 m 874 711 l 871 715 l 858 704 l 861 700 l 874 711 m 506 1117 l 497 1125 q 496 1110 497 1106 q 506 1117 500 1111 m 1206 318 l 1199 322 l 1200 326 l 1207 322 l 1206 318 m 1154 368 l 1150 371 l 1154 379 l 1158 376 l 1154 368 m 497 1131 q 481 1124 490 1129 l 488 1115 q 492 1123 489 1117 q 497 1131 496 1129 m 1443 182 q 1433 313 1442 201 l 1433 293 l 1428 293 q 1431 289 1429 292 l 1428 282 q 1431 290 1428 288 q 1433 265 1436 274 q 1422 281 1431 272 l 1422 272 l 1418 276 q 1421 289 1418 281 q 1424 300 1424 297 l 1417 293 q 1397 310 1408 299 q 1388 299 1396 307 q 1406 297 1390 297 l 1413 289 q 1406 293 1411 286 q 1415 279 1410 289 l 1411 258 q 1404 261 1408 258 l 1404 263 l 1403 263 q 1401 267 1401 263 q 1404 278 1401 274 q 1403 274 1403 276 q 1403 268 1404 269 q 1396 274 1400 269 l 1396 282 l 1404 282 q 1397 293 1404 286 q 1389 281 1394 286 q 1382 286 1385 286 q 1418 347 1394 307 l 1376 290 q 1383 277 1376 288 q 1389 263 1389 267 q 1392 265 1389 265 q 1404 142 1404 172 q 1347 68 1404 68 q 1271 107 1332 68 q 1275 96 1275 104 q 1268 106 1268 104 l 1261 99 q 1268 110 1257 110 q 1242 128 1246 126 q 1218 107 1238 128 l 1219 107 q 1225 108 1221 108 q 1233 101 1229 108 q 1240 93 1238 94 q 1229 110 1236 99 l 1233 115 q 1271 68 1247 68 q 1274 69 1275 68 q 1276 71 1274 71 q 1296 51 1285 71 q 1279 61 1271 61 q 1356 -7 1349 -7 l 1374 -7 q 1375 3 1374 -3 q 1376 14 1376 10 l 1372 25 q 1424 86 1390 47 q 1393 56 1406 71 q 1399 73 1390 63 q 1415 85 1407 83 q 1411 88 1411 85 q 1413 90 1411 89 l 1424 90 q 1417 103 1424 94 q 1418 93 1417 92 q 1407 131 1407 140 q 1410 138 1407 135 l 1411 140 q 1410 146 1408 142 q 1426 154 1421 146 q 1425 163 1422 158 q 1438 144 1438 149 q 1436 133 1438 135 q 1426 136 1433 133 l 1426 144 q 1432 153 1432 150 q 1411 129 1426 144 l 1411 117 q 1414 124 1411 119 q 1432 111 1421 121 q 1418 107 1428 108 q 1435 99 1428 107 q 1443 182 1443 147 m 481 1129 q 468 1153 475 1144 q 456 1142 463 1149 q 469 1129 463 1138 l 481 1129 m 1374 143 q 1356 260 1374 179 l 1260 147 q 1303 114 1264 144 q 1342 93 1329 93 q 1365 113 1356 93 q 1374 143 1374 128 m 444 1160 l 440 1160 l 439 1147 l 443 1147 l 444 1160 m 1194 294 l 1192 308 l 1196 308 l 1200 294 l 1194 294 m 1182 313 l 1178 314 l 1182 322 l 1186 321 l 1182 313 m 439 1168 q 433 1167 438 1168 q 428 1165 429 1165 l 428 1153 q 439 1168 433 1160 m 864 688 q 847 678 857 689 q 853 676 849 678 q 858 674 857 674 q 864 688 858 681 m 1156 335 q 1149 339 1151 339 l 1156 347 l 1156 335 m 1199 276 l 1199 282 l 1206 285 l 1207 281 l 1199 276 m 721 826 l 715 836 q 712 831 715 835 q 708 824 708 826 l 721 826 m 1196 283 l 1183 297 l 1186 300 l 1199 286 l 1196 283 m 421 1157 l 421 1172 l 414 1172 l 414 1160 q 421 1157 417 1160 m 1357 281 l 1344 281 q 1333 272 1340 278 q 1332 276 1331 275 q 1343 282 1338 282 q 1264 306 1317 292 q 1250 269 1253 281 q 1251 260 1251 267 q 1260 261 1261 260 l 1243 249 q 1242 260 1242 247 q 1200 156 1222 224 q 1200 160 1199 157 q 1197 163 1201 163 q 1186 143 1193 163 q 1179 117 1179 124 q 1194 103 1179 103 q 1224 126 1204 103 q 1219 133 1221 129 q 1217 127 1218 132 q 1214 121 1215 122 q 1213 129 1214 125 q 1224 143 1218 143 q 1227 142 1228 143 q 1229 140 1226 140 q 1238 151 1238 140 q 1221 151 1231 150 q 1236 158 1235 158 q 1243 157 1239 158 q 1249 156 1247 156 q 1257 178 1250 161 q 1235 163 1243 163 q 1219 171 1228 163 q 1226 161 1221 168 q 1214 154 1221 160 q 1217 150 1215 153 q 1214 146 1215 147 q 1204 160 1211 151 q 1211 156 1211 164 q 1213 164 1213 160 q 1208 176 1213 171 q 1232 211 1218 190 q 1230 210 1231 211 q 1225 208 1229 208 q 1221 210 1221 208 q 1224 214 1221 211 q 1236 238 1226 222 q 1239 215 1236 228 l 1247 225 q 1256 210 1249 219 q 1263 199 1263 200 q 1258 167 1263 196 q 1242 147 1247 150 q 1265 175 1265 160 q 1263 181 1265 179 q 1263 185 1261 183 q 1275 181 1269 189 l 1282 189 q 1275 200 1274 197 q 1283 190 1283 200 q 1286 201 1286 197 q 1283 208 1286 206 q 1278 206 1282 206 q 1274 215 1274 206 q 1284 213 1278 217 q 1290 204 1290 208 q 1289 197 1290 197 q 1319 232 1300 210 l 1317 239 q 1319 243 1318 242 q 1319 239 1321 242 q 1322 238 1318 238 q 1357 281 1328 238 m 849 686 l 846 690 l 833 679 l 836 675 l 849 686 m 851 674 l 843 678 l 842 674 l 849 669 l 851 674 m 401 1163 l 401 1175 l 400 1172 q 394 1169 399 1169 q 390 1181 390 1169 q 389 1171 390 1176 l 389 1163 l 401 1163 m 1064 415 l 1064 421 l 1046 421 l 1046 415 l 1064 415 m 708 808 q 704 818 708 815 q 689 810 699 815 q 700 807 696 807 q 708 808 704 807 m 1268 365 q 1213 406 1239 386 q 1217 397 1218 400 q 1200 410 1204 410 q 1196 406 1196 410 q 1188 421 1196 417 q 1196 419 1190 422 l 1201 417 q 1151 456 1181 436 q 1168 436 1167 439 q 1167 432 1168 429 l 1150 450 q 1144 447 1146 450 q 1139 444 1142 444 q 1135 447 1135 444 l 1135 451 q 1151 458 1140 451 q 1115 485 1131 475 l 1146 458 q 1138 460 1143 457 q 1132 463 1133 463 q 1125 457 1129 461 q 1122 475 1125 465 q 1121 461 1122 471 l 1121 447 q 1113 456 1118 449 q 1118 471 1114 463 q 1107 467 1108 471 q 1103 450 1104 453 q 1093 456 1099 451 q 1113 479 1099 465 q 968 381 1064 447 q 969 360 968 365 q 985 347 974 350 q 971 376 974 358 q 1001 400 999 399 q 1008 397 1006 400 q 1022 417 1010 417 q 1025 414 1025 417 q 1024 410 1025 413 l 1031 417 q 1033 424 1032 418 q 1039 429 1035 429 q 1063 428 1058 429 q 1076 419 1075 419 q 1088 428 1081 421 q 1079 429 1079 428 q 1093 428 1083 432 l 1093 425 q 1079 418 1083 418 q 1079 392 1081 413 q 1083 397 1081 393 q 1086 403 1085 401 q 1092 397 1090 397 q 1101 413 1092 410 q 1093 401 1100 410 l 1097 401 q 1106 400 1101 400 q 1106 403 1108 400 q 1108 407 1104 407 q 1128 392 1110 404 q 1132 368 1126 382 l 1128 363 l 1114 397 q 1076 389 1104 394 q 1042 365 1063 365 q 1033 370 1038 365 q 1025 375 1028 375 q 1015 367 1022 375 l 1018 368 q 1024 369 1019 369 q 1040 358 1031 369 q 1038 350 1038 356 q 1046 363 1040 356 l 1046 335 q 1040 335 1043 336 q 1035 332 1036 332 q 1032 333 1031 332 l 1032 339 q 1035 340 1033 340 q 1039 338 1038 340 q 1032 350 1039 343 q 1031 344 1032 347 l 1025 349 q 1028 333 1031 342 l 1025 328 q 1018 331 1022 331 q 1019 322 1022 325 q 1011 329 1015 325 l 1007 332 q 1010 336 1011 336 q 985 346 1001 338 l 1164 203 l 1171 203 q 1189 183 1176 194 q 1208 233 1196 201 q 1197 213 1204 226 l 1190 219 l 1196 219 q 1232 283 1232 256 q 1211 297 1208 297 q 1204 301 1208 297 q 1211 310 1206 304 q 1221 300 1219 300 q 1217 319 1214 314 l 1224 315 l 1233 325 q 1218 311 1229 311 q 1233 296 1232 296 q 1239 307 1233 307 q 1242 300 1242 303 q 1268 365 1260 338 m 826 664 l 824 668 l 818 664 l 818 660 l 826 664 m 831 653 l 831 658 l 821 658 l 821 653 l 831 653 m 1057 404 l 1054 407 l 1044 397 l 1047 393 l 1057 404 m 1215 254 q 1183 221 1196 221 q 1163 240 1179 221 q 1144 260 1147 260 q 1142 257 1140 260 q 1142 253 1144 253 q 1135 259 1139 253 q 1128 265 1131 265 q 1119 261 1124 265 q 1124 275 1124 267 q 1143 261 1138 265 q 1113 289 1117 290 q 1121 281 1118 282 l 1108 253 l 1108 263 l 1110 269 q 1103 288 1110 272 q 1097 272 1097 282 q 1089 278 1097 275 q 1088 268 1089 265 l 1088 274 q 1089 268 1088 269 q 1092 276 1093 268 q 1090 288 1089 285 q 1092 281 1089 285 q 1101 289 1094 281 q 1088 304 1097 300 l 1094 313 q 1099 304 1094 308 q 1103 299 1104 300 q 1103 293 1101 294 q 1110 318 1110 308 q 1115 317 1111 318 q 1122 315 1119 315 q 1125 319 1125 315 q 1135 326 1125 317 q 1125 333 1129 333 l 1132 333 q 1121 346 1125 343 q 1136 343 1126 342 q 1139 338 1139 340 q 1135 329 1139 333 l 1136 326 q 1140 322 1136 322 q 1143 325 1143 322 l 1143 325 q 1147 328 1143 328 q 1167 313 1153 328 q 1168 319 1168 317 q 1165 325 1168 322 q 1179 303 1175 310 q 1178 306 1181 303 q 1174 304 1176 307 q 1215 254 1200 272 m 1108 346 q 1093 340 1100 340 q 1074 358 1074 340 l 1074 365 q 1075 369 1075 368 q 1071 351 1071 357 q 1088 335 1071 335 q 1108 346 1092 336 m 1038 493 q 882 682 946 607 q 859 653 882 669 q 824 640 836 638 q 799 608 824 624 q 772 575 793 594 q 942 425 938 425 q 1038 493 951 425 m 1057 361 l 1057 367 l 1064 369 l 1065 365 l 1057 361 m 719 872 q 565 1036 668 928 q 388 1157 447 1157 q 336 1110 336 1157 q 394 992 336 1081 q 464 897 447 911 q 531 864 489 888 q 643 771 571 833 q 660 790 644 779 q 660 800 661 796 q 676 811 663 804 q 675 825 676 817 q 704 857 704 846 q 719 872 708 860 m 815 635 l 808 643 l 806 639 l 813 632 l 815 635 m 683 781 q 674 788 678 788 q 675 778 675 786 q 683 781 679 778 m 1053 354 l 1050 361 l 1054 363 l 1057 354 l 1053 354 m 807 646 l 804 650 l 792 639 l 794 635 l 807 646 m 676 772 l 669 781 l 667 778 l 672 769 l 676 772 m 806 622 l 806 626 l 793 631 l 793 625 l 806 622 m 1014 385 l 1008 378 q 1004 394 1008 385 q 1001 389 1004 393 q 999 381 999 385 q 1001 372 999 375 l 1004 369 q 1014 385 1014 390 m 1163 211 q 1118 244 1135 231 q 1124 249 1124 246 q 1138 238 1138 247 q 1136 235 1138 236 q 1144 225 1138 235 q 1156 215 1151 215 q 1160 213 1160 215 q 1163 211 1161 211 m 336 1131 l 326 1142 l 324 1139 l 333 1128 l 336 1131 m 993 376 l 990 385 l 986 383 l 989 376 l 993 376 m 333 1125 l 319 1132 l 318 1128 l 332 1121 l 333 1125 m 968 397 l 964 399 l 967 410 l 971 410 l 968 397 m 1081 276 l 1065 283 l 1065 289 l 1082 282 l 1081 276 m 657 751 l 646 760 l 644 754 l 654 747 l 657 751 m 996 371 q 989 378 989 371 q 982 375 986 378 l 978 371 q 983 367 979 371 q 986 372 983 372 q 996 371 996 372 m 333 1114 l 329 1115 l 326 1108 l 331 1106 l 333 1114 m 333 1092 l 331 1100 l 326 1099 l 329 1092 l 333 1092 m 1157 196 l 974 340 l 974 331 q 1038 272 974 322 l 1153 181 q 1155 188 1153 182 q 1157 196 1157 194 m 332 1076 l 332 1082 l 325 1082 l 325 1076 l 332 1076 m 876 465 l 874 471 l 868 467 l 868 463 l 876 465 m 638 729 l 631 736 l 628 733 l 633 726 l 638 729 m 863 479 l 860 483 l 850 476 l 853 471 l 863 479 m 342 1068 l 328 1069 l 328 1060 q 342 1068 335 1060 m 843 496 l 840 499 l 833 490 l 836 488 l 843 496 m 761 581 l 761 586 l 749 586 l 749 581 l 761 581 m 349 1046 l 349 1051 l 333 1054 l 333 1049 l 349 1046 m 819 515 l 819 521 l 807 517 l 807 513 l 819 515 m 794 540 q 789 550 789 547 l 778 550 q 788 532 785 536 l 794 540 m 956 338 q 961 350 961 343 q 951 369 961 358 l 951 354 q 957 342 957 346 q 956 338 957 339 m 392 985 l 389 993 l 385 992 l 388 985 l 392 985 m 361 1026 q 349 1031 358 1029 q 344 1022 346 1031 q 361 1026 351 1022 m 403 971 l 397 982 l 393 979 l 400 968 l 403 971 m 414 954 l 408 965 l 404 963 l 411 951 l 414 954 m 363 1021 q 349 1017 354 1017 l 351 1015 q 357 1013 353 1013 q 363 1021 363 1013 m 431 932 l 419 950 l 415 947 l 428 929 l 431 932 m 453 904 l 436 928 l 432 925 l 450 901 l 453 904 m 389 978 l 388 982 l 381 978 l 381 974 l 389 978 m 406 953 l 399 963 q 390 951 389 951 q 399 953 393 951 l 406 953 m 393 963 q 390 975 393 968 l 381 963 l 388 956 q 393 963 388 963 m 413 928 q 415 935 415 931 q 413 943 415 939 q 404 935 406 935 q 408 931 406 935 q 413 928 411 928 m 422 915 l 422 926 l 418 926 l 418 915 l 422 915 m 942 325 q 936 375 936 357 q 917 360 925 364 q 897 386 908 368 q 914 403 904 392 q 865 428 888 400 q 942 325 878 393 m 600 721 q 594 732 594 728 l 583 732 q 600 721 590 721 m 581 740 l 571 751 q 564 740 564 744 l 581 740 m 436 908 l 419 908 q 428 899 419 899 l 436 908 m 722 553 q 706 546 715 557 l 713 539 q 722 553 722 560 m 578 653 l 578 658 l 561 663 l 561 657 l 578 653 m 694 525 q 681 524 682 525 q 692 517 688 517 q 694 525 693 519 m 581 703 q 568 725 581 707 q 553 729 563 725 q 517 778 547 749 l 471 822 q 439 831 449 831 q 399 808 424 831 q 369 771 374 786 q 565 683 486 714 q 581 703 567 688 m 556 672 q 464 710 525 685 q 467 706 467 710 q 458 696 458 697 q 471 701 464 701 q 486 697 481 701 q 481 689 481 692 q 493 689 486 692 q 506 686 503 686 l 500 681 q 505 682 501 681 q 511 683 508 683 q 543 658 540 683 l 556 672 m 524 669 l 519 671 l 515 663 l 519 660 l 524 669 m 669 497 l 657 506 l 656 500 l 668 493 l 669 497 m 497 672 l 494 674 l 490 665 l 494 664 l 497 672 m 542 617 l 525 624 l 525 619 l 540 613 l 542 617 m 493 661 l 489 664 l 482 654 l 486 650 l 493 661 m 456 692 l 446 700 q 435 717 435 707 q 425 703 431 711 l 426 704 l 432 704 q 456 692 435 704 m 507 640 l 503 643 l 479 603 l 483 600 l 507 640 m 639 760 q 442 890 525 890 q 300 787 379 890 q 221 618 221 683 q 272 485 258 485 q 292 497 279 485 q 304 517 304 510 q 271 618 271 611 q 329 744 271 660 q 439 836 392 836 q 547 783 481 836 q 601 729 613 729 q 622 742 614 729 q 639 760 629 756 m 522 593 q 506 600 510 600 q 518 585 507 599 q 522 593 521 589 m 356 742 l 356 747 l 368 747 l 368 742 l 356 742 m 467 622 l 464 624 l 460 615 l 464 614 l 467 622 m 425 658 l 422 667 l 418 665 l 421 658 l 425 658 m 442 667 q 415 689 422 667 q 392 653 406 669 l 396 653 q 403 654 399 654 q 421 646 408 654 q 403 663 411 658 q 414 676 406 668 q 433 654 424 671 q 442 667 438 658 m 433 653 l 431 654 l 426 647 l 431 644 l 433 653 m 481 600 l 478 601 l 474 593 l 478 592 l 481 600 m 503 565 q 496 578 501 567 q 486 575 494 579 q 492 561 492 568 q 503 565 499 561 m 428 643 l 424 646 l 421 638 l 425 635 l 428 643 m 606 439 q 596 450 604 442 q 583 435 583 436 q 594 437 588 435 q 606 439 601 439 m 363 708 q 356 703 360 704 q 360 696 357 700 q 363 708 360 711 m 489 551 l 472 558 l 472 554 l 488 547 l 489 551 m 349 690 q 346 694 349 692 q 343 699 343 697 l 336 690 l 349 690 m 475 532 l 465 539 l 463 535 l 472 528 l 475 532 m 406 610 q 400 596 400 603 q 401 589 400 593 q 392 596 396 594 q 400 613 399 613 l 406 610 m 389 621 q 376 604 378 604 q 364 614 368 604 q 378 611 372 611 q 382 629 381 624 l 389 621 m 469 524 q 447 532 461 532 q 460 517 453 525 q 469 524 460 524 m 346 667 l 340 674 q 333 668 335 667 q 336 674 335 671 q 333 679 336 676 q 329 667 333 672 l 329 679 q 319 664 319 669 q 331 657 322 667 l 340 667 q 342 660 339 665 q 336 649 336 654 q 347 665 347 661 q 346 667 347 667 m 544 408 q 543 415 538 415 q 546 406 546 411 q 543 394 546 400 q 519 414 538 401 q 522 415 521 415 q 526 413 524 415 l 531 418 q 525 426 531 426 q 540 407 539 415 q 544 408 542 406 m 361 578 l 358 582 l 378 601 l 381 599 l 361 578 m 417 535 l 401 549 l 404 551 l 419 539 l 417 535 m 496 435 l 496 447 l 500 447 l 500 435 l 496 435 m 374 551 q 371 557 371 554 q 375 565 371 561 q 368 571 369 569 q 383 563 376 565 l 374 551 m 289 644 l 285 647 l 293 667 l 297 667 l 289 644 m 425 511 l 399 526 l 396 522 l 424 506 l 425 511 m 374 539 l 371 546 l 375 549 l 378 539 l 374 539 m 339 578 l 326 589 l 329 593 l 342 582 l 339 578 m 350 564 q 333 557 342 564 q 335 575 333 569 q 335 569 333 572 q 338 565 338 567 q 343 563 339 563 q 350 564 346 563 m 285 621 l 282 631 l 286 633 l 289 621 l 285 621 m 351 543 l 357 550 q 354 546 356 547 q 360 543 356 543 l 351 543 m 346 549 l 343 556 l 347 557 l 350 549 l 346 549 m 417 467 l 407 474 l 404 469 l 414 463 l 417 467 m 454 421 l 454 426 l 436 426 l 436 421 l 454 421 m 344 528 l 344 533 l 354 533 l 354 528 l 344 528 m 503 350 l 500 360 l 496 358 l 500 350 l 503 350 m 300 574 q 297 572 300 572 q 293 574 296 572 q 299 561 297 565 q 293 572 293 567 q 294 576 293 574 q 293 574 293 575 q 294 569 293 571 l 300 574 m 333 528 q 306 542 325 533 l 306 526 q 333 528 310 528 m 486 342 l 478 350 q 475 342 478 347 l 486 342 m 414 450 q 415 443 408 450 q 408 447 411 447 q 393 435 393 447 q 381 417 385 432 q 378 432 382 425 l 369 424 q 390 454 383 443 q 386 446 386 450 q 393 442 390 442 q 397 444 396 442 q 403 447 399 447 q 403 450 406 447 q 404 454 400 454 l 413 454 q 421 444 419 449 l 414 450 m 443 368 l 436 372 l 438 376 l 444 372 l 443 368 m 475 328 q 451 308 460 314 q 458 314 456 311 q 458 318 460 315 q 446 319 457 319 q 443 308 443 313 q 438 318 444 310 l 431 311 q 432 310 431 310 q 436 311 435 310 q 444 297 432 311 q 426 293 431 297 l 421 300 q 428 310 422 303 q 413 300 417 304 q 431 328 433 322 q 438 325 431 325 q 438 329 440 325 q 440 332 436 332 q 446 329 444 332 l 447 325 q 450 331 450 326 q 447 342 450 335 q 443 344 444 340 q 431 332 433 336 q 443 350 431 338 q 463 315 446 336 l 475 328 m 338 417 q 324 400 325 413 q 319 404 328 404 q 331 425 331 417 l 338 417 m 361 361 l 361 367 l 368 369 l 369 365 l 361 361 m 346 376 l 343 383 l 347 385 l 350 376 l 346 376 m 528 336 l 528 347 q 344 203 465 297 q 346 194 344 200 q 347 188 347 189 q 528 336 519 328 m 329 375 l 331 379 l 340 375 l 340 371 l 329 375 m 268 458 l 268 469 q 251 442 265 464 q 229 419 236 419 q 190 444 218 419 q 163 479 163 468 q 169 499 163 486 q 224 590 224 593 q 219 599 224 597 q 151 472 151 490 q 158 451 151 458 q 224 400 208 400 q 249 426 229 400 q 268 458 268 451 m 328 358 l 321 363 l 322 367 l 331 363 l 328 358 m 160 528 l 156 531 l 163 542 l 167 539 l 160 528 m 326 329 l 326 340 l 331 340 l 331 329 l 326 329 m 268 388 l 265 390 l 275 401 l 278 399 l 268 388 m 240 390 l 238 393 l 256 414 l 258 411 l 240 390 m 378 301 q 350 325 369 310 l 293 261 q 318 238 308 238 q 378 301 328 247 m 139 490 l 138 494 l 146 499 l 146 494 l 139 490 m 211 396 q 207 399 210 397 q 206 393 206 397 q 204 401 206 400 q 211 396 210 397 m 346 238 q 340 240 342 238 q 333 235 336 236 q 346 250 344 247 l 346 238 m 175 406 l 175 411 l 190 414 l 190 408 l 175 406 m 125 456 l 125 461 l 133 464 l 135 460 l 125 456 m 294 279 q 288 278 292 275 q 286 274 286 276 q 288 269 286 272 q 285 268 286 268 q 275 281 281 268 q 281 272 274 281 q 283 281 283 274 q 294 279 294 281 m 139 424 l 132 428 l 133 433 l 140 429 l 139 424 m 99 428 l 94 431 l 99 438 l 103 436 l 99 428 m 178 336 l 171 340 l 172 344 l 179 340 l 178 336 m 243 278 q 242 288 242 281 q 235 290 240 290 q 235 268 233 279 q 224 288 231 283 q 222 283 222 286 q 225 276 222 281 q 222 278 224 278 q 217 275 219 278 q 219 281 218 278 q 217 285 218 283 q 207 269 208 274 q 213 265 211 265 q 219 269 215 265 q 208 256 213 261 l 210 282 q 203 288 206 286 q 200 283 200 288 q 196 278 200 278 q 188 282 188 278 q 182 292 189 286 q 194 281 192 285 q 200 290 201 290 q 200 293 203 290 q 196 294 199 294 q 213 303 208 301 q 218 300 217 303 q 222 297 219 297 q 228 299 225 297 q 232 300 231 300 q 226 289 232 294 l 231 285 q 240 297 236 292 q 243 278 243 290 m 124 329 q 111 350 119 336 q 104 343 111 343 q 121 326 113 326 l 111 339 l 124 329 m 82 354 q 78 360 82 356 q 75 367 75 365 q 74 353 75 363 q 72 340 72 344 q 82 354 71 346 m 240 154 q 144 265 213 188 q 126 149 126 186 q 136 117 126 135 q 158 99 146 99 q 240 154 169 99 m 282 113 q 258 133 261 133 q 232 117 256 133 q 246 104 238 111 q 233 111 243 101 q 210 89 225 104 q 232 114 215 103 q 153 74 169 74 q 96 147 96 74 q 108 272 96 176 q 111 265 111 269 q 117 282 111 271 q 124 297 124 293 q 106 322 121 303 q 118 297 118 292 q 111 288 117 294 q 108 300 111 292 q 106 293 108 293 q 97 294 103 293 q 88 296 90 296 q 99 303 93 303 q 106 300 103 303 q 106 307 107 303 q 103 314 103 311 q 98 309 103 311 q 89 303 93 307 l 85 308 q 89 318 86 311 q 81 313 86 318 q 75 328 79 319 q 72 322 75 325 q 69 336 71 324 l 69 319 q 85 301 74 314 q 78 306 83 300 q 81 293 78 304 q 78 278 82 286 q 76 283 76 279 q 75 288 76 288 q 67 272 74 281 q 65 279 65 274 l 68 285 q 57 226 57 268 l 57 163 q 74 147 65 161 q 65 139 69 140 q 63 148 65 142 q 61 157 61 154 q 67 106 61 138 q 72 111 67 111 q 78 108 79 111 l 88 121 q 78 115 85 119 q 68 117 69 115 q 81 133 78 128 q 89 122 89 115 q 71 164 89 131 l 81 175 l 85 169 q 81 158 85 164 q 82 167 78 163 q 74 160 79 167 q 78 153 76 157 l 93 153 l 93 124 q 86 103 90 122 q 86 107 85 104 q 83 108 88 108 q 76 97 76 108 q 90 94 82 97 q 86 92 88 92 q 92 82 88 90 q 100 74 97 74 q 104 79 104 74 q 118 56 104 56 q 124 57 125 56 q 122 53 122 56 q 119 49 121 50 q 74 94 96 78 q 129 32 129 35 l 126 -1 l 144 -1 q 219 67 156 -1 q 204 57 207 56 q 224 78 217 78 q 227 76 228 78 q 229 74 226 74 q 258 99 238 74 q 261 108 257 103 q 264 104 263 107 q 261 100 263 101 q 276 115 276 108 q 282 113 279 113 m 82 256 q 74 238 76 244 l 74 253 q 82 256 79 256 m 71 238 q 67 240 68 240 q 64 233 64 240 q 68 256 63 251 q 71 238 67 246 m 1311 564 l 1306 564 l 1306 579 l 1311 579 l 1311 564 m 1382 463 l 1375 463 l 1375 467 l 1382 467 l 1382 463 m 1392 444 l 1388 444 l 1385 456 l 1388 457 l 1392 444 m 1219 625 l 1215 614 l 1211 615 l 1215 625 l 1219 625 m 1403 406 l 1400 403 l 1388 417 l 1390 419 l 1403 406 m 1197 617 l 1193 617 l 1189 625 l 1193 626 l 1197 617 m 1383 408 l 1371 408 q 1376 411 1376 408 q 1375 414 1376 413 q 1383 408 1381 408 m 1368 422 l 1361 418 l 1361 422 l 1367 426 l 1368 422 m 1428 335 q 1426 348 1428 339 q 1425 361 1425 357 q 1422 354 1425 360 q 1418 347 1418 349 q 1428 335 1429 342 m 1388 388 l 1385 386 l 1388 379 l 1392 379 l 1388 388 m 1335 464 q 1310 522 1332 485 q 1275 576 1293 549 q 1332 474 1322 489 q 1272 565 1290 528 q 1306 504 1278 551 q 1326 463 1326 468 l 1326 458 l 1325 458 q 1324 460 1325 460 q 1267 554 1286 522 q 1318 458 1318 456 l 1318 454 q 1317 453 1318 453 l 1317 454 l 1301 479 q 1264 543 1274 526 q 1313 453 1296 482 q 1308 450 1310 449 q 1261 532 1278 504 q 1304 449 1289 478 q 1254 522 1269 492 l 1299 443 q 1294 442 1296 440 l 1253 511 q 1290 439 1275 464 q 1246 504 1260 475 q 1285 433 1272 451 q 1281 432 1282 431 q 1244 493 1256 474 q 1276 429 1264 451 q 1238 483 1249 460 q 1271 424 1264 436 q 1269 417 1267 419 q 1335 464 1325 454 m 1196 607 q 1194 589 1194 606 q 1188 594 1188 588 l 1188 604 q 1196 607 1193 607 m 1364 397 l 1360 397 l 1357 406 l 1360 407 l 1364 397 m 1432 331 q 1428 315 1428 321 q 1421 319 1424 321 q 1429 310 1421 317 q 1432 331 1432 315 m 1206 564 q 1208 567 1207 565 q 1206 571 1207 569 q 1203 554 1208 568 q 1201 568 1203 568 l 1206 564 m 1426 310 l 1424 308 l 1426 300 l 1431 300 l 1426 310 m 1174 586 l 1167 578 l 1164 582 l 1171 589 l 1174 586 m 1417 313 l 1411 313 l 1415 297 l 1419 297 l 1417 313 m 1188 567 l 1178 560 l 1175 564 l 1186 571 l 1188 567 m 1329 406 q 1307 404 1328 404 q 1314 410 1308 410 q 1317 406 1318 410 q 1319 403 1317 403 q 1326 404 1324 403 l 1329 406 m 1344 382 l 1338 371 l 1333 375 l 1340 385 l 1344 382 m 1324 385 l 1315 393 q 1322 396 1325 393 q 1324 385 1324 394 m 1196 535 q 1171 521 1178 528 q 1182 519 1174 521 l 1193 519 q 1196 535 1196 521 m 1319 382 l 1313 371 l 1308 375 l 1315 385 l 1319 382 m 1367 307 l 1367 297 q 1379 315 1379 311 l 1367 307 m 1371 310 q 1367 318 1371 313 l 1360 310 l 1371 310 m 963 776 q 949 786 956 786 l 943 778 l 949 771 q 963 776 951 771 m 1071 649 l 1067 647 l 1069 639 l 1074 639 l 1071 649 m 1297 396 q 1294 386 1294 393 q 1293 392 1294 392 q 1289 389 1290 392 q 1297 396 1292 390 m 1438 228 q 1418 239 1429 231 q 1425 250 1421 250 q 1421 239 1426 244 l 1428 231 q 1435 240 1433 235 q 1431 243 1433 242 q 1433 250 1431 246 q 1438 228 1439 244 m 1336 347 l 1333 343 l 1324 350 l 1325 354 l 1336 347 m 1328 365 q 1317 340 1315 351 q 1311 358 1318 346 q 1321 367 1321 358 l 1314 367 q 1317 365 1315 365 q 1319 372 1319 365 q 1328 365 1325 365 m 1465 190 q 1447 233 1464 193 q 1450 168 1450 213 q 1465 190 1465 186 m 1107 596 q 1101 599 1106 596 q 1096 603 1097 603 q 1104 607 1101 607 q 1107 596 1107 610 m 1350 326 q 1342 325 1344 326 l 1335 333 l 1338 328 q 1343 322 1339 322 q 1349 325 1347 322 l 1350 326 m 1143 574 q 1133 569 1139 575 q 1135 565 1129 565 q 1126 558 1132 564 q 1132 556 1129 556 q 1138 557 1135 556 l 1126 544 q 1118 556 1126 556 q 1135 574 1132 563 q 1128 576 1132 576 q 1118 574 1124 576 q 1124 575 1119 575 q 1129 579 1129 575 q 1118 594 1129 596 l 1113 594 q 1133 582 1129 592 q 1143 574 1136 572 m 1439 201 l 1439 210 l 1433 210 q 1433 208 1431 208 l 1438 214 q 1431 213 1435 217 l 1438 221 q 1439 201 1440 215 m 1115 585 q 1114 579 1117 583 q 1114 571 1113 575 q 1103 585 1110 576 q 1093 575 1099 583 q 1096 574 1094 574 q 1101 575 1099 574 q 1089 571 1096 575 q 1093 581 1089 575 q 1085 583 1090 583 q 1092 589 1085 589 q 1094 586 1096 589 q 1094 582 1093 583 q 1097 590 1099 588 q 1107 585 1101 585 q 1110 586 1110 585 q 1108 590 1110 589 q 1115 585 1113 586 m 1238 429 l 1233 426 l 1238 419 l 1242 419 l 1238 429 m 1182 510 l 1168 478 l 1172 475 l 1186 510 l 1182 510 m 1307 343 q 1301 340 1306 340 q 1292 347 1297 340 q 1282 339 1285 339 q 1292 363 1285 347 q 1299 357 1294 360 q 1303 358 1301 357 q 1293 351 1300 356 q 1307 343 1301 343 m 1244 404 l 1243 400 l 1261 383 l 1264 388 l 1244 404 m 1240 413 l 1236 406 l 1240 403 l 1244 411 l 1240 413 m 936 746 q 928 761 936 750 q 918 749 919 751 l 936 746 m 1225 418 l 1221 415 l 1211 426 l 1214 429 l 1225 418 m 1321 310 q 1307 314 1317 314 q 1314 318 1310 314 l 1321 310 m 1301 332 l 1297 329 l 1301 322 l 1306 322 l 1301 332 m 1013 658 l 1008 656 l 1015 644 l 1018 647 l 1013 658 m 1351 275 l 1342 271 l 1342 275 l 1350 279 l 1351 275 m 1038 617 l 1033 615 l 1036 608 l 1040 608 l 1038 617 m 1251 367 q 1239 376 1242 378 q 1244 375 1240 374 l 1251 367 m 1329 281 l 1328 276 l 1321 281 l 1322 285 l 1329 281 m 1203 417 l 1201 413 l 1211 406 l 1213 410 l 1203 417 m 1301 307 l 1293 307 l 1293 301 l 1301 301 l 1301 307 m 1263 351 q 1243 333 1258 346 q 1254 343 1246 338 q 1249 353 1253 347 q 1256 347 1251 351 q 1259 356 1257 349 q 1263 363 1261 363 l 1263 351 m 993 646 l 989 643 l 992 636 l 996 636 l 993 646 m 1290 310 l 1282 310 l 1282 306 l 1290 306 l 1290 310 m 1233 368 l 1229 365 l 1224 372 l 1226 376 l 1233 368 m 1282 314 l 1274 314 l 1274 308 l 1282 308 l 1282 314 m 1263 319 l 1263 315 l 1272 311 l 1274 315 l 1263 319 m 1024 594 l 1019 593 l 1022 586 l 1026 586 l 1024 594 m 1029 586 l 1025 583 l 1028 576 l 1032 576 l 1029 586 m 1296 282 q 1285 293 1288 292 q 1282 285 1285 290 q 1289 283 1285 285 q 1296 282 1293 282 m 1210 383 q 1197 375 1200 372 q 1201 390 1201 376 q 1210 383 1204 389 m 1239 340 l 1235 336 l 1229 344 l 1232 347 l 1239 340 m 1182 399 q 1176 396 1181 399 q 1165 408 1175 400 q 1167 413 1167 410 q 1167 415 1165 415 q 1182 399 1172 408 m 1269 301 l 1265 293 l 1261 296 l 1265 303 l 1269 301 m 1315 272 l 1304 272 q 1299 276 1300 272 q 1297 281 1299 281 q 1296 264 1296 271 q 1292 256 1290 258 l 1296 250 q 1279 260 1294 251 q 1289 258 1281 258 l 1293 264 q 1283 269 1290 265 q 1288 268 1286 268 q 1290 269 1289 268 q 1286 281 1289 274 q 1279 279 1282 279 q 1275 288 1279 283 q 1272 285 1274 286 q 1268 282 1269 283 q 1271 279 1268 278 q 1267 265 1267 272 q 1258 285 1268 275 l 1258 272 q 1261 290 1257 282 l 1267 285 q 1272 293 1268 293 q 1281 288 1275 293 q 1279 296 1283 290 l 1290 296 l 1296 290 q 1307 286 1304 290 l 1301 279 l 1306 275 q 1314 288 1314 283 q 1315 272 1313 283 m 1154 431 q 1151 425 1151 428 q 1153 421 1151 422 q 1150 422 1151 422 q 1143 419 1146 422 q 1146 426 1146 422 q 1144 431 1146 429 q 1149 429 1146 429 q 1154 431 1151 429 m 1244 310 l 1239 310 l 1239 325 l 1244 325 l 1244 310 m 1239 317 l 1235 308 l 1231 311 l 1235 319 l 1239 317 m 886 704 q 882 717 890 710 l 878 708 l 886 704 m 975 618 l 960 611 l 960 607 l 976 614 l 975 618 m 1304 238 l 1303 233 l 1290 240 l 1292 244 l 1304 238 m 1015 568 q 1004 572 1011 572 q 999 558 1004 565 q 1008 554 1001 554 q 1015 568 1008 561 m 942 643 l 935 639 l 935 635 l 943 639 l 942 643 m 953 631 l 943 626 l 943 622 l 954 626 l 953 631 m 976 600 l 972 600 l 972 589 l 976 589 l 976 600 m 1053 525 q 1032 521 1039 525 q 1040 510 1039 513 l 1053 525 m 994 574 l 992 565 l 996 563 l 999 571 l 994 574 m 1193 346 l 1190 343 l 1181 354 l 1183 357 l 1193 346 m 1061 499 l 1054 494 l 1054 490 l 1063 494 l 1061 499 m 1278 254 q 1275 242 1278 244 q 1275 247 1278 244 q 1271 251 1274 251 q 1278 254 1278 251 m 1306 224 l 1293 208 l 1289 211 l 1301 226 l 1306 224 m 1181 342 q 1171 351 1179 342 q 1178 358 1172 351 l 1174 351 q 1181 342 1181 344 m 1164 364 l 1160 356 l 1156 358 l 1160 367 l 1164 364 m 1192 322 l 1188 322 l 1183 329 l 1188 332 l 1192 322 m 1275 228 l 1271 228 l 1267 236 l 1271 238 l 1275 228 m 1132 418 q 1122 425 1128 419 q 1119 411 1119 424 q 1114 422 1119 417 q 1115 407 1113 411 q 1107 418 1110 410 q 1110 429 1106 419 q 1093 442 1099 442 q 1089 438 1089 442 l 1089 438 q 1086 435 1089 435 q 1085 438 1082 435 q 1085 442 1088 442 q 1081 438 1081 442 q 1078 450 1082 442 q 1049 433 1060 438 q 1081 457 1054 435 q 1083 444 1081 451 l 1089 450 q 1088 447 1088 449 q 1092 444 1088 444 q 1097 446 1096 444 q 1097 442 1093 442 q 1108 435 1104 440 q 1114 443 1114 442 q 1132 418 1114 438 m 1217 282 l 1213 282 l 1208 289 l 1213 290 l 1217 282 m 1175 322 l 1169 322 l 1169 333 l 1175 333 l 1175 322 m 1065 468 q 1050 454 1060 464 l 1042 463 q 1035 458 1036 458 q 1049 469 1044 469 q 1051 466 1051 469 q 1056 463 1051 463 q 1062 465 1060 463 q 1065 468 1064 468 m 1269 219 l 1263 211 l 1260 215 l 1265 222 l 1269 219 m 1254 246 q 1239 222 1250 239 q 1246 232 1240 225 q 1239 243 1243 233 l 1239 240 l 1243 240 q 1250 243 1247 240 q 1254 246 1253 246 m 1226 274 q 1222 267 1225 272 q 1217 260 1218 261 q 1214 272 1217 264 q 1210 271 1213 271 q 1206 274 1207 271 l 1226 274 m 1106 382 l 1093 382 l 1093 378 l 1106 378 l 1106 382 m 1249 214 q 1247 221 1247 218 l 1239 213 l 1231 221 q 1239 206 1231 215 l 1249 206 l 1249 214 m 1115 493 q 1101 510 1106 510 q 1082 497 1097 510 q 1063 483 1067 485 q 1067 485 1064 483 q 1071 486 1069 486 q 1058 472 1067 472 q 1054 474 1051 472 q 1063 481 1060 479 q 951 411 989 436 l 951 400 q 957 378 951 390 q 1004 418 976 400 q 997 415 1001 418 l 993 419 l 1010 426 l 1004 419 q 1026 433 1018 428 l 1015 433 l 1015 444 l 1019 450 q 1021 438 1021 449 q 1032 446 1028 444 q 1024 451 1028 446 l 1046 451 q 1035 442 1039 444 q 1115 493 1088 475 m 1065 406 l 1061 406 l 1061 397 l 1065 397 l 1065 406 m 1033 442 l 1026 439 l 1026 433 l 1035 438 l 1033 442 m 1124 364 q 1112 340 1124 351 q 1088 328 1100 328 q 1071 335 1079 328 q 1063 351 1063 343 q 1074 376 1063 365 q 1100 388 1086 388 q 1124 364 1124 388 m 1108 365 q 1094 353 1108 353 q 1086 356 1089 353 l 1086 365 l 1079 358 q 1093 347 1085 347 q 1108 365 1104 347 m 1207 254 q 1147 318 1168 299 q 1124 292 1131 301 q 1158 254 1133 282 q 1183 231 1179 231 q 1207 254 1193 231 m 1118 324 l 1110 324 l 1110 329 l 1118 329 l 1118 324 m 1138 321 q 1110 304 1119 310 q 1115 297 1115 304 q 1138 321 1129 313 m 1069 393 q 1046 378 1057 378 q 1026 403 1029 378 l 1026 382 q 1043 372 1035 372 q 1069 393 1057 372 m 1004 429 l 1000 429 l 1000 440 l 1004 440 l 1004 429 m 1101 325 q 1092 321 1100 324 q 1089 313 1089 321 q 1085 315 1088 314 q 1079 313 1082 314 q 1082 319 1082 317 q 1079 324 1082 324 l 1085 322 l 1094 322 q 1101 325 1101 322 m 1168 229 q 1156 243 1156 229 l 1168 229 m 1024 410 l 1019 410 l 1019 376 l 1024 376 l 1024 410 m 1153 249 l 1149 240 l 1144 242 l 1149 250 l 1153 249 m 1004 396 q 997 393 1003 396 q 990 390 992 390 l 996 385 q 1004 396 993 385 m 1082 293 l 1074 289 l 1074 294 l 1081 297 l 1082 293 m 1049 328 l 1047 324 l 1040 328 l 1042 332 l 1049 328 m 1083 304 l 1072 304 q 1067 290 1067 297 l 1058 293 q 1064 304 1067 293 q 1067 303 1065 303 q 1071 304 1069 303 l 1064 313 q 1058 301 1056 304 q 1058 308 1057 303 q 1054 313 1058 313 q 1043 310 1044 313 q 1054 297 1047 306 q 1025 321 1044 303 q 1039 310 1029 318 q 1053 328 1049 319 l 1053 318 q 1065 329 1056 319 q 1057 342 1063 333 l 1074 325 q 1067 328 1069 325 l 1063 322 q 1070 310 1063 313 q 1080 306 1078 308 q 1083 304 1082 304 m 782 628 l 776 624 l 776 619 l 783 622 l 782 628 m 982 408 l 957 388 q 956 392 957 389 q 954 399 954 396 q 972 418 954 400 q 968 411 968 414 q 975 407 968 407 q 982 408 982 407 m 775 613 q 786 604 782 604 q 789 617 789 608 l 775 613 m 1024 343 l 1019 343 l 1019 335 l 1024 335 l 1024 343 m 1003 367 l 996 363 l 996 358 l 1004 363 l 1003 367 m 965 403 l 957 399 l 957 404 l 964 408 l 965 403 m 992 358 l 989 349 l 993 347 l 996 358 l 992 358 m 939 413 l 936 401 l 940 400 l 943 413 l 939 413 m 917 429 q 904 444 910 439 q 896 432 897 435 q 906 431 900 432 q 917 429 913 429 m 760 599 l 758 594 l 771 588 l 772 592 l 760 599 m 894 454 l 888 451 l 888 446 l 896 450 l 894 454 m 933 418 q 928 417 933 419 q 924 419 924 415 q 933 397 926 397 l 933 418 m 1072 232 l 1069 228 l 1168 151 l 1171 156 l 1072 232 m 883 464 l 876 460 l 876 456 l 885 460 l 883 464 m 899 449 l 889 442 l 892 438 l 901 444 l 899 449 m 829 511 l 824 507 l 824 503 l 832 507 l 829 511 m 808 531 l 796 531 l 796 525 l 808 525 l 808 531 m 917 410 q 908 413 917 413 q 875 443 910 414 q 878 453 878 446 q 858 463 864 451 l 849 463 q 897 410 876 410 l 917 410 m 942 390 q 929 382 933 382 q 925 400 925 382 q 903 383 910 397 q 925 372 913 372 q 942 390 933 372 m 1071 232 q 961 335 961 315 q 954 326 961 326 q 1071 232 997 288 m 706 533 l 692 536 l 692 532 l 706 528 l 706 533 m 514 661 l 510 653 l 514 651 l 518 660 l 514 661 m 508 651 l 504 643 l 508 642 l 513 650 l 508 651 m 642 489 l 638 486 l 644 475 l 649 478 l 642 489 m 481 651 l 476 643 l 481 642 l 483 650 l 481 651 m 475 642 l 465 625 l 469 622 l 478 640 l 475 642 m 642 468 l 642 460 l 622 460 q 597 431 626 439 q 592 419 596 419 l 586 419 q 583 421 585 421 l 604 417 q 653 468 632 435 l 642 468 m 601 454 l 600 450 l 610 443 l 611 447 l 601 454 m 472 592 l 468 583 l 472 582 l 475 590 l 472 592 m 458 614 l 449 596 l 453 594 l 461 613 l 458 614 m 469 574 q 458 576 467 576 q 447 585 456 576 l 447 567 q 451 576 451 572 q 461 569 457 569 q 467 572 465 569 q 469 574 468 574 m 475 568 q 471 576 471 574 q 460 560 464 565 q 456 567 456 565 q 449 557 449 567 l 439 568 q 449 594 446 585 q 439 585 443 586 q 432 586 435 585 l 428 588 q 431 579 433 582 q 419 590 424 581 q 426 589 422 593 l 426 601 q 419 594 422 596 q 414 596 417 594 q 410 597 411 597 q 408 606 408 603 q 411 615 408 610 l 413 619 q 407 617 410 617 q 385 639 390 617 q 363 617 371 624 q 358 635 358 626 q 386 678 358 638 q 414 722 414 718 l 392 736 q 461 713 438 721 q 367 751 364 751 q 307 702 340 751 q 274 624 274 653 q 285 582 274 624 q 292 596 285 596 l 294 585 q 285 579 285 585 q 317 542 285 568 q 361 517 350 517 q 386 533 364 518 q 363 522 372 522 q 358 525 356 522 q 363 532 363 529 q 366 531 365 532 q 371 529 367 529 q 372 532 374 529 q 375 535 371 535 q 381 533 378 535 l 382 533 q 385 547 379 542 q 386 542 386 544 l 396 551 q 397 546 397 549 q 389 535 390 539 q 397 542 394 542 q 438 517 403 542 q 422 531 428 526 l 439 540 q 422 550 429 550 l 426 554 q 443 540 442 542 l 439 549 q 457 539 447 544 q 469 557 457 543 q 454 544 457 551 q 475 568 451 560 m 417 585 q 407 578 413 582 q 408 594 406 583 q 415 590 413 590 q 408 588 411 590 q 417 585 410 585 m 439 558 q 419 558 432 560 l 426 567 q 429 561 425 563 q 436 563 433 560 l 439 558 m 597 393 q 579 407 585 401 q 575 388 575 399 q 558 397 563 392 q 576 378 567 378 q 597 393 589 378 m 563 418 l 557 418 l 557 407 l 563 407 l 563 418 m 319 690 l 317 682 l 313 685 l 315 692 l 319 690 m 421 568 q 410 571 418 568 q 418 576 411 569 q 421 568 418 571 m 403 576 l 399 576 l 399 585 l 403 585 l 403 576 m 394 582 l 392 578 l 379 592 l 382 596 l 394 582 m 404 565 l 394 565 l 394 571 l 404 571 l 404 565 m 357 624 q 344 628 350 628 q 335 619 338 628 q 346 613 347 619 q 346 615 349 614 q 333 625 340 614 q 331 635 332 633 q 349 631 342 631 q 354 632 351 631 q 357 624 356 629 m 392 558 l 388 558 l 382 571 l 386 574 l 392 558 m 319 640 l 317 632 l 313 635 l 315 642 l 319 640 m 550 418 q 439 488 476 464 q 447 481 444 483 l 431 475 q 397 499 424 475 q 404 501 400 499 q 411 504 408 504 q 416 497 414 504 q 421 489 418 490 l 418 493 q 418 497 417 496 q 423 496 419 497 q 428 494 426 494 q 425 486 428 489 q 432 479 429 479 q 431 492 432 490 q 438 490 431 489 q 418 504 433 492 q 400 517 403 517 q 393 515 396 517 q 389 513 390 513 q 386 499 389 503 q 467 449 440 465 q 456 458 460 456 l 478 458 q 469 453 474 454 q 479 444 476 447 q 483 454 479 454 l 483 438 q 479 439 482 438 q 475 440 476 440 q 497 426 483 435 q 493 435 490 432 q 508 426 500 426 l 504 422 q 497 425 504 425 q 543 385 538 396 q 550 392 543 392 l 550 418 m 467 464 q 464 465 465 464 q 458 467 463 467 q 454 463 454 467 l 454 463 q 451 460 454 460 q 436 475 449 460 l 439 472 q 446 469 442 469 q 449 472 449 469 q 453 475 449 475 q 467 464 457 474 m 317 625 l 314 617 l 310 618 l 313 626 l 317 625 m 310 632 q 307 626 310 631 q 304 617 304 621 q 292 621 300 621 q 310 632 300 621 m 489 413 l 485 413 l 485 397 l 489 397 l 489 413 m 313 599 q 306 594 310 597 q 297 613 304 600 l 304 607 q 307 610 306 607 q 310 614 308 614 l 313 599 m 479 415 l 476 382 l 481 382 l 485 415 l 479 415 m 454 439 q 429 444 444 444 q 438 439 429 439 q 425 432 429 439 q 431 451 425 440 q 419 458 426 458 q 454 439 429 454 m 325 569 l 322 565 l 313 572 l 315 578 l 325 569 m 286 596 l 282 596 l 282 604 l 286 604 l 286 596 m 333 540 l 331 538 l 321 549 l 324 551 l 333 540 m 443 414 l 442 410 l 454 401 l 456 406 l 443 414 m 467 401 q 465 409 467 406 q 464 413 464 413 q 460 410 460 413 q 453 394 458 403 q 439 401 443 399 q 454 390 451 390 q 467 401 467 390 m 492 361 q 486 360 490 361 q 481 358 482 358 q 488 347 486 351 q 492 361 488 358 m 439 413 l 435 413 l 435 404 l 439 404 l 439 413 m 385 522 q 333 472 342 494 q 354 497 347 490 q 353 493 354 496 q 356 492 351 492 q 363 497 357 492 q 364 493 364 494 q 319 454 336 471 q 376 500 358 486 q 369 499 374 499 q 358 503 364 499 l 378 514 q 378 501 379 514 q 385 522 383 515 m 349 513 q 322 519 340 513 q 338 492 328 501 q 349 513 343 506 m 319 517 l 315 515 l 329 482 l 333 482 l 319 517 m 450 357 q 442 360 444 360 q 449 369 443 363 q 450 357 449 358 m 550 375 q 543 331 540 347 q 540 340 540 333 q 492 286 529 315 q 432 238 439 244 q 546 329 507 294 q 544 347 546 333 q 550 364 543 360 l 550 375 m 467 335 l 465 331 l 458 335 l 460 339 l 467 335 m 392 421 l 389 413 l 385 414 l 388 422 l 392 421 m 407 389 l 394 389 l 394 383 l 407 383 l 407 389 m 357 438 q 356 432 356 435 q 357 426 356 429 q 353 429 356 428 q 347 426 350 428 q 349 436 351 432 q 357 438 351 433 m 439 358 q 431 343 439 351 q 415 335 422 335 q 390 347 403 335 q 378 371 378 358 q 401 394 378 394 q 426 383 414 394 q 439 358 439 371 m 431 358 q 428 367 431 363 q 426 372 426 371 q 428 365 428 368 q 408 347 428 347 q 393 351 401 347 q 414 340 410 342 q 431 358 431 340 m 325 479 q 308 507 325 489 q 292 486 304 497 q 269 478 279 475 q 275 457 272 474 q 289 447 278 447 q 325 479 325 464 m 194 574 l 190 574 l 190 585 l 194 585 l 194 574 m 425 328 q 411 319 424 325 q 414 329 414 322 q 399 332 406 329 q 407 328 403 328 q 415 329 410 328 q 422 331 419 331 q 417 326 421 331 q 419 325 418 325 q 425 328 422 325 m 346 394 l 343 401 l 347 404 l 350 394 l 346 394 m 361 378 l 358 375 l 351 382 l 354 385 l 361 378 m 375 357 l 371 357 l 371 365 l 375 365 l 375 357 m 319 410 l 315 410 l 315 431 l 319 431 l 319 410 m 533 388 q 389 486 438 454 q 403 474 397 481 q 397 460 397 468 l 404 467 l 408 461 q 390 460 404 460 q 393 475 394 471 q 379 454 382 464 l 379 482 l 372 474 q 376 463 379 465 q 369 469 376 469 q 361 465 365 469 q 356 465 357 464 q 382 490 372 479 q 350 465 371 481 l 358 457 q 364 461 360 457 q 369 461 367 464 q 364 450 364 456 q 369 454 367 454 q 372 447 372 454 l 365 447 q 351 457 357 457 q 336 443 350 457 q 342 428 342 439 q 333 443 333 439 q 347 463 333 439 q 290 415 314 438 q 292 410 293 414 q 282 406 289 406 l 288 413 l 232 371 q 258 306 249 328 l 264 313 q 267 300 267 310 q 274 307 271 306 q 279 308 276 308 q 283 301 283 308 q 267 293 275 293 q 283 250 278 265 l 303 231 l 303 225 q 310 226 311 225 l 304 218 l 292 239 q 314 190 307 206 q 322 201 319 193 q 329 208 325 210 l 338 208 q 406 261 343 211 q 511 346 488 328 q 533 388 535 364 m 414 310 q 404 313 410 313 l 404 300 q 403 322 406 307 l 414 310 m 433 289 q 421 278 426 278 q 414 281 417 278 q 408 285 411 285 l 403 278 q 413 297 407 285 q 422 285 413 285 q 422 288 425 285 q 424 290 419 290 l 429 290 q 433 289 432 289 m 263 492 q 226 432 239 451 q 257 500 244 479 q 218 438 238 463 q 254 510 242 486 q 213 440 226 464 q 249 519 233 496 q 204 447 221 468 q 246 529 231 501 q 199 450 213 476 q 240 538 219 508 q 190 457 199 468 q 238 550 222 521 q 183 460 203 493 q 182 464 181 463 q 235 557 207 510 q 176 467 196 497 q 201 518 176 476 q 229 572 225 560 q 171 475 189 507 q 226 582 200 542 q 165 469 165 492 q 232 422 204 438 q 246 456 231 429 q 263 492 261 483 m 311 397 l 303 393 l 303 397 l 310 401 l 311 397 m 301 379 l 290 389 q 294 397 294 394 q 301 379 297 390 m 401 296 q 399 292 399 296 q 399 285 397 288 q 393 288 396 288 l 389 282 q 394 281 390 281 l 394 260 q 381 282 392 268 q 394 300 383 288 l 394 292 q 401 296 399 296 m 325 356 l 322 347 l 318 349 l 321 357 l 325 356 m 307 443 q 289 438 297 438 q 272 447 281 438 q 267 435 267 440 l 268 439 q 272 442 269 442 q 288 433 274 442 q 276 424 279 422 l 279 426 q 272 435 281 426 q 263 410 267 414 q 261 422 263 422 q 222 381 238 397 q 235 389 231 389 l 231 382 q 307 443 282 421 m 285 388 q 278 393 281 393 q 285 399 283 393 l 285 388 m 321 363 q 311 350 311 354 q 314 346 311 347 l 306 356 q 321 363 315 356 m 389 253 l 385 253 l 385 261 l 389 261 l 389 253 m 306 346 l 297 346 l 297 374 q 306 346 297 349 m 379 260 q 375 263 378 261 q 369 260 372 261 q 372 268 372 265 l 379 260 m 288 372 q 280 368 286 374 q 271 363 274 363 q 265 364 268 363 l 261 364 q 265 365 263 364 l 271 365 q 275 382 276 365 q 288 372 281 381 m 392 313 q 360 265 378 297 q 376 281 364 267 q 382 267 376 272 q 374 272 378 272 q 366 266 369 272 q 360 260 363 260 q 357 263 356 260 q 357 265 360 265 q 337 247 353 265 q 318 228 321 228 q 285 257 311 228 q 331 319 307 279 q 321 310 324 317 q 333 335 333 332 q 335 318 333 322 q 354 335 347 335 q 358 331 357 335 q 361 328 360 328 q 364 346 364 335 q 375 339 367 340 l 369 333 l 374 328 q 381 324 376 328 q 389 321 386 321 q 363 326 382 322 q 383 303 371 318 q 392 313 388 307 m 281 357 l 278 353 l 271 356 l 272 361 l 281 357 m 256 379 l 249 371 l 246 375 l 253 382 l 256 379 m 281 346 q 275 347 281 347 q 274 340 274 346 q 267 349 268 344 q 274 347 268 347 l 274 347 q 281 346 278 347 m 258 365 l 250 361 l 250 367 l 256 369 l 258 365 m 303 301 q 300 303 301 303 q 294 300 297 303 q 303 311 297 304 q 301 306 301 308 q 303 301 301 304 m 383 256 q 342 219 346 219 q 335 222 339 219 l 340 218 q 346 221 339 221 q 360 238 349 221 q 375 256 371 256 l 383 256 m 229 325 q 222 340 229 332 q 224 334 222 339 q 225 328 225 329 q 218 331 221 328 q 214 335 215 335 q 181 315 194 321 q 176 326 178 322 q 183 322 183 329 l 193 322 q 199 357 199 346 q 207 358 197 358 q 192 365 206 358 l 182 354 q 185 349 185 351 q 183 344 185 346 q 175 357 179 353 q 160 351 168 349 q 175 360 172 358 q 182 357 181 360 q 168 374 174 367 q 185 383 176 374 l 182 381 q 175 378 179 378 q 168 383 172 378 q 183 390 179 389 q 190 382 189 385 l 190 374 q 179 369 183 369 q 186 368 183 368 q 193 372 190 368 q 200 382 196 375 q 193 367 203 376 q 211 367 206 365 q 217 343 217 353 q 206 353 200 353 q 208 328 206 336 q 221 342 211 339 l 221 351 q 201 386 211 375 q 218 396 215 393 l 174 429 q 146 472 146 450 q 160 513 146 483 q 156 507 156 508 l 149 510 q 144 505 146 510 q 140 500 142 500 q 153 526 153 532 l 157 521 q 153 517 156 519 q 149 514 150 515 l 161 514 q 192 556 167 514 q 218 606 218 599 q 217 617 218 610 q 215 629 215 625 q 199 603 203 608 q 201 594 203 596 q 203 589 206 592 q 199 592 200 589 l 199 601 q 121 479 144 518 l 128 485 l 132 481 q 81 388 99 467 q 92 410 89 407 l 101 400 q 100 408 101 404 q 104 413 99 413 l 110 410 q 111 407 115 408 q 107 400 108 406 q 103 394 106 394 l 94 394 q 92 403 92 400 q 97 368 96 379 q 103 385 97 379 q 107 379 107 381 q 108 389 107 382 l 108 400 l 113 394 q 110 389 113 392 q 112 392 111 389 q 118 394 113 394 q 122 397 124 394 l 126 393 q 111 372 111 381 q 126 385 117 385 q 143 379 135 385 q 119 403 124 400 q 117 397 119 400 q 119 410 114 403 q 126 403 124 404 q 131 405 131 403 q 133 407 132 407 q 139 388 136 390 q 143 394 139 394 q 143 382 144 394 q 145 385 144 382 q 150 388 146 388 q 154 386 157 388 q 124 346 142 340 l 132 340 q 138 344 136 340 q 142 347 139 347 q 149 352 146 347 q 153 357 151 357 q 163 343 160 346 l 158 338 q 153 350 154 344 q 158 332 156 335 q 168 339 167 340 q 157 328 164 328 q 149 333 153 328 l 144 338 q 143 331 143 336 q 142 325 143 326 q 129 333 126 333 q 132 325 132 329 q 129 317 132 321 q 138 312 132 317 q 146 307 143 307 q 150 328 150 319 l 156 322 q 164 325 157 322 q 174 326 171 328 q 172 318 174 321 l 176 314 q 172 313 175 313 q 167 315 169 313 l 158 306 q 150 304 156 306 q 142 303 144 303 q 135 308 138 303 l 132 313 l 122 322 q 140 297 133 297 q 181 310 143 297 q 229 325 219 324 m 292 304 l 288 304 l 288 315 l 292 315 l 292 304 m 428 239 l 329 163 l 332 157 l 431 235 l 428 239 m 303 288 l 300 283 l 293 288 l 294 292 l 303 288 m 269 317 l 265 317 l 263 324 l 267 325 l 269 317 m 260 333 q 258 318 260 315 q 257 329 258 322 q 260 333 254 333 m 292 285 l 288 285 l 288 296 l 292 296 l 292 285 m 185 400 l 178 390 q 176 399 179 399 q 185 400 179 396 m 236 326 l 228 322 l 228 318 l 239 322 l 236 326 m 119 463 l 113 443 l 108 444 l 115 463 l 119 463 m 239 300 l 235 300 l 232 308 l 236 310 l 239 300 m 226 319 l 219 319 l 219 314 l 226 314 l 226 319 m 167 381 l 163 378 l 156 389 l 160 392 l 167 381 m 203 339 l 196 331 l 199 328 l 206 335 l 203 339 m 125 410 q 119 413 121 410 q 125 421 119 415 q 124 413 121 417 l 124 418 q 125 410 124 410 m 218 317 l 211 317 l 211 311 l 218 311 l 218 317 m 164 364 l 160 356 l 157 358 l 160 367 l 164 364 m 207 314 l 200 314 l 200 308 l 207 308 l 207 314 m 218 290 q 214 300 218 294 q 206 288 207 292 q 218 290 208 290 m 100 417 l 96 417 l 92 424 l 96 425 l 100 417 m 244 249 l 240 240 l 238 242 l 240 250 l 244 249 m 225 247 l 221 247 l 221 261 l 225 261 l 225 247 m 160 317 l 153 317 l 153 311 l 160 311 l 160 317 m 239 215 l 235 215 l 235 228 l 239 228 l 239 215 m 124 349 q 111 361 111 356 q 114 351 111 357 l 117 344 q 124 349 121 347 m 147 315 l 144 311 l 135 322 l 138 326 l 147 315 m 208 247 q 206 240 208 243 q 201 244 204 244 q 206 243 203 246 q 208 247 208 243 m 322 124 q 303 168 321 128 q 301 163 303 165 q 258 264 279 225 l 251 251 q 261 253 257 249 q 258 242 261 249 q 256 233 256 236 q 249 251 247 247 q 251 254 250 251 q 240 267 251 257 q 246 265 239 265 q 254 272 251 271 q 232 313 238 313 q 197 301 229 313 q 157 289 164 290 q 176 286 171 289 q 167 278 169 282 q 157 283 163 283 q 158 279 158 282 q 156 275 158 278 l 151 279 l 157 286 l 143 286 q 179 243 157 267 q 181 250 179 249 q 185 247 185 250 q 183 244 185 246 q 181 239 181 236 q 213 203 200 215 q 222 225 213 222 l 226 219 q 214 211 215 214 l 214 200 l 218 203 q 226 206 222 206 q 233 199 235 206 q 226 203 226 196 l 218 194 l 225 188 q 232 193 229 192 q 240 189 238 193 q 226 186 235 185 q 257 154 253 157 q 242 174 247 165 q 240 189 242 179 q 238 204 238 199 q 245 217 238 207 q 254 231 253 228 l 260 225 q 261 231 260 229 q 268 228 267 231 q 264 243 263 242 q 276 217 276 222 l 276 213 l 276 211 q 272 217 274 214 l 268 219 q 271 228 271 222 l 261 218 l 253 228 q 253 217 254 224 l 250 210 q 267 215 261 215 q 275 208 268 215 q 247 200 260 210 q 261 206 257 206 q 282 196 271 206 q 278 208 276 206 q 293 182 290 188 q 281 156 279 164 q 272 158 278 156 q 267 158 268 160 q 267 153 265 157 l 269 147 l 274 150 q 281 153 278 153 q 289 147 285 153 q 304 135 300 135 l 300 131 q 281 149 286 143 l 283 143 q 283 136 286 139 q 276 132 282 139 q 296 115 290 117 q 297 121 296 118 q 306 108 303 107 q 322 124 322 108 m 194 246 l 190 233 l 188 236 l 190 246 l 194 246 m 211 218 l 207 214 l 196 231 l 199 233 l 211 218 m 96 326 l 82 329 l 82 324 l 96 321 l 96 326 m 100 274 l 100 278 l 111 285 l 113 281 l 100 274 m 101 269 q 92 268 96 268 q 85 270 89 268 q 82 272 81 272 q 79 271 79 272 q 81 267 79 268 q 78 272 78 269 q 83 275 78 275 q 88 279 88 275 q 85 286 88 282 q 93 290 90 290 q 88 271 93 276 q 96 268 92 268 q 101 269 99 268 m 72 308 q 69 300 72 303 q 67 317 67 307 q 65 302 67 311 q 64 288 64 293 q 69 297 68 293 q 72 288 72 294 l 72 308 m 106 260 q 106 247 104 257 q 103 240 107 240 q 99 242 99 240 l 99 243 q 100 228 100 246 l 94 240 l 94 231 q 106 260 94 224 m 167 88 q 157 86 161 86 q 125 111 138 86 q 115 153 115 131 q 133 281 115 178 q 114 222 122 278 q 107 153 107 179 q 154 81 107 81 q 171 89 157 81 l 167 88 m 100 210 l 94 210 l 94 221 l 100 221 l 100 210 m 69 219 q 67 222 68 222 q 63 219 64 222 l 68 214 q 64 215 67 213 q 61 207 61 213 q 67 231 61 218 q 69 219 67 222 m 53 240 q 35 196 38 204 q 50 175 35 190 q 53 240 50 222 m 1226 617 q 1192 699 1226 638 q 1188 695 1190 697 q 1183 692 1185 693 l 1179 697 q 1190 700 1182 700 q 1182 707 1182 708 q 1135 746 1171 746 q 1040 706 1122 740 q 1050 699 1050 706 q 1071 715 1051 707 q 1108 733 1100 728 q 1110 729 1111 731 q 1088 715 1094 724 q 1119 666 1096 701 q 1143 628 1143 631 q 1133 617 1143 617 q 1117 632 1131 617 q 1094 611 1108 611 q 1088 614 1088 611 q 1090 592 1092 596 q 1086 590 1088 592 q 1082 589 1085 589 q 1074 594 1079 589 l 1074 582 q 1081 585 1078 585 q 1082 582 1082 585 l 1067 567 l 1060 574 q 1071 578 1067 579 q 1051 586 1063 578 q 1063 561 1054 575 l 1053 551 q 1050 560 1047 557 q 1056 558 1053 557 q 1053 579 1053 564 q 1043 569 1044 569 q 1032 576 1038 569 q 1035 567 1032 574 q 1051 568 1033 568 q 1042 554 1047 564 q 1029 569 1038 558 q 1026 561 1029 567 q 1049 542 1042 556 l 1032 550 q 1047 532 1038 543 l 1060 544 l 1063 529 q 1071 542 1060 536 l 1063 533 q 1079 524 1068 531 q 1069 519 1076 521 q 1063 510 1063 518 q 1104 538 1078 521 q 1108 547 1103 543 q 1113 546 1111 547 q 1111 542 1111 544 q 1114 535 1111 539 q 1117 542 1114 539 q 1126 528 1118 533 q 1143 518 1140 521 q 1139 517 1140 515 q 1114 528 1131 518 q 1140 510 1136 510 q 1180 535 1144 510 q 1215 575 1215 560 q 1207 578 1208 575 q 1210 582 1213 581 q 1208 589 1207 585 q 1217 576 1217 585 l 1226 617 m 1274 378 q 1239 417 1239 415 q 1228 413 1231 417 l 1228 415 q 1229 419 1228 419 q 1228 429 1229 424 q 1221 426 1222 425 l 1228 435 q 1235 429 1233 429 q 1228 442 1235 433 q 1211 432 1219 432 q 1193 438 1203 432 q 1271 376 1219 414 q 1267 385 1265 382 l 1274 378 m 1190 408 q 1179 407 1182 408 q 1178 424 1181 418 l 1171 435 q 1190 408 1186 417 m 900 718 l 893 726 l 886 718 q 890 711 889 715 q 900 718 894 711 m 910 694 l 908 700 l 901 696 l 901 692 l 910 694 m 1168 381 l 1164 383 l 1168 392 l 1172 389 l 1168 381 m 904 686 l 903 690 l 896 686 l 896 682 l 904 686 m 882 700 l 875 708 l 872 706 l 879 697 l 882 700 m 1085 456 l 1085 460 l 1092 464 l 1093 460 l 1085 456 m 1125 350 l 1125 358 l 1131 358 l 1131 350 l 1125 350 m 1119 331 l 1113 335 l 1114 339 l 1121 335 l 1119 331 m 1061 397 q 1049 388 1053 388 q 1040 399 1040 388 l 1046 406 q 1035 396 1035 406 q 1036 390 1035 393 q 1038 385 1038 386 l 1053 385 q 1061 397 1061 393 m 1015 392 l 1015 403 l 1011 403 l 1011 392 l 1015 392 m 1021 353 q 1015 354 1019 353 q 1010 356 1011 356 l 1015 349 q 1010 342 1010 343 l 1021 353 m 625 713 l 625 718 l 611 722 l 611 717 l 625 713 m 356 706 l 356 717 l 351 717 l 351 706 l 356 706 m 406 724 q 346 632 364 651 q 338 642 343 633 q 332 651 333 651 l 328 658 l 319 649 q 322 656 319 653 q 306 640 315 653 q 292 626 297 626 q 290 631 292 628 q 288 638 288 633 q 301 654 288 647 l 308 651 l 314 656 q 303 661 308 661 l 307 668 l 303 676 q 299 674 299 676 q 308 690 303 683 q 304 683 304 686 q 307 673 304 679 q 310 664 310 667 q 315 676 317 674 l 317 674 q 326 692 325 688 l 326 682 l 336 694 q 325 711 331 704 q 342 701 336 701 q 326 718 338 713 q 333 722 328 717 q 332 726 332 724 q 335 732 332 729 q 333 728 333 731 q 336 724 333 725 l 342 729 q 332 714 336 718 q 335 713 333 714 q 340 711 336 711 q 358 733 344 713 q 360 714 360 721 q 367 733 367 718 q 378 726 372 726 q 385 740 378 733 q 383 738 383 739 q 386 732 383 735 q 351 669 349 678 q 394 729 388 729 l 403 721 q 406 724 406 721 m 576 432 q 567 425 574 432 l 571 403 q 578 425 578 417 q 576 432 578 429 m 636 435 q 586 408 624 421 l 603 392 q 585 365 597 383 q 565 382 572 372 q 558 332 565 360 q 601 381 593 371 q 636 435 628 414 m 538 404 l 533 413 l 529 411 l 533 404 l 538 404 m 525 378 q 515 382 522 378 l 518 372 q 525 378 521 375 m 511 396 q 508 394 510 396 l 504 394 q 500 399 500 394 l 499 401 q 500 397 500 401 q 499 390 500 393 l 492 397 q 493 385 492 383 q 486 390 488 390 q 496 371 490 383 q 492 364 494 368 q 501 367 497 367 q 511 364 507 367 q 500 368 506 368 q 497 381 503 374 q 511 396 501 386 m 474 410 q 456 385 474 385 q 433 396 446 385 q 443 387 435 396 q 458 378 451 378 q 472 390 468 378 q 474 410 476 401 m 419 421 q 408 418 414 415 q 417 421 414 418 q 414 429 414 425 q 419 421 417 424 m 531 385 q 517 356 532 369 q 488 344 503 342 q 494 340 488 340 q 481 328 486 332 l 481 336 q 474 342 476 340 q 476 354 478 353 q 475 357 481 357 q 472 353 471 357 q 471 350 474 350 q 468 351 467 350 q 468 357 469 356 q 460 343 460 349 q 469 342 468 343 q 458 344 471 344 q 454 351 454 344 q 454 365 456 363 q 456 358 454 363 q 457 350 457 354 q 461 364 461 354 q 481 376 463 367 l 476 382 q 460 372 457 372 q 431 388 453 372 q 388 403 410 403 q 369 372 385 403 q 375 400 375 388 q 392 413 382 400 q 408 408 404 407 q 399 418 401 417 q 408 406 410 418 q 413 401 411 403 q 415 408 415 403 q 419 397 415 403 q 422 411 422 404 q 419 428 422 419 q 463 435 450 435 q 468 431 467 435 l 468 425 l 476 415 q 475 419 475 418 q 479 422 475 422 q 492 403 493 417 l 494 406 q 500 407 496 407 q 531 385 500 406 m 422 364 l 414 372 q 407 360 415 360 q 392 374 393 360 l 392 364 q 408 353 400 353 q 422 364 417 353 m 319 431 l 319 436 l 335 432 l 335 428 l 319 431 m 365 389 q 360 392 363 392 q 353 388 357 392 q 357 396 357 393 q 365 389 357 399 m 340 397 q 332 386 335 390 q 333 390 333 388 q 332 396 333 393 q 335 394 333 394 q 340 397 338 394 m 299 413 l 296 415 l 306 426 l 308 424 l 299 413 m 267 433 l 263 435 l 260 426 l 263 425 l 267 433 m 281 313 q 267 329 281 315 q 276 322 274 322 q 281 326 281 322 l 281 313 m 106 324 l 85 354 l 81 351 l 101 321 l 106 324 z "},">":{"ha":1514,"x_min":15,"x_max":1492,"o":"m 154 1006 l 104 1006 l 104 919 l 57 919 l 57 1006 l 15 1006 l 15 1032 l 57 1032 l 57 1047 l 88 1047 l 88 1069 l 154 1069 l 154 1047 l 104 1047 l 104 1032 l 154 1032 l 154 1006 m 483 919 l 428 919 l 428 1024 l 386 1024 l 386 919 l 339 919 l 339 1046 l 458 1046 l 458 1025 q 483 1024 467 1026 l 483 919 m 200 1046 l 288 1046 l 288 1025 q 314 1024 297 1026 l 314 940 l 288 940 l 288 919 l 200 919 l 200 940 l 172 940 l 172 1024 l 201 1024 l 200 1046 m 549 1065 l 596 1065 l 596 1042 l 647 1042 l 647 1018 l 601 1018 q 603 942 603 944 l 647 943 l 647 919 l 574 919 l 574 943 l 549 943 l 549 1018 l 506 1018 l 506 1042 l 549 1042 l 549 1065 m 1114 1029 l 1043 1029 l 1043 1053 l 1114 1053 l 1114 1029 m 1369 944 l 1347 944 l 1347 964 l 1369 964 l 1369 944 m 1043 1014 l 1018 1014 l 1018 921 l 971 921 l 971 1053 l 1018 1053 l 1018 1036 q 1043 1029 1028 1036 l 1043 1014 m 1368 1008 q 1347 1010 1361 1007 l 1347 1025 l 1369 1025 l 1369 1049 l 1465 1049 l 1465 1025 l 1394 1025 l 1394 1010 l 1436 1010 l 1436 986 l 1465 986 l 1465 964 l 1492 964 l 1492 944 l 1465 944 l 1465 919 l 1369 919 l 1369 944 l 1436 944 q 1439 954 1442 949 q 1436 964 1436 960 l 1394 964 l 1394 986 l 1369 986 l 1368 1008 m 1492 1010 l 1465 1010 l 1465 1025 l 1492 1025 l 1492 1010 m 797 921 l 704 921 l 704 1047 l 751 1047 l 751 947 l 797 947 l 797 921 m 846 963 l 821 963 l 821 947 l 797 947 l 797 1047 l 846 1047 l 846 963 m 924 1032 l 882 1032 l 882 1064 l 924 1064 l 924 1032 m 924 919 l 882 919 l 882 1006 l 924 1006 l 924 919 m 1268 947 l 1268 1047 l 1318 1047 l 1318 921 l 1203 921 l 1203 947 l 1179 947 l 1179 1047 l 1221 1047 l 1221 947 l 1268 947 m 1140 921 l 1099 921 l 1099 957 l 1140 957 l 1140 921 m 1415 299 l 1281 274 l 1186 490 l 1053 456 l 1125 247 l 982 221 l 1022 74 l 750 38 l 732 169 l 981 215 l 949 333 l 440 217 l 439 115 l 626 150 l 636 24 l 436 -4 l 439 119 l 349 103 l 360 272 l 293 254 l 275 88 l 213 75 l 247 331 l 297 347 l 306 425 l 372 447 l 375 506 l 447 532 l 449 601 l 381 575 l 383 635 l 450 663 l 449 601 l 519 631 l 521 558 l 756 646 l 742 719 l 831 754 l 813 818 l 910 860 l 932 796 l 832 756 l 851 681 l 960 719 l 982 657 l 1090 694 l 1131 603 l 1239 636 l 1415 299 m 904 536 l 881 622 l 757 581 l 772 496 l 904 536 m 535 422 l 532 503 l 438 471 l 436 392 l 535 422 z "},"?":{"ha":494,"x_min":0,"x_max":0,"o":""},"@":{"ha":1068,"x_min":15,"x_max":1099,"o":"m 1035 479 l 1035 481 q 943 539 1015 489 q 832 658 907 564 q 650 872 806 682 q 476 1047 507 1047 q 304 979 411 1047 q 157 881 263 953 l 153 875 q 150 868 147 868 q 175 874 154 868 q 189 876 183 876 q 226 879 207 881 l 249 878 q 335 818 296 868 q 381 717 374 768 q 383 705 381 729 q 386 643 386 681 l 386 628 q 379 489 375 503 q 383 475 379 485 q 397 468 388 471 q 414 469 411 468 l 432 485 q 446 504 433 486 l 461 525 q 472 550 468 539 l 476 561 q 492 597 482 571 q 508 657 508 642 q 496 704 508 681 q 512 721 497 710 q 532 732 526 732 q 572 716 546 732 q 608 688 597 700 q 626 671 613 685 q 672 631 656 642 q 710 597 681 626 l 717 590 l 718 590 q 747 563 725 585 q 782 529 756 554 q 747 493 763 493 q 666 558 744 493 q 585 624 588 624 l 564 619 q 532 551 556 600 q 453 436 500 483 l 444 428 q 425 419 439 425 q 376 418 401 414 q 339 475 339 424 q 340 511 339 463 q 338 514 340 514 q 336 513 338 514 l 340 511 l 315 499 l 15 199 q 64 142 46 160 q 146 81 93 118 q 221 32 214 32 q 264 24 236 32 q 307 15 292 15 q 339 46 318 25 q 493 132 425 132 q 525 125 490 132 q 571 108 532 124 q 682 71 600 101 q 792 32 758 32 q 892 51 851 32 l 892 51 q 1018 104 994 90 q 1088 142 1047 119 l 1099 149 q 999 313 1064 229 q 936 297 967 313 q 876 276 889 274 q 831 290 854 276 q 786 317 807 303 q 590 372 690 372 q 436 315 553 372 q 422 335 431 322 q 495 426 432 379 q 604 474 558 474 q 671 461 643 474 q 728 425 685 454 q 785 375 751 401 l 818 349 q 847 333 822 344 q 883 332 850 332 q 907 338 892 332 q 928 343 922 343 q 953 355 935 343 q 975 367 971 367 l 975 367 l 975 367 l 975 367 l 999 383 l 1054 414 q 1072 438 1072 424 q 1064 460 1072 451 l 1035 479 z "},"A":{"ha":1092,"x_min":-151,"x_max":1140,"o":"m 522 619 q 507 756 524 625 q 478 871 497 793 q 524 847 489 872 q 568 810 558 822 q 663 661 642 711 l 685 607 l 522 619 m 1092 410 q 1086 411 1090 411 q 1046 403 1072 411 q 1004 392 1014 393 q 958 383 961 385 q 917 350 931 378 q 899 292 906 310 q 874 244 883 247 q 875 281 875 261 q 807 629 875 414 q 694 886 743 831 q 539 1021 611 981 q 339 1068 453 1068 q 164 1043 269 1068 l 188 1032 q 303 944 232 1018 q 376 779 339 907 l 390 654 q 368 618 392 639 l 315 606 q 175 483 271 594 q 100 378 147 451 q 90 357 90 363 q 93 354 92 354 q 122 361 99 353 q 149 374 144 369 q 304 428 253 432 q 319 399 318 411 q 241 281 301 360 q 144 169 181 203 q 31 72 39 72 q 0 42 15 58 q 78 39 4 39 q 183 56 124 39 q 365 124 199 60 q 621 272 597 213 q 542 274 594 271 q 529 313 529 307 q 557 447 529 367 q 579 468 564 468 l 596 468 q 611 468 601 468 q 733 447 697 471 q 735 432 733 454 l 736 410 q 738 375 736 400 l 739 349 l 742 304 q 744 283 742 299 q 746 260 746 268 q 736 239 744 249 q 674 399 711 314 q 635 412 667 406 q 594 414 604 418 q 575 360 586 410 l 575 307 l 621 307 q 660 300 657 307 l 660 282 q 604 207 660 238 q 586 188 586 197 q 599 169 586 179 l 651 110 q 738 10 676 81 q 799 -50 761 -18 q 803 -51 800 -51 q 846 -19 815 -51 q 884 26 871 7 q 939 106 897 46 q 1017 236 967 144 l 1092 410 m 1014 433 q 1140 457 1039 438 q 1113 353 1136 419 q 1054 224 1057 232 q 983 103 1017 149 q 942 44 972 88 q 800 -115 857 -75 q 653 42 700 -15 q 593 115 638 61 q 543 160 578 133 q 263 36 413 100 q 40 -4 168 -4 q -47 8 -7 -4 l -50 15 q -53 29 -53 22 q 21 117 -53 47 l 183 269 q 238 357 226 310 q 156 323 221 353 q 88 293 92 293 l 76 290 q 60 289 65 288 q 44 296 57 290 q 36 315 43 300 q 133 506 69 432 q 344 672 250 640 l 340 711 q 338 735 340 708 l 335 761 q 246 925 311 851 q 89 1013 172 1013 q 76 1038 76 1017 q 88 1076 76 1060 q 244 1113 124 1097 q 322 1117 278 1117 q 511 1082 378 1117 q 646 1010 586 1063 q 781 846 746 921 q 824 753 799 824 q 843 696 829 739 q 917 418 906 501 l 1014 433 m 469 451 q 486 311 461 408 q 492 278 490 294 q 450 314 458 303 q 428 435 424 354 q 442 475 431 475 q 451 469 446 475 l 469 451 m -146 363 l -147 363 l -147 361 l -149 363 l -150 361 l -150 363 l -151 363 l -150 364 l -151 365 l -150 365 l -150 367 l -149 365 l -147 367 l -147 365 l -146 365 l -147 364 l -146 363 z "},"B":{"ha":1090,"x_min":-72,"x_max":1092,"o":"m 1092 575 q 1088 529 1092 539 q 694 100 992 318 q 415 -29 518 -29 q 193 64 324 -29 q -24 257 117 118 q 38 292 -11 264 q 139 350 63 307 q 260 414 161 363 q 331 521 326 458 l 335 583 q 317 669 332 625 q 299 671 310 671 q 188 654 264 671 l 142 658 l 110 664 q 76 681 97 671 q -33 869 13 710 q -72 1096 -72 1006 q -69 1128 -72 1113 l -65 1151 q 40 1026 18 1047 q 182 954 94 976 q 326 940 236 940 q 501 952 385 940 q 675 964 617 964 q 769 954 742 964 q 819 883 819 936 q 799 819 819 844 q 758 776 792 811 q 818 779 781 775 q 903 786 876 786 l 990 788 q 1072 700 1046 775 q 1092 575 1092 646 m 1046 614 q 1017 699 1046 654 q 936 756 979 756 q 756 732 875 756 q 656 708 636 708 q 638 715 649 708 q 713 779 647 732 q 786 876 769 821 q 672 915 763 915 q 493 906 613 915 q 314 896 374 896 q 200 906 247 896 q -35 1061 7 946 q 22 847 -29 958 q 164 706 81 721 q 250 714 181 703 q 326 722 319 725 q 361 661 361 717 q 365 603 361 642 q 368 544 368 564 q 247 353 368 400 q 51 251 215 340 q 168 147 53 250 q 281 68 246 78 q 364 32 318 50 q 390 24 369 31 q 411 22 400 22 q 688 150 514 22 q 924 358 825 250 q 1006 478 971 410 q 1046 614 1046 556 m 569 785 q 540 735 564 750 l 488 718 q 446 708 457 708 q 429 817 446 739 q 532 833 432 824 q 569 785 574 817 m 747 538 q 667 376 728 443 q 510 292 601 304 l 478 539 q 561 590 483 564 q 665 615 629 615 l 744 617 q 749 572 749 597 q 747 538 749 556 m 624 529 q 624 563 625 549 l 594 563 q 536 540 576 563 q 528 531 529 538 l 539 425 q 624 529 608 436 z "},"C":{"ha":1117,"x_min":-18,"x_max":1161,"o":"m 658 1101 q 742 1117 692 1108 q 838 1101 785 1117 q 922 1050 906 1082 q 894 971 928 989 q 569 631 689 863 q 828 410 617 472 q 982 361 875 396 q 1083 331 1076 331 l 1133 308 q 1161 263 1149 301 q 1122 197 1158 235 q 957 90 1097 163 q 781 17 867 43 q 719 0 726 0 q 685 3 708 0 q 650 7 661 7 q 560 42 607 7 q 318 179 488 94 q 79 319 156 261 q -18 476 -18 394 q 133 738 -18 608 q -14 1028 -14 863 q 11 1088 -14 1056 q 81 1048 19 1079 q 151 1017 142 1017 q 160 1015 157 1017 l 168 1015 q 182 1014 172 1015 q 196 1013 192 1013 l 208 1011 l 247 1011 q 540 1068 349 1011 q 597 1088 606 1088 l 658 1101 m 554 688 q 868 1032 683 900 q 794 1058 817 1058 q 582 1011 724 1058 q 372 964 440 964 q 289 958 357 964 l 204 951 q 136 963 188 950 q 87 978 131 964 q 39 992 43 992 q 61 926 57 939 q 92 869 78 883 q 203 764 126 840 l 211 754 q 191 700 201 746 q 179 653 181 654 q 176 701 176 664 q 172 731 176 731 q 154 714 164 724 l 136 694 l 111 660 q 75 600 115 660 q 28 481 28 529 q 222 303 28 408 q 428 199 239 293 q 561 117 460 182 q 644 74 628 74 q 701 61 639 74 q 754 64 722 60 l 786 68 q 881 99 829 68 q 969 151 904 113 q 1111 256 1089 221 l 1111 276 q 901 324 1022 289 q 701 396 765 363 q 526 626 631 433 l 483 624 q 465 625 476 624 q 447 626 453 626 q 413 611 414 626 l 413 568 q 411 443 413 464 q 403 439 408 439 q 342 469 389 439 q 281 593 281 510 q 303 692 281 629 q 443 846 349 821 q 500 858 451 849 l 456 764 q 410 686 449 750 q 446 683 424 688 q 474 683 456 681 q 496 688 488 686 l 554 688 z "},"D":{"ha":929,"x_min":-67,"x_max":967,"o":"m 124 910 q 10 981 69 931 q -60 1076 -67 1044 q -39 1097 -54 1100 l -24 1100 q 32 1083 14 1085 q 176 1096 90 1076 q 318 1129 247 1113 q 504 1129 394 1144 q 593 1088 544 1124 q 647 1011 647 1049 q 610 978 647 972 q 521 1000 564 992 q 476 971 490 1006 q 557 835 486 928 q 664 717 592 789 l 668 713 q 810 567 704 675 q 907 463 893 481 q 958 361 958 392 q 963 316 958 346 q 967 271 967 286 q 957 228 967 251 l 929 161 q 879 114 924 154 q 699 22 817 57 q 574 0 635 -6 q 435 0 507 -14 l 258 33 q 158 54 204 43 q 118 110 111 74 q 129 144 119 125 q 135 165 128 150 q 143 181 143 179 q 54 472 54 375 q 67 526 54 490 q 93 558 79 561 q 183 481 128 522 l 190 481 l 183 647 q 181 789 183 681 q 172 878 179 843 l 124 910 m 929 250 q 919 361 940 314 l 858 461 q 778 551 829 508 q 600 735 697 643 q 497 860 551 781 q 436 975 436 949 q 458 1023 436 1000 q 506 1043 481 1046 q 596 1022 518 1042 q 531 1079 597 1050 q 439 1106 471 1106 q 240 1075 382 1106 q 36 1043 74 1039 q 5 1049 25 1044 q -12 1053 -15 1053 q 85 974 8 1013 q 167 932 92 968 q 197 917 194 919 q 213 899 206 910 q 226 625 232 783 q 224 479 224 546 q 225 471 224 476 q 213 428 228 451 q 197 415 203 414 l 185 417 q 119 469 172 428 l 92 499 q 201 188 88 319 q 157 119 165 169 q 219 81 171 93 q 297 68 258 76 l 400 46 q 510 31 471 31 q 646 47 594 31 q 768 94 729 75 q 867 157 817 126 q 929 250 921 199 m 618 319 q 510 333 581 318 q 406 361 418 353 q 363 460 368 385 q 351 669 351 614 q 354 721 351 710 q 375 758 363 753 q 563 506 421 689 q 657 349 657 383 q 618 319 657 321 m 553 361 q 417 528 543 392 q 424 408 407 460 q 439 383 432 383 l 553 361 z "},"E":{"ha":1088,"x_min":-29,"x_max":1122,"o":"m 1122 333 q 1119 321 1122 326 q 1001 151 1065 203 q 831 49 974 128 q 685 -19 708 -19 q 601 40 653 1 q 447 135 519 101 q 274 197 408 153 l 132 244 q 43 353 78 274 q 0 483 24 396 q -29 636 -29 590 q -15 677 -29 658 q 21 696 0 696 q 111 643 58 696 l 129 625 l 175 604 q 161 631 175 588 q 138 717 147 675 q 132 735 132 742 q 131 757 132 742 q 129 779 129 772 q 175 865 129 817 q 257 913 221 913 q 269 915 261 913 q 281 917 276 917 l 338 919 q 382 924 346 918 q 438 942 400 926 q 458 981 458 963 q 463 992 458 982 q 468 1003 468 1001 q 467 1010 467 1008 q 481 1022 467 1017 q 804 1101 544 1047 q 867 1108 838 1108 q 938 1099 890 1108 q 1010 1090 986 1090 l 1028 1090 q 1039 1081 1035 1090 q 1046 1072 1043 1072 l 1046 1040 q 954 947 1046 1024 q 832 814 904 906 q 700 650 813 781 q 669 614 696 640 q 749 510 692 561 q 826 440 771 481 q 1033 363 933 363 q 1081 365 1092 363 q 1122 333 1122 356 m 469 621 l 528 617 l 557 622 q 514 646 526 632 q 486 689 511 650 q 436 672 474 685 q 410 650 410 664 q 413 638 410 644 q 474 619 424 621 q 469 621 472 619 m 476 572 q 476 576 479 575 q 464 581 474 579 q 374 603 421 588 q 362 640 375 606 q 349 682 349 674 q 363 710 349 699 q 401 722 372 713 q 444 740 414 726 q 481 765 460 753 l 508 800 l 518 757 q 533 710 528 714 q 581 689 563 689 q 624 685 563 689 q 669 699 646 683 q 685 707 682 707 q 743 788 708 751 q 810 861 761 806 q 983 1029 911 979 q 971 1033 982 1029 q 954 1038 960 1038 l 954 1038 l 926 1047 q 894 1054 900 1057 l 865 1054 q 721 1022 810 1054 q 613 996 686 1010 q 506 969 540 982 q 393 871 469 899 q 272 851 354 871 q 204 801 231 842 q 181 765 194 794 q 181 714 176 724 q 268 576 219 619 q 250 540 267 546 l 225 540 q 118 583 172 540 q 63 619 101 596 q 36 636 46 629 q 17 607 15 626 q 74 404 32 525 q 194 286 104 315 l 369 231 q 571 136 497 190 q 711 58 678 58 q 750 69 721 58 q 783 82 758 72 q 943 178 864 111 q 1074 313 1051 269 q 992 321 1040 321 q 672 511 850 321 q 614 578 610 578 q 546 543 579 578 q 536 493 540 538 q 522 414 531 428 q 478 385 506 385 q 396 404 463 385 q 328 426 365 413 q 338 471 329 447 q 374 476 346 476 q 411 472 403 476 l 432 465 q 465 449 451 454 q 483 464 475 444 q 483 501 485 467 q 478 542 483 521 l 476 572 z "},"F":{"ha":953,"x_min":-35,"x_max":1075,"o":"m 1075 1044 q 963 840 1054 960 q 858 739 917 781 q 825 715 853 738 q 792 694 797 693 q 861 563 861 621 q 857 550 861 554 q 813 550 854 547 q 757 550 760 554 q 883 311 760 540 q 990 64 990 113 q 924 -19 990 -19 q 620 44 881 -19 q 333 126 360 108 q 256 189 307 144 q 215 254 242 213 q 272 301 217 301 q 305 298 283 301 q 338 294 326 294 q 372 289 349 294 q 406 283 394 283 q 433 306 417 283 q 369 524 433 450 l 332 524 q 188 477 281 524 q 113 431 96 431 l 82 431 q 71 471 71 456 q 76 519 71 504 q 136 617 86 544 q 213 700 161 653 q 292 725 244 708 q 126 890 244 828 q -28 931 71 919 q -31 940 -28 932 q -35 954 -35 949 q 140 1076 -35 1025 q 299 1110 254 1110 q 383 1078 350 1096 q 742 1017 496 1017 q 892 1047 793 1017 q 1043 1078 992 1078 q 1075 1044 1060 1078 m 626 800 q 597 803 617 800 q 568 806 578 806 q 603 757 593 757 q 619 774 611 757 q 626 800 626 790 m 1007 1010 q 675 954 808 954 l 606 954 q 406 1003 536 954 q 297 1053 275 1053 q 56 979 190 1053 q 219 896 138 971 q 342 753 263 857 q 367 688 350 742 q 324 672 369 678 q 242 661 244 663 q 181 594 219 651 q 142 518 149 547 q 224 549 168 531 q 344 579 318 579 q 449 475 410 579 q 478 317 478 397 q 393 228 478 228 q 359 237 382 228 q 325 246 336 246 q 303 238 303 246 q 333 200 303 229 q 799 49 407 153 q 876 39 835 39 q 936 64 931 39 q 646 593 878 233 q 681 601 653 604 q 719 599 694 600 q 797 586 757 592 q 803 596 803 589 q 781 644 803 592 q 716 675 754 672 q 601 685 678 678 q 592 688 583 688 q 501 771 569 688 l 453 831 q 439 858 444 840 q 467 893 447 869 l 593 874 q 697 829 692 858 q 672 778 672 799 l 672 758 q 722 739 699 739 q 748 742 731 739 q 774 744 765 744 q 820 765 782 744 q 868 794 858 786 q 950 897 896 818 q 1007 1010 1006 982 z "},"G":{"ha":1140,"x_min":-39,"x_max":1200,"o":"m 621 1074 q 876 1101 718 1101 q 963 1095 906 1101 q 1050 1089 1021 1089 q 1146 1060 1089 1089 q 1200 1025 1194 1035 l 1183 989 q 1161 963 1175 971 l 1007 865 q 867 775 969 843 q 778 653 797 717 l 767 653 q 783 654 776 654 l 793 654 q 814 653 804 653 l 847 653 l 965 642 q 1050 579 1013 631 q 1101 482 1067 557 q 1186 260 1186 303 q 1181 242 1186 253 q 1175 224 1175 231 q 1156 220 1171 224 q 1132 217 1142 217 q 1003 314 1128 217 q 911 365 947 357 q 868 372 899 368 q 879 331 872 357 q 933 163 911 261 q 954 -14 954 64 q 913 -144 954 -118 q 892 -157 899 -158 q 875 -151 889 -157 q 860 -146 861 -144 q 675 35 736 -15 q 411 196 560 129 q 214 261 371 214 q 129 276 190 265 q -24 417 -24 304 q 22 539 -24 479 q 126 681 110 653 q 21 828 67 747 q -39 997 -39 931 q 3 1053 -39 1053 q 90 1022 22 1053 q 176 990 158 990 q 190 989 181 990 q 203 988 199 988 q 267 992 229 988 q 358 1003 367 1003 q 381 1007 365 1003 q 406 1011 397 1011 q 494 1038 403 1011 l 621 1074 m 519 707 l 493 692 l 410 658 l 507 653 l 519 707 m 1114 338 q 1047 485 1051 479 q 847 607 992 607 q 797 608 835 607 q 733 610 760 610 l 549 610 q 494 613 540 610 q 417 613 443 615 q 415 594 417 610 q 426 575 415 581 q 506 526 454 561 l 506 504 q 479 488 493 488 q 329 608 329 488 q 386 699 329 664 q 503 763 414 715 q 633 861 571 799 l 642 851 l 642 829 q 558 707 610 785 l 558 685 q 589 681 565 681 q 626 683 601 681 q 663 685 650 685 q 757 726 722 685 q 814 793 808 789 q 1006 917 919 876 q 1067 958 1024 922 q 1136 1003 1110 993 q 1006 1053 1074 1053 q 599 1024 707 1053 l 381 965 q 153 942 292 942 q 94 954 135 942 q 49 971 83 958 q 14 983 19 983 q 22 932 14 969 q 36 888 31 894 q 81 835 38 879 q 196 713 157 756 l 107 586 q 17 431 17 458 q 19 422 17 425 q 46 372 28 381 q 122 343 65 353 q 199 326 157 338 q 589 174 390 276 q 736 61 669 132 l 874 -85 q 892 -90 883 -87 q 903 -79 900 -90 q 910 -19 910 -54 q 874 211 910 85 q 783 422 838 338 q 810 439 786 429 q 840 447 817 442 q 881 446 831 446 q 963 413 921 446 l 1089 310 l 1107 310 l 1114 338 z "},"H":{"ha":1268,"x_min":-89,"x_max":1333,"o":"m 328 390 q 363 378 328 393 q 381 375 368 375 q 406 399 401 375 q 415 458 418 440 q 415 499 414 472 q 418 508 417 510 l 343 522 q 229 561 315 519 q 186 583 210 563 q 149 632 153 614 q 118 772 133 651 q 141 887 114 807 q 193 986 168 967 q 360 1058 263 1039 q 563 1082 479 1082 q 607 1081 586 1082 q 712 994 669 1057 q 751 865 754 932 q 746 722 750 863 q 740 747 746 729 q 731 786 731 781 q 733 789 731 789 q 732 792 732 790 q 733 796 729 796 q 746 818 739 807 q 744 832 744 825 q 746 843 744 839 q 751 865 751 856 q 739 906 753 885 q 724 935 725 926 q 674 1019 708 968 q 574 1122 574 1111 q 603 1135 574 1133 q 849 1129 749 1140 q 979 1108 864 1128 q 1140 1074 1118 1085 q 1258 1006 1222 1031 q 1333 911 1333 954 q 1332 882 1333 886 q 1265 878 1314 878 q 1208 883 1224 883 q 1133 863 1160 883 l 1094 832 q 1051 750 1088 825 q 1031 686 1042 731 q 1022 649 1022 654 l 1022 649 q 1124 594 1040 640 q 1210 518 1144 575 l 1238 468 q 1257 414 1254 439 q 1263 283 1268 322 q 1256 214 1267 261 q 1213 100 1240 150 q 1138 19 1206 81 q 997 -24 1099 -15 q 814 -6 961 -26 q 764 11 801 -4 q 676 153 676 46 q 692 203 676 178 l 697 264 q 696 279 696 268 q 699 324 696 294 q 696 193 701 294 q 692 132 694 156 q 679 74 686 81 q 642 25 665 53 q 588 0 633 15 q 544 -1 583 -6 q 363 58 496 4 q 282 107 347 71 q 201 143 213 143 q 182 114 194 143 q 167 85 169 85 q 96 146 144 85 l 40 215 q -53 332 17 246 q -89 385 -67 349 q 82 426 -1 407 q 268 460 108 432 l 325 469 q 339 472 329 469 q 353 475 349 475 q 358 463 364 475 l 328 390 m 174 225 q 357 122 218 201 q 499 71 435 86 q 553 64 524 65 q 585 65 574 64 q 638 151 615 83 q 685 414 671 254 q 713 440 696 414 l 729 467 q 731 463 731 467 q 703 219 703 279 q 728 122 703 153 q 833 67 747 99 q 964 46 938 44 q 1044 60 992 47 q 1119 86 1104 74 q 1179 150 1169 125 q 1204 222 1200 172 q 1213 313 1214 249 q 1211 363 1213 354 q 1188 444 1207 404 q 1158 489 1174 474 q 1097 550 1136 522 q 996 594 1064 565 q 918 628 976 603 q 915 631 915 629 q 790 665 874 643 q 758 668 761 668 q 738 688 742 672 q 732 699 738 694 l 726 703 q 746 722 731 711 q 840 710 763 722 q 907 692 867 706 l 978 667 q 1019 794 983 690 q 1044 847 1033 835 q 1197 926 1082 926 q 1294 918 1238 926 q 1107 1032 1265 957 q 963 1061 1038 1043 q 693 1088 849 1088 q 649 1092 665 1088 q 699 1029 661 1072 q 743 947 735 975 q 760 840 760 892 l 760 743 q 747 603 760 681 q 740 521 740 603 q 850 483 739 519 q 992 429 969 444 q 1051 307 1063 381 l 1044 258 q 1006 243 1038 243 q 976 292 976 243 l 976 346 q 978 347 978 354 q 968 385 978 378 q 840 435 965 388 q 783 451 829 439 q 733 461 738 463 q 704 346 722 346 q 693 360 700 346 q 683 374 686 374 l 697 521 q 710 774 710 653 l 710 876 q 699 935 710 911 q 619 1015 665 1004 q 497 1029 561 1029 q 419 1024 451 1029 q 221 943 285 1000 q 190 860 206 929 q 175 768 178 804 q 183 696 174 749 q 204 635 194 639 q 305 592 235 614 q 413 571 375 571 q 425 604 425 575 q 422 642 425 617 q 418 681 418 668 q 315 767 418 756 q 279 819 279 767 q 326 858 279 854 q 406 840 378 863 q 428 814 417 826 q 453 735 435 810 q 469 651 465 683 l 469 592 q 468 506 469 517 q 446 357 468 382 q 413 331 424 332 q 269 358 338 331 q 278 390 267 361 q 290 428 290 425 l -12 361 l 143 151 l 174 225 z "},"I":{"ha":656,"x_min":-35,"x_max":681,"o":"m 157 400 q 126 552 151 456 q 79 696 100 649 q 39 815 58 738 q 24 900 24 876 l 63 904 q 213 900 176 897 q 214 904 214 901 q 176 954 214 910 l 178 951 q 163 974 172 958 q 121 1026 160 979 q 76 1074 106 1042 q 28 1117 64 1081 q -19 1181 -19 1164 q -17 1186 -19 1183 q 8 1189 -8 1190 q 35 1189 26 1188 q 119 1186 63 1189 l 253 1153 q 336 1118 289 1143 l 351 1110 q 419 1074 413 1076 q 475 1104 433 1074 q 532 1146 490 1115 q 593 1171 553 1154 l 603 1086 q 615 1003 607 1065 q 619 961 617 999 q 615 933 622 946 l 608 924 q 592 897 596 899 l 533 869 q 554 863 533 865 q 518 657 544 825 q 510 607 518 649 q 497 547 507 600 q 493 524 497 544 q 536 526 496 522 q 592 518 549 525 q 629 501 606 517 q 679 389 671 468 q 679 344 681 381 q 649 243 678 294 q 626 204 644 236 q 586 149 622 197 q 535 82 574 133 q 469 10 531 76 q 400 -46 449 -6 q 267 -133 283 -142 l 274 -83 q 272 -25 276 -62 q 258 31 271 -17 q 214 94 254 47 q 131 150 197 114 q 31 197 97 163 q -14 272 8 208 q -35 361 -35 329 q -18 397 -35 401 q 49 371 -4 393 q 99 361 79 361 q 143 374 117 361 l 157 400 m 261 899 q 278 854 269 882 q 272 804 281 818 l 511 897 q 574 951 539 915 l 558 1113 l 417 1017 l 349 1067 l 233 1108 l 128 1139 l 64 1150 l 150 1068 q 231 957 189 1014 l 261 899 m 183 328 l 181 346 q 186 344 186 346 q 168 331 186 340 q 126 314 139 314 q 40 338 92 314 q 33 340 36 340 q 25 329 25 340 q 46 261 25 307 q 103 219 60 238 q 213 165 136 206 q 258 128 226 158 q 314 8 314 75 l 314 -67 q 375 -11 339 -43 q 407 18 379 -8 q 457 71 435 44 q 578 231 526 151 q 621 311 613 285 q 626 351 625 325 q 594 469 629 413 q 535 485 569 489 q 483 479 524 488 q 440 300 467 408 q 435 267 439 290 q 424 232 426 238 q 400 204 415 219 q 397 261 394 218 q 411 343 399 281 l 464 607 q 488 724 469 636 q 499 800 499 776 q 482 821 499 821 l 376 794 q 238 758 275 758 q 197 761 221 758 q 240 808 240 775 q 233 839 240 821 q 231 849 232 844 q 169 860 218 860 q 90 849 86 860 l 117 785 q 192 504 144 717 q 221 283 225 353 q 206 247 219 261 l 183 328 z "},"J":{"ha":1156,"x_min":-61,"x_max":1190,"o":"m 1190 861 q 1043 731 1150 806 l 1099 649 q 1157 531 1154 567 q 1175 488 1169 488 q 1180 444 1175 472 q 1185 400 1185 415 q 1079 101 1185 219 q 792 -24 969 -24 q 740 -8 761 -24 q 786 51 751 14 q 789 69 789 63 q 775 88 789 88 q 492 -8 704 88 q 186 -103 279 -103 l 100 -103 q -13 -53 35 -103 q -61 63 -61 -3 q 6 217 -61 138 q 132 338 29 244 q 200 433 200 399 q 190 461 200 439 l 113 461 q 53 497 53 461 q 174 596 53 554 q 311 626 263 626 q 493 526 368 626 q 621 372 618 426 l 622 343 q 690 350 624 344 q 842 332 779 358 l 875 318 q 871 331 876 319 q 865 344 865 342 q 708 522 865 399 q 515 672 669 553 q 411 813 457 718 q 365 982 365 907 q 392 1069 365 1033 q 471 1111 421 1111 q 607 1057 481 1111 q 1131 903 967 903 q 1190 896 1140 901 l 1190 861 m 1133 378 q 1093 538 1133 471 q 1006 679 1071 574 q 979 743 979 722 q 1046 804 979 768 q 1117 844 1069 817 q 796 917 1000 867 q 601 993 764 925 q 444 1050 467 1050 q 417 997 417 1050 q 513 776 417 888 q 719 592 553 729 q 864 453 817 511 q 940 274 940 358 q 929 250 940 264 q 913 228 914 231 l 893 228 q 844 289 881 250 q 763 311 811 311 q 617 296 663 311 q 596 257 611 292 q 572 232 583 228 q 579 260 572 208 q 586 319 586 313 q 581 357 586 342 q 540 419 568 378 q 464 496 513 460 q 288 578 351 578 q 164 551 239 578 q 118 517 118 524 q 142 503 118 508 q 206 503 206 503 q 251 482 256 501 q 192 338 261 407 l 58 206 q -17 68 -17 132 q 57 -26 -17 8 q 181 -54 115 -54 q 492 41 279 -54 q 792 136 704 136 q 823 126 801 136 q 849 108 844 115 q 850 88 850 97 q 839 39 850 58 q 1061 140 983 42 q 1133 378 1133 231 z "},"K":{"ha":1231,"x_min":-108,"x_max":1261,"o":"m 664 358 m 618 340 q 536 311 613 339 q 468 190 533 279 q 406 104 451 168 q 304 36 385 74 q 189 -11 239 6 q -12 -53 60 -53 l -36 -53 q -60 -35 -46 -53 q 15 88 -40 10 q 90 207 71 165 q 210 504 210 461 q 207 593 210 571 q 156 692 197 674 q 74 706 117 696 q -19 836 40 749 q -108 986 -108 965 q -81 1024 -108 1008 q -33 1038 -57 1038 q 269 942 51 1038 q 494 831 447 864 q 522 754 514 817 q 531 703 525 733 q 549 856 546 747 q 569 1003 551 960 q 688 1103 596 1068 l 797 1144 q 818 1151 804 1144 q 839 1157 832 1157 q 896 1171 836 1157 q 972 1174 908 1174 q 1176 1079 1085 1174 l 1179 1035 q 1113 1008 1161 1017 q 1081 1003 1092 1003 q 899 865 975 1003 q 801 675 894 857 q 1160 844 1146 844 q 1195 835 1174 844 q 1217 814 1217 825 q 1189 679 1217 740 q 1110 542 1169 638 q 1003 365 1025 407 q 1025 344 1003 344 q 1132 387 1050 344 q 1235 429 1214 429 q 1249 426 1240 429 q 1261 422 1258 422 l 1261 392 q 1207 221 1261 310 q 1126 111 1179 175 q 996 17 1058 46 q 863 -15 971 6 q 683 -11 817 -24 l 640 -7 q 508 35 508 -7 q 603 207 508 68 q 688 350 653 282 q 693 372 690 360 l 618 340 m 1218 379 q 992 282 1036 282 q 950 339 950 282 q 979 414 950 360 q 1022 489 1001 451 q 1081 582 1043 526 q 1121 642 1099 608 q 1150 699 1143 676 q 1165 760 1165 747 q 1154 792 1165 775 q 901 661 1076 733 q 760 601 843 638 q 682 581 711 581 q 672 585 674 581 l 669 589 q 711 649 682 622 q 856 865 765 699 q 1128 1057 964 1067 l 1082 1089 q 936 1122 994 1122 q 779 1083 876 1122 l 644 1029 q 600 882 610 990 q 594 719 600 876 q 518 583 581 626 q 485 669 503 597 q 458 771 463 758 q 271 885 444 796 q 7 981 83 981 l -31 981 l -31 960 q 17 876 -25 951 q 76 764 74 774 q 118 750 88 754 q 157 742 149 746 q 242 643 222 693 q 257 513 257 603 q 178 293 257 457 q 25 10 110 153 q 35 6 26 10 q 49 3 43 3 q 186 33 93 3 q 351 117 292 68 q 415 190 383 143 q 488 318 474 276 l 496 357 q 522 371 497 360 l 553 385 q 624 411 579 393 q 706 447 639 417 q 783 474 764 474 q 792 471 789 474 q 689 232 747 322 q 618 125 686 228 q 588 69 588 79 l 588 46 q 647 42 582 46 q 724 38 711 38 l 888 39 q 1149 229 996 40 q 1218 379 1203 296 z "},"L":{"ha":1204,"x_min":-181,"x_max":1235,"o":"m 1182 -122 l 1075 -50 q 479 136 800 136 q 388 100 465 136 q 446 25 406 74 q 504 -29 465 8 q 507 -54 507 -43 q 467 -97 507 -97 q 442 -99 458 -97 q 418 -101 426 -101 q 185 -17 294 -101 q 149 14 144 14 q 104 -18 142 14 l 35 -78 q 0 -12 0 -58 q 19 136 0 74 q 49 183 24 151 q 76 208 71 200 q 83 469 72 282 l 96 679 q 71 822 100 754 q -35 906 35 906 q -110 883 -68 906 l -154 860 q -181 899 -181 860 q -97 1040 -181 954 q 40 1125 -14 1125 q 293 1058 144 1125 q 519 906 469 979 q 533 875 525 901 q 535 850 535 861 q 528 817 535 826 l 510 739 q 565 700 519 733 q 781 601 651 639 q 858 578 846 583 q 964 546 946 554 q 1054 482 1008 528 q 1115 372 1075 461 l 1181 229 q 1235 11 1235 32 l 1235 -101 l 1182 -122 m 1192 -37 l 1192 -8 q 1115 233 1192 54 q 985 450 1036 419 q 897 492 954 468 q 785 528 814 517 q 679 574 756 540 q 575 625 654 586 q 526 653 560 635 q 553 582 526 631 l 569 538 q 606 469 581 517 q 625 413 625 436 q 601 364 622 393 q 458 351 575 367 l 342 336 q 329 347 338 336 l 329 386 q 401 597 329 440 q 474 828 474 754 q 299 996 474 918 q 64 1060 154 1060 q -22 1033 15 1060 q -90 965 -42 1019 q -43 974 -65 974 q 108 869 56 974 q 151 685 151 785 q 136 467 151 613 q 121 250 121 322 q 124 179 121 210 q 51 107 99 158 q 43 42 42 56 l 39 -10 q 110 44 53 0 q 161 79 154 79 q 221 32 185 79 q 256 4 233 17 q 396 -43 349 -44 l 432 -42 q 374 40 408 -11 q 339 121 371 46 q 446 182 354 176 l 494 185 q 578 188 518 186 q 654 186 635 189 q 988 69 826 161 l 1175 -37 l 1192 -37 m 532 433 q 475 660 474 607 q 375 413 440 575 l 449 413 q 449 414 440 413 l 496 414 q 532 433 525 414 z "},"M":{"ha":1114,"x_min":-90,"x_max":1371,"o":"m -58 825 q 179 949 56 867 q 340 1031 217 967 q 500 1088 385 1054 q 603 1113 513 1092 q 643 1119 614 1115 q 713 1125 700 1128 q 696 1104 713 1119 q 672 1064 672 1082 q 900 1013 754 1056 q 1132 942 976 989 q 1161 937 1142 942 q 1190 932 1181 932 q 1219 931 1200 932 q 1249 929 1239 929 q 1281 928 1260 929 q 1314 926 1303 926 q 1371 911 1333 926 q 1143 696 1297 792 q 1076 669 1122 683 q 1010 644 1029 656 q 978 614 1000 639 q 971 586 971 596 q 988 550 974 560 l 996 600 q 1015 628 1007 628 q 1019 625 1018 626 q 1085 501 1038 592 q 1163 329 1163 351 q 969 106 1163 269 q 743 -31 808 -31 q 704 75 719 -31 l 671 299 l 601 225 q 597 219 601 219 q 528 293 585 219 q 522 290 525 293 q 494 97 507 147 q 386 -42 460 -42 q 164 74 328 -42 q -11 267 -11 196 q 44 422 -11 292 q 153 571 106 565 q 185 560 179 571 q 192 504 183 524 q 204 538 200 508 q 201 579 208 563 l 192 603 q 139 625 179 633 q 124 619 135 624 q 113 613 118 615 q 86 636 110 613 q 15 696 53 669 q -90 794 -90 769 l -58 825 m 593 331 q 649 457 613 351 q 693 551 681 551 q 703 547 700 551 l 726 275 q 739 153 733 194 q 761 33 749 81 q 950 150 850 63 q 1128 339 1071 256 l 1022 560 q 1004 492 1017 542 q 949 442 989 450 q 915 472 936 447 q 904 513 904 500 q 963 681 904 644 q 1150 760 1096 728 q 1311 899 1263 825 q 1165 889 1189 889 q 935 954 1093 889 q 706 1019 778 1019 q 681 1021 672 1019 q 656 1018 667 1018 q 642 977 654 1007 q 631 940 631 947 q 643 785 639 871 q 600 614 649 679 l 586 614 q 557 803 557 779 q 590 964 557 867 l 626 1069 q 406 1008 525 1051 q 288 956 322 978 l 131 853 q -15 778 56 804 q 44 717 1 751 q 128 672 99 672 l 168 672 q 228 607 196 672 q 256 517 256 550 q 257 472 256 453 q 225 431 254 431 q 160 486 160 431 l 160 529 q 125 507 147 529 l 71 382 q 39 256 47 328 q 371 8 292 8 l 394 8 q 468 150 447 8 q 486 425 486 272 q 483 519 486 482 q 510 540 489 540 l 593 331 z "},"N":{"ha":1256,"x_min":-131,"x_max":1269,"o":"m 151 472 q 264 508 233 508 l 249 594 q 228 614 246 614 q 238 613 238 614 q 190 600 238 610 q 101 585 117 585 q -25 604 57 585 q -131 668 -131 629 q -47 740 -131 696 q 69 813 53 793 q 261 981 117 843 q 396 1069 356 1069 q 526 942 478 1069 q 557 964 547 964 q 661 889 625 964 q 701 808 669 868 q 729 747 729 760 q 719 910 719 853 q 721 949 719 933 q 753 1042 718 988 q 825 1097 788 1097 q 931 1042 835 1097 q 1089 936 1039 979 q 1111 833 1097 929 q 1077 810 1104 822 q 1035 797 1050 797 q 1019 801 1029 797 q 1004 804 1010 804 q 982 788 996 804 q 1269 393 1033 613 q 1188 191 1225 274 q 1101 32 1151 108 q 976 -79 1028 -79 q 822 61 936 -79 q 721 188 796 93 q 686 164 714 178 q 629 132 646 144 q 578 104 618 124 q 315 -26 514 72 q 210 111 282 35 q 96 265 161 163 q 42 382 42 350 q 54 429 42 408 l 151 472 m 1214 389 q 1139 461 1211 393 q 1032 581 1057 539 q 946 789 946 726 q 957 839 946 817 q 994 867 971 867 q 1051 856 1018 867 q 1065 864 1064 861 q 1064 893 1067 868 q 942 967 1025 915 q 817 1039 833 1039 q 779 942 779 1039 q 794 781 779 900 q 832 490 794 747 q 726 611 792 489 q 714 636 721 621 l 654 753 q 619 824 639 785 q 572 888 604 851 q 501 832 526 829 l 471 925 q 419 1003 453 981 q 401 1022 414 1006 q 181 839 364 996 q -46 674 42 719 q 113 643 56 643 q 206 654 171 643 l 240 665 q 296 586 272 665 q 314 500 314 526 l 314 464 q 301 324 314 331 q 274 411 281 350 q 250 458 268 458 q 160 433 210 458 l 115 411 q 92 382 89 399 q 138 286 99 336 l 197 210 q 331 47 242 164 q 542 144 422 92 q 686 253 686 208 q 613 404 642 404 q 569 361 606 404 q 519 308 531 314 l 563 568 q 579 603 567 590 q 806 183 660 443 q 889 75 822 154 q 981 -10 961 -10 q 1113 167 1011 -10 q 1214 389 1214 343 z "},"O":{"ha":972,"x_min":-36,"x_max":997,"o":"m 939 810 l 933 774 q 907 706 933 750 q 829 649 874 650 l 747 646 q 901 422 821 535 q 964 318 925 378 q 997 189 997 267 q 919 13 997 58 q 718 -22 861 -22 q 321 46 500 -22 q 29 356 29 157 q 54 490 29 442 q 117 601 71 524 q 0 751 32 638 q -36 946 -36 881 q -25 1053 -36 1022 q 57 1104 -7 1104 q 290 1019 143 1104 q 446 907 382 967 q 500 1015 454 958 q 604 1049 526 1049 q 656 985 618 1049 q 758 850 717 881 q 860 815 800 819 l 939 810 m 107 240 q 229 147 156 181 q 485 49 367 69 q 588 35 556 36 l 686 31 q 724 28 683 31 q 775 28 744 26 q 921 92 871 32 q 954 178 954 131 q 885 363 954 269 q 753 538 851 407 q 675 658 725 575 q 667 685 672 664 q 665 710 663 707 q 692 703 671 710 q 721 696 714 697 q 817 693 779 688 q 856 717 844 701 q 889 763 868 732 l 776 789 q 689 838 724 801 q 619 943 660 883 q 565 993 589 988 q 496 911 514 956 q 472 828 492 900 l 453 754 q 414 853 436 806 q 253 972 399 885 q 69 1060 107 1060 q 39 1058 42 1060 q 22 1035 35 1050 q 13 926 13 997 q 31 840 13 879 q 65 738 43 788 q 144 654 103 654 q 196 709 158 654 q 235 782 233 764 q 190 765 218 776 q 160 838 160 789 q 201 888 160 888 q 262 865 228 888 q 296 818 296 843 q 213 661 296 786 q 121 521 168 596 q 76 413 76 451 q 72 382 76 418 q 75 339 69 357 q 107 240 79 274 m 581 329 q 535 321 568 328 q 422 358 494 313 q 378 431 378 386 q 403 526 378 460 q 465 606 432 606 q 557 546 524 606 q 600 435 563 536 q 614 364 614 382 q 581 329 614 329 m 433 481 q 418 461 418 474 q 419 440 419 488 q 439 406 419 419 q 481 392 458 392 q 510 401 506 392 q 513 413 513 406 q 508 435 513 421 q 499 474 510 454 q 469 492 488 493 l 433 481 z "},"P":{"ha":861,"x_min":-40,"x_max":1064,"o":"m 968 -42 q 935 -76 965 -53 q 883 -89 919 -78 q 767 -97 869 -96 q 261 74 589 -100 q 104 172 156 129 q 56 235 89 185 q 18 306 24 286 q 50 342 38 343 q 129 322 72 339 q 208 307 179 307 q 246 311 226 307 l 249 335 q 214 594 251 357 q 203 593 208 593 q 32 824 119 593 q -40 1111 -40 1014 q -29 1161 -40 1138 q 8 1188 -15 1192 l 107 1086 q 238 981 192 999 q 335 1017 260 989 q 482 1064 433 1053 l 635 1100 q 620 1060 635 1093 q 604 1015 606 1026 l 578 963 q 632 958 601 958 q 753 966 672 958 q 875 974 835 974 q 988 961 951 974 q 1064 875 1064 935 q 642 399 1064 668 q 946 0 726 199 q 968 -42 944 -1 m 1010 851 q 964 915 1010 900 q 876 924 939 924 q 681 910 814 924 l 561 897 q 532 901 536 900 q 513 919 518 907 q 574 1032 532 957 q 335 965 467 1014 q 240 919 240 931 q 243 918 240 918 q 126 992 204 924 l 10 1094 q 43 917 17 1032 q 69 838 49 901 q 119 721 83 807 q 193 661 158 664 q 253 622 247 657 q 283 465 267 571 q 299 394 292 457 q 304 311 307 331 q 229 235 292 225 q 96 275 186 249 q 318 100 93 217 q 475 25 358 81 q 598 -19 511 7 q 717 -44 685 -44 q 874 -22 843 -44 q 574 403 656 197 q 799 564 690 483 q 1010 851 1010 721 m 531 481 q 485 647 482 625 q 553 693 488 674 q 633 704 604 708 q 671 696 644 704 q 694 669 686 688 q 710 626 710 663 q 694 585 710 597 q 624 528 692 582 l 531 481 m 644 610 q 653 620 644 610 q 647 646 661 629 q 607 660 636 660 q 579 654 596 663 l 542 635 q 556 553 549 604 q 607 581 572 553 q 644 610 628 592 z "},"Q":{"ha":1056,"x_min":3,"x_max":1106,"o":"m 989 332 m 433 926 l 442 939 q 465 969 449 949 q 524 1019 507 1019 q 632 956 571 1019 q 676 890 647 932 q 732 833 731 836 q 940 710 764 782 l 942 669 q 906 619 943 639 q 710 593 876 604 l 733 550 q 883 454 807 507 q 1014 322 979 389 q 1028 203 1026 254 q 1076 174 1044 194 q 1106 21 1106 74 q 1047 -164 1106 -164 l 957 -65 q 844 35 865 35 q 854 32 853 35 q 821 15 854 28 q 738 -12 764 -7 q 565 -29 664 -29 q 201 67 358 -29 q 3 419 3 189 q 57 613 3 479 q 111 793 111 747 q 108 817 111 801 q 104 842 104 833 q 197 992 104 886 q 351 1108 300 1108 q 397 1076 368 1108 l 411 1035 l 433 926 m 749 642 q 863 664 804 642 l 860 690 q 658 832 772 731 q 568 919 606 879 l 533 957 q 469 881 499 957 q 422 781 435 792 q 389 932 413 819 q 342 1056 369 1025 q 226 965 303 1049 q 153 872 183 919 q 157 819 157 844 q 101 621 157 750 q 46 422 46 492 l 46 349 q 63 289 46 303 q 99 219 65 275 q 313 67 188 122 q 571 11 439 11 l 625 11 q 736 24 671 11 q 789 47 743 26 q 822 73 796 50 q 853 96 847 96 q 956 13 869 96 q 1057 -75 1043 -71 q 1064 -11 1064 -57 q 1053 63 1064 10 q 1035 128 1043 115 q 982 178 1014 144 q 990 222 990 200 q 899 361 990 297 q 792 453 872 388 q 699 514 763 471 q 626 593 646 551 q 635 632 625 611 q 661 653 644 653 l 749 642 m 536 460 q 553 432 553 446 q 525 415 553 415 q 340 467 492 415 l 344 496 q 368 551 347 517 q 399 608 394 594 q 414 631 406 628 q 464 558 417 622 l 514 492 q 536 460 515 489 m 551 273 q 582 252 551 273 q 613 204 613 232 q 568 175 613 179 q 467 186 521 169 l 407 204 q 342 256 378 213 q 313 326 318 283 q 319 376 317 350 q 392 350 329 374 q 453 321 413 339 q 551 273 489 314 m 467 467 l 426 531 l 406 536 l 389 492 l 467 467 z "},"R":{"ha":1153,"x_min":-97,"x_max":1190,"o":"m 1060 -103 q 863 -226 949 -226 q 690 -106 792 -226 q 546 96 617 -17 q 424 293 514 147 q 425 264 425 278 q 400 185 425 217 q 326 115 385 165 q 171 33 231 33 q 151 35 158 33 q 75 256 115 42 q 39 574 39 447 q 49 746 39 572 q 26 831 53 825 l -93 831 q -96 840 -93 835 q -96 857 -97 850 q 96 1000 -74 951 q 304 1053 115 1006 q 303 1186 286 1153 q 408 1236 331 1243 q 472 1225 428 1235 q 536 1164 483 1217 q 656 1067 601 1099 q 769 1014 697 1043 q 888 965 864 976 q 892 951 888 961 q 817 890 860 906 q 724 876 788 879 q 632 863 661 872 q 697 779 649 824 q 717 735 711 767 q 717 682 722 706 q 575 543 697 594 q 792 346 640 475 q 946 242 861 288 q 1036 200 1015 206 q 1097 217 1067 193 q 1143 264 1121 240 q 1190 174 1190 250 q 1060 -103 1190 43 m 1125 87 q 1131 111 1125 87 q 1136 171 1136 135 q 1082 144 1128 168 q 1043 129 1050 128 q 951 168 1011 143 q 814 264 926 171 q 682 379 729 333 l 507 547 q 519 563 514 556 q 575 593 533 575 q 660 665 650 625 q 644 731 665 690 q 604 786 626 767 q 550 874 550 835 q 614 926 550 924 l 676 922 q 818 951 750 925 q 544 1075 668 1014 q 446 1185 506 1094 q 401 1194 426 1189 q 356 1106 364 1197 q 364 1050 361 1082 q 271 983 351 994 l 193 972 q 113 961 169 969 q -15 889 24 949 l 46 890 q 73 873 56 889 q 93 847 90 857 q 103 760 103 815 q 96 658 103 715 q 103 424 97 576 q 118 308 106 347 q 125 257 113 307 q 139 200 129 243 q 185 99 150 168 q 287 144 217 99 q 363 218 357 189 q 350 304 365 232 q 324 419 325 424 q 364 449 331 449 q 386 446 374 449 q 525 265 424 438 q 688 -4 661 35 q 874 -172 790 -154 q 1025 -67 926 -183 q 1125 87 1114 39 m 483 664 q 456 629 483 642 q 404 617 429 617 q 361 619 390 617 q 317 622 332 622 q 285 661 293 621 q 275 719 282 681 q 257 838 257 808 q 281 875 257 851 q 403 800 342 850 q 490 703 490 729 q 483 664 490 667 m 396 660 q 363 721 389 681 q 306 757 338 736 q 339 660 313 660 l 396 660 z "},"S":{"ha":692,"x_min":-57,"x_max":1007,"o":"m 739 718 q 794 646 774 697 q 804 560 804 621 q 794 532 804 551 q 778 511 783 513 q 764 508 772 510 q 756 508 760 507 q 738 514 749 510 q 567 133 567 238 q 601 4 567 89 q 590 -43 601 -29 q 546 -57 579 -57 q 276 10 468 -57 q 165 56 204 35 q -57 272 -57 174 q -33 328 -57 279 q -3 390 -26 344 l 57 499 q 50 525 58 507 q 28 547 33 547 l 0 604 q -17 633 -8 618 q -26 665 -26 649 q -15 719 -26 686 q 81 840 6 781 q 215 960 175 915 q 393 1060 261 1010 q 581 1101 435 1075 q 897 1132 753 1132 q 1007 1117 953 1132 q 924 1029 1001 1085 q 768 914 803 943 q 653 764 683 843 q 674 757 658 764 l 739 718 m 71 593 q 199 617 106 599 q 397 650 372 650 q 435 636 422 650 l 435 618 q 279 472 346 501 l 225 449 l 243 501 q 286 547 243 513 q 358 608 343 593 q 76 557 293 597 q 99 538 75 556 q 115 511 104 533 q 75 428 99 469 l 35 357 q 1 294 24 338 q 208 96 1 186 q 382 24 257 76 q 535 1 438 0 q 538 22 535 10 q 538 44 540 35 l 513 132 q 574 335 513 221 q 672 517 592 368 q 713 586 696 586 l 758 563 q 761 572 758 565 q 761 589 764 581 l 761 625 q 628 718 721 693 q 544 725 601 725 q 477 719 522 725 q 410 713 432 713 q 363 710 396 713 q 314 724 335 704 q 313 742 313 733 q 329 782 313 768 q 369 829 353 811 q 479 886 399 858 q 481 882 481 886 q 458 823 481 860 q 417 775 436 786 q 403 749 403 767 q 471 754 403 746 q 532 761 528 761 q 585 775 578 768 q 738 956 635 861 q 933 1089 846 1054 q 896 1092 926 1093 q 451 1031 688 1085 q 347 985 399 1008 q 242 918 294 963 q 132 825 214 896 q 19 688 19 728 q 33 653 19 675 l 71 593 z "},"T":{"ha":1089,"x_min":-47,"x_max":1238,"o":"m 1218 1097 q 1174 960 1214 1078 q 1024 736 1129 829 q 842 606 906 632 q 668 557 800 596 l 682 385 q 711 410 689 388 q 771 429 728 426 q 751 296 772 404 q 722 147 744 258 l 674 -103 q 532 -11 582 -78 q 425 144 503 28 q 350 271 415 163 q 294 388 349 272 q 357 371 322 388 q 414 349 403 349 q 419 350 418 349 l 417 536 q 285 622 353 575 q 92 774 176 699 q -1 969 29 829 q -31 1085 -10 1011 q -42 1149 -42 1125 q -44 1190 -42 1151 q -42 1229 -47 1221 q 208 1082 15 1203 q 304 1019 240 1061 q 410 979 356 986 l 346 1174 q 353 1175 349 1175 q 560 1097 393 1175 q 658 1019 599 1079 q 703 953 689 989 l 813 972 q 929 1001 890 986 q 1238 1181 1010 1033 l 1218 1097 m 486 924 q 469 903 481 915 q 257 992 308 965 q 0 1157 85 1081 q 8 1117 -3 1151 l 18 1082 q 22 1068 18 1079 q 47 981 31 1049 q 121 824 72 879 q 422 590 183 753 q 422 626 425 604 q 419 665 419 651 q 418 719 419 717 l 369 740 q 331 756 350 749 q 315 804 315 801 q 333 840 315 828 q 453 800 379 828 l 463 760 q 465 703 467 740 l 454 503 q 458 422 460 428 q 472 272 465 350 q 467 269 471 269 l 432 286 q 385 304 404 299 l 510 111 q 640 -18 569 18 q 675 163 640 10 q 694 233 683 188 q 717 332 700 258 q 725 369 721 351 q 663 304 671 304 q 642 371 639 304 q 633 481 643 410 q 624 592 624 557 q 636 790 624 769 q 772 826 657 826 q 783 822 781 826 l 783 806 q 753 751 783 769 q 674 726 721 743 q 671 606 674 668 q 1149 1067 1035 711 l 1121 1050 q 992 976 1111 1042 q 793 903 857 903 q 728 897 771 903 q 664 890 686 890 q 563 1033 653 976 q 404 1113 483 1074 l 486 924 z "}}}
